SplineFontDB: 3.2
FontName: NotoSansOriyaUI-Regular
FullName: Noto Sans Oriya UI Regular
FamilyName: Noto Sans Oriya UI
Weight: Book
Copyright: Copyright 2019 Google LLC. All Rights Reserved.
Version: 2.000
ItalicAngle: 0
UnderlinePosition: -125
UnderlineWidth: 50
Ascent: 800
Descent: 200
InvalidEm: 0
sfntRevision: 0x00020000
LayerCount: 2
Layer: 0 1 "+BBcEMAQ0BD0EOAQ5 +BD8EOwQwBD0A" 1
Layer: 1 1 "+BB8ENQRABDUENAQ9BDgEOQAA +BD8EOwQwBD0A" 0
XUID: [1021 59 1751208496 8660]
StyleMap: 0x0040
FSType: 0
OS2Version: 4
OS2_WeightWidthSlopeOnly: 0
OS2_UseTypoMetrics: 0
CreationTime: 1573797408
ModificationTime: 1639434701
PfmFamily: 81
TTFWeight: 400
TTFWidth: 5
LineGap: 0
VLineGap: 0
Panose: 0 0 0 0 0 0 0 0 0 0
OS2TypoAscent: 1069
OS2TypoAOffset: 0
OS2TypoDescent: -293
OS2TypoDOffset: 0
OS2TypoLinegap: 0
OS2WinAscent: 1069
OS2WinAOffset: 0
OS2WinDescent: 293
OS2WinDOffset: 0
HheadAscent: 1069
HheadAOffset: 0
HheadDescent: -293
HheadDOffset: 0
OS2SubXSize: 650
OS2SubYSize: 600
OS2SubXOff: 0
OS2SubYOff: 75
OS2SupXSize: 650
OS2SupYSize: 600
OS2SupXOff: 0
OS2SupYOff: 350
OS2StrikeYSize: 50
OS2StrikeYPos: 395
OS2CapHeight: 714
OS2XHeight: 658
OS2Vendor: 'GOOG'
OS2CodePages: 00000001.00000000
OS2UnicodeRanges: 00080000.00000000.00000000.00000000
Lookup: 1 0 0 "'aalt' +BBIEQQQ1 +BDAEOwRMBEIENQRABD0EMARCBDgEMgQ9BEsENQAA +BDIEMARABDgEMAQ9BEIESwAA in Oriya2 lookup 0" { "'aalt' +BBIEQQQ1 +BDAEOwRMBEIENQRABD0EMARCBDgEMgQ9BEsENQAA +BDIEMARABDgEMAQ9BEIESwAA in Oriya2 lookup 0 subtable"  } ['aalt' ('DFLT' <'dflt' > 'ory2' <'dflt' > ) ]
Lookup: 3 0 0 "'aalt' +BBIEQQQ1 +BDAEOwRMBEIENQRABD0EMARCBDgEMgQ9BEsENQAA +BDIEMARABDgEMAQ9BEIESwAA in Oriya2 lookup 1" { "'aalt' +BBIEQQQ1 +BDAEOwRMBEIENQRABD0EMARCBDgEMgQ9BEsENQAA +BDIEMARABDgEMAQ9BEIESwAA in Oriya2 lookup 1 subtable"  } ['aalt' ('DFLT' <'dflt' > 'ory2' <'dflt' > ) ]
Lookup: 4 0 0 "'akhn' Akhand in Oriya2 lookup 2" { "'akhn' Akhand in Oriya2 lookup 2 subtable"  } ['akhn' ('ory2' <'dflt' > ) ]

StartChar: .notdef
Encoding: 65536 -1 0
Width: 1229
Flags: W
HStem: 93 51<459 768> 756 51<459 768>
VStem: 408 51<144 756> 768 51<144 756>
LayerCount: 2
Fore
SplineSet
819 807 m 1,0,-1
 819 93 l 1,1,-1
 408 93 l 1,2,-1
 408 807 l 1,3,-1
 819 807 l 1,0,-1
768 144 m 1,4,-1
 768 756 l 1,5,-1
 459 756 l 1,6,-1
 459 144 l 1,7,-1
 768 144 l 1,4,-1
EndSplineSet
EndChar

StartChar: uni0B01
Encoding: 2817 2817 5
Width: 0
GlyphClass: 4
Flags: W
HStem: 788 53<327.698 470.875> 906 81<370.861 427.655>
VStem: 207 63<905.307 981.778> 359 80<917.346 976.17> 530 63<907.268 981.778>
AnchorPoint: "+BBEENQQ3BEsEPARPBD0EPQQ+BDUA--5" 400 751 mark 0
AnchorPoint: "+BBEENQQ3BEsEPARPBD0EPQQ+BDUA--0" 400 751 mark 0
LayerCount: 2
Fore
SplineSet
399 788 m 0,0,1
 319 788 319 788 268 837.5 c 128,-1,2
 217 887 217 887 207 981 c 1,3,-1
 270 988 l 1,4,5
 276 916 276 916 310 878.5 c 128,-1,6
 344 841 344 841 399 841 c 256,7,8
 454 841 454 841 488.5 878.5 c 128,-1,9
 523 916 523 916 530 988 c 1,10,-1
 593 981 l 1,11,12
 583 887 583 887 531.5 837.5 c 128,-1,13
 480 788 480 788 399 788 c 0,0,1
399 906 m 256,14,15
 381 906 381 906 370 917 c 128,-1,16
 359 928 359 928 359 947 c 256,17,18
 359 966 359 966 370.5 976.5 c 128,-1,19
 382 987 382 987 399 987 c 0,20,21
 417 987 417 987 428 976.5 c 128,-1,22
 439 966 439 966 439 947 c 256,23,24
 439 928 439 928 428 917 c 128,-1,25
 417 906 417 906 399 906 c 256,14,15
EndSplineSet
EndChar

StartChar: uni0B02
Encoding: 2818 2818 6
Width: 304
Flags: W
HStem: 498 56<97.3906 206.926> 704 55<97.3221 206.609>
VStem: 16 60<574.134 681.82> 228 60<575.197 682.839>
LayerCount: 2
Fore
SplineSet
152 498 m 0,0,1
 93 498 93 498 54.5 533.5 c 128,-1,2
 16 569 16 569 16 629 c 0,3,4
 16 686 16 686 54 722.5 c 128,-1,5
 92 759 92 759 152 759 c 0,6,7
 211 759 211 759 249.5 722.5 c 128,-1,8
 288 686 288 686 288 627 c 0,9,10
 288 570 288 570 250 534 c 128,-1,11
 212 498 212 498 152 498 c 0,0,1
152 704 m 0,12,13
 117 704 117 704 96.5 682 c 128,-1,14
 76 660 76 660 76 628 c 0,15,16
 76 594 76 594 97.5 574 c 128,-1,17
 119 554 119 554 152 554 c 256,18,19
 185 554 185 554 206.5 574.5 c 128,-1,20
 228 595 228 595 228 628 c 0,21,22
 228 662 228 662 206.5 683 c 128,-1,23
 185 704 185 704 152 704 c 0,12,13
EndSplineSet
EndChar

StartChar: uni0B03
Encoding: 2819 2819 7
Width: 451
Flags: W
HStem: 84 66<153.604 298.62> 693 66<150.279 300.413>
VStem: 36 80<185.614 314.477 532.149 658.016> 336 79<184.689 314.13 531.054 657.997>
LayerCount: 2
Fore
SplineSet
227 759 m 0,0,1
 313 759 313 759 363 715.5 c 128,-1,2
 413 672 413 672 413 602 c 0,3,4
 413 558 413 558 394.5 525.5 c 128,-1,5
 376 493 376 493 346 468 c 128,-1,6
 316 443 316 443 282 421 c 1,7,8
 316 399 316 399 346.5 374 c 128,-1,9
 377 349 377 349 396 316.5 c 128,-1,10
 415 284 415 284 415 240 c 0,11,12
 415 171 415 171 364.5 127.5 c 128,-1,13
 314 84 314 84 225 84 c 0,14,15
 138 84 138 84 87 127 c 128,-1,16
 36 170 36 170 36 239 c 0,17,18
 36 283 36 283 55.5 315.5 c 128,-1,19
 75 348 75 348 106 373.5 c 128,-1,20
 137 399 137 399 172 421 c 1,21,22
 137 443 137 443 106.5 468 c 128,-1,23
 76 493 76 493 57 525 c 128,-1,24
 38 557 38 557 38 601 c 0,25,26
 38 669 38 669 88 714 c 128,-1,27
 138 759 138 759 227 759 c 0,0,1
225 693 m 256,28,29
 171 693 171 693 144.5 666 c 128,-1,30
 118 639 118 639 118 598 c 0,31,32
 118 550 118 550 150.5 517 c 128,-1,33
 183 484 183 484 227 456 c 1,34,35
 271 484 271 484 302.5 516.5 c 128,-1,36
 334 549 334 549 334 597 c 0,37,38
 334 640 334 640 306.5 666.5 c 128,-1,39
 279 693 279 693 225 693 c 256,28,29
116 248 m 256,40,41
 116 201 116 201 148.5 175.5 c 128,-1,42
 181 150 181 150 227 150 c 256,43,44
 273 150 273 150 304.5 175.5 c 128,-1,45
 336 201 336 201 336 247 c 0,46,47
 336 294 336 294 303.5 326.5 c 128,-1,48
 271 359 271 359 227 387 c 1,49,50
 182 359 182 359 149 327 c 128,-1,51
 116 295 116 295 116 248 c 256,40,41
EndSplineSet
EndChar

StartChar: uni0B05
Encoding: 2821 2821 8
Width: 693
GlyphClass: 2
Flags: W
HStem: 85 73<168.959 382.236> 692 67<114.696 201.369 299.174 383.896>
VStem: 27 74<557.624 673.95> 36 80<207.488 338.317> 215 70<556 672.918> 399 74<537.957 675.225> 554 78<93 202 273.687 751>
AnchorPoint: "+BBEENQQ3BEsEPARPBD0EPQQ+BDUA--0" 593 751 basechar 0
LayerCount: 2
Fore
SplineSet
264 85 m 0,0,1
 157 85 157 85 96.5 134.5 c 128,-1,2
 36 184 36 184 36 270 c 0,3,4
 36 320 36 320 55 352.5 c 128,-1,5
 74 385 74 385 104 405.5 c 128,-1,6
 134 426 134 426 168.5 439 c 128,-1,7
 203 452 203 452 235 462 c 2,8,-1
 258 469 l 2,9,10
 290 479 290 479 322.5 494 c 128,-1,11
 355 509 355 509 377 537.5 c 128,-1,12
 399 566 399 566 399 617 c 0,13,14
 399 653 399 653 383.5 672.5 c 128,-1,15
 368 692 368 692 341 692 c 256,16,17
 314 692 314 692 299.5 673.5 c 128,-1,18
 285 655 285 655 285 622 c 2,19,-1
 285 556 l 1,20,-1
 215 556 l 1,21,-1
 215 623 l 2,22,23
 215 655 215 655 200.5 673.5 c 128,-1,24
 186 692 186 692 158 692 c 0,25,26
 131 692 131 692 116 674.5 c 128,-1,27
 101 657 101 657 101 626 c 0,28,29
 101 612 101 612 105 594.5 c 128,-1,30
 109 577 109 577 118 557 c 1,31,-1
 50 539 l 1,32,33
 38 564 38 564 32.5 589 c 128,-1,34
 27 614 27 614 27 637 c 0,35,36
 27 692 27 692 58.5 725.5 c 128,-1,37
 90 759 90 759 145 759 c 0,38,39
 183 759 183 759 209.5 743 c 128,-1,40
 236 727 236 727 250 699 c 1,41,42
 280 759 280 759 351 759 c 0,43,44
 406 759 406 759 439.5 721 c 128,-1,45
 473 683 473 683 473 614 c 0,46,47
 473 559 473 559 454 523 c 128,-1,48
 435 487 435 487 405.5 464.5 c 128,-1,49
 376 442 376 442 344.5 429 c 128,-1,50
 313 416 313 416 288 408 c 2,51,-1
 268 402 l 2,52,53
 217 385 217 385 183 369.5 c 128,-1,54
 149 354 149 354 132.5 332 c 128,-1,55
 116 310 116 310 116 274 c 0,56,57
 116 221 116 221 155 189.5 c 128,-1,58
 194 158 194 158 263 158 c 0,59,60
 335 158 335 158 413.5 192 c 128,-1,61
 492 226 492 226 554 297 c 1,62,-1
 554 751 l 1,63,-1
 632 751 l 1,64,-1
 632 93 l 1,65,-1
 554 93 l 1,66,-1
 557 202 l 1,67,68
 499 145 499 145 421.5 115 c 128,-1,69
 344 85 344 85 264 85 c 0,0,1
EndSplineSet
EndChar

StartChar: uni0B07
Encoding: 2823 2823 10
Width: 796
GlyphClass: 2
Flags: W
HStem: 84 21G<699.399 740.667> 85 64<192.426 279.203 386.17 473.391> 364 64<192.426 279.144 385.212 472.777> 686 73<248.487 504.893>
VStem: 32 76<404.787 572.555> 109 62<173.6 326.863> 299 66<177.366 344.956> 493 61<168.517 339.841> 677 79<339.484 537.418>
AnchorPoint: "+BBEENQQ3BEsEPARPBD0EPQQ+BDUA--0" 661 751 basechar 0
LayerCount: 2
Fore
SplineSet
234 85 m 0,0,1
 177 85 177 85 143 129.5 c 128,-1,2
 109 174 109 174 109 255 c 0,3,4
 109 290 109 290 116 319 c 1,5,6
 72 358 72 358 52 403.5 c 128,-1,7
 32 449 32 449 32 498 c 0,8,9
 32 562 32 562 61 611 c 128,-1,10
 90 660 90 660 139.5 692.5 c 128,-1,11
 189 725 189 725 251 742 c 128,-1,12
 313 759 313 759 379 759 c 0,13,14
 448 759 448 759 515.5 740 c 128,-1,15
 583 721 583 721 637 682.5 c 128,-1,16
 691 644 691 644 723.5 587 c 128,-1,17
 756 530 756 530 756 453 c 0,18,19
 756 401 756 401 738.5 350.5 c 128,-1,20
 721 300 721 300 683 253 c 1,21,-1
 778 132 l 1,22,-1
 714 84 l 1,23,-1
 595 247 l 1,24,25
 639 289 639 289 658 336.5 c 128,-1,26
 677 384 677 384 677 435 c 0,27,28
 677 499 677 499 651 546.5 c 128,-1,29
 625 594 625 594 581 625 c 128,-1,30
 537 656 537 656 483.5 671 c 128,-1,31
 430 686 430 686 375 686 c 0,32,33
 307 686 307 686 246 663.5 c 128,-1,34
 185 641 185 641 146.5 596.5 c 128,-1,35
 108 552 108 552 108 487 c 0,36,37
 108 430 108 430 143 384 c 1,38,39
 177 428 177 428 234 428 c 0,40,41
 303 428 303 428 332 361 c 1,42,43
 363 428 363 428 433 428 c 0,44,45
 490 428 490 428 522 383 c 128,-1,46
 554 338 554 338 554 256 c 0,47,48
 554 175 554 175 522 130 c 128,-1,49
 490 85 490 85 433 85 c 0,50,51
 364 85 364 85 332 153 c 1,52,53
 302 85 302 85 234 85 c 0,0,1
235 149 m 0,54,55
 299 149 299 149 299 257 c 0,56,57
 299 364 299 364 235 364 c 0,58,59
 205 364 205 364 188 336.5 c 128,-1,60
 171 309 171 309 171 257 c 0,61,62
 171 204 171 204 188 176.5 c 128,-1,63
 205 149 205 149 235 149 c 0,54,55
430 149 m 0,64,65
 493 149 493 149 493 257 c 0,66,67
 493 309 493 309 477 336.5 c 128,-1,68
 461 364 461 364 430 364 c 0,69,70
 365 364 365 364 365 257 c 0,71,72
 365 204 365 204 382 176.5 c 128,-1,73
 399 149 399 149 430 149 c 0,64,65
EndSplineSet
EndChar

StartChar: uni0B08
Encoding: 2824 2824 11
Width: 796
GlyphClass: 2
Flags: W
HStem: 85 62<192.716 278.917 386.17 473.391> 363 61<192.416 279.758 385.212 472.5> 690 69<341.312 542.938>
VStem: 32 75<356.909 487.932> 109 62<172.706 297.875> 299 66<175.366 343.956> 493 61<166.632 338.525> 681 79<343.73 553.745>
AnchorPoint: "+BBEENQQ3BEsEPARPBD0EPQQ+BDUA--0" 665 751 basechar 0
LayerCount: 2
Fore
SplineSet
234 85 m 0,0,1
 177 85 177 85 143 129.5 c 128,-1,2
 109 174 109 174 109 253 c 0,3,4
 109 272 109 272 111 289 c 1,5,6
 71 317 71 317 51.5 354.5 c 128,-1,7
 32 392 32 392 32 433 c 0,8,9
 32 500 32 500 76.5 544 c 128,-1,10
 121 588 121 588 186 602 c 1,11,12
 209 656 209 656 249.5 691 c 128,-1,13
 290 726 290 726 341.5 742.5 c 128,-1,14
 393 759 393 759 449 759 c 0,15,16
 532 759 532 759 603 723.5 c 128,-1,17
 674 688 674 688 717 621.5 c 128,-1,18
 760 555 760 555 760 461 c 0,19,20
 760 405 760 405 741.5 352 c 128,-1,21
 723 299 723 299 683 252 c 1,22,-1
 778 131 l 1,23,-1
 714 85 l 1,24,-1
 595 247 l 1,25,26
 639 289 639 289 660 339 c 128,-1,27
 681 389 681 389 681 447 c 0,28,29
 681 521 681 521 648 575.5 c 128,-1,30
 615 630 615 630 560 660 c 128,-1,31
 505 690 505 690 439 690 c 0,32,33
 387 690 387 690 342.5 669 c 128,-1,34
 298 648 298 648 271 606 c 1,35,36
 313 602 313 602 353.5 584.5 c 128,-1,37
 394 567 394 567 424 536 c 1,38,-1
 381 483 l 1,39,40
 355 512 355 512 319 525 c 128,-1,41
 283 538 283 538 247 538 c 0,42,43
 210 538 210 538 178 524.5 c 128,-1,44
 146 511 146 511 126.5 485.5 c 128,-1,45
 107 460 107 460 107 425 c 0,46,47
 107 387 107 387 129 356 c 1,48,49
 161 424 161 424 234 424 c 0,50,51
 302 424 302 424 332 358 c 1,52,53
 363 424 363 424 433 424 c 0,54,55
 490 424 490 424 522 379.5 c 128,-1,56
 554 335 554 335 554 255 c 256,57,58
 554 175 554 175 522 130 c 128,-1,59
 490 85 490 85 433 85 c 0,60,61
 364 85 364 85 332 152 c 1,62,63
 318 120 318 120 293 102.5 c 128,-1,64
 268 85 268 85 234 85 c 0,0,1
235 147 m 0,65,66
 299 147 299 147 299 256 c 0,67,68
 299 363 299 363 235 363 c 0,69,70
 205 363 205 363 188 335 c 128,-1,71
 171 307 171 307 171 256 c 0,72,73
 171 203 171 203 188 175 c 128,-1,74
 205 147 205 147 235 147 c 0,65,66
430 147 m 0,75,76
 493 147 493 147 493 256 c 0,77,78
 493 307 493 307 477 335 c 128,-1,79
 461 363 461 363 430 363 c 0,80,81
 365 363 365 363 365 256 c 0,82,83
 365 202 365 202 382 174.5 c 128,-1,84
 399 147 399 147 430 147 c 0,75,76
EndSplineSet
EndChar

StartChar: uni0B09
Encoding: 2825 2825 12
Width: 779
GlyphClass: 2
Flags: W
HStem: 84 21G<682.399 723.667> 85 69<264.649 424.348> 686 73<249.1 499.358>
VStem: 32 76<404.011 570.801> 131 80<203.884 312.673> 465 72<192.457 314.403> 671 79<348.75 537.307>
AnchorPoint: "+BBEENQQ3BEsEPARPBD0EPQQ+BDUA--0" 655 751 basechar 0
LayerCount: 2
Fore
SplineSet
338 85 m 0,0,1
 287 85 287 85 239.5 104.5 c 128,-1,2
 192 124 192 124 161.5 163 c 128,-1,3
 131 202 131 202 131 262 c 0,4,5
 131 282 131 282 136 302 c 1,6,7
 82 344 82 344 57 393.5 c 128,-1,8
 32 443 32 443 32 497 c 0,9,10
 32 562 32 562 61 611 c 128,-1,11
 90 660 90 660 139.5 692.5 c 128,-1,12
 189 725 189 725 251 742 c 128,-1,13
 313 759 313 759 379 759 c 0,14,15
 457 759 457 759 524.5 736.5 c 128,-1,16
 592 714 592 714 642.5 673 c 128,-1,17
 693 632 693 632 721.5 576.5 c 128,-1,18
 750 521 750 521 750 455 c 0,19,20
 750 405 750 405 729.5 352 c 128,-1,21
 709 299 709 299 667 252 c 1,22,-1
 761 132 l 1,23,-1
 697 84 l 1,24,-1
 578 247 l 1,25,26
 627 291 627 291 649 341 c 128,-1,27
 671 391 671 391 671 440 c 0,28,29
 671 513 671 513 631 568 c 128,-1,30
 591 623 591 623 523.5 654.5 c 128,-1,31
 456 686 456 686 375 686 c 0,32,33
 324 686 324 686 276.5 673 c 128,-1,34
 229 660 229 660 191 635 c 128,-1,35
 153 610 153 610 130.5 572.5 c 128,-1,36
 108 535 108 535 108 486 c 0,37,38
 108 418 108 418 159 366 c 1,39,40
 177 398 177 398 207.5 429.5 c 128,-1,41
 238 461 238 461 283 491 c 1,42,-1
 316 447 l 1,43,44
 258 402 258 402 234.5 356 c 128,-1,45
 211 310 211 310 211 272 c 0,46,47
 211 232 211 232 231 206 c 128,-1,48
 251 180 251 180 281.5 167 c 128,-1,49
 312 154 312 154 345 154 c 0,50,51
 376 154 376 154 403 164.5 c 128,-1,52
 430 175 430 175 447.5 197 c 128,-1,53
 465 219 465 219 465 251 c 0,54,55
 465 276 465 276 453.5 298.5 c 128,-1,56
 442 321 442 321 417 340 c 1,57,-1
 358 279 l 1,58,-1
 317 320 l 1,59,-1
 469 479 l 1,60,-1
 510 438 l 1,61,-1
 462 387 l 1,62,63
 502 359 502 359 519.5 323.5 c 128,-1,64
 537 288 537 288 537 250 c 0,65,66
 537 195 537 195 508.5 158.5 c 128,-1,67
 480 122 480 122 434 103.5 c 128,-1,68
 388 85 388 85 338 85 c 0,0,1
EndSplineSet
EndChar

StartChar: uni0B0A
Encoding: 2826 2826 13
Width: 849
GlyphClass: 2
Flags: W
HStem: 85 69<263.906 420.571> 686 73<249.161 505.579>
VStem: 32 76<403.479 571.997> 131 80<202.737 312.673> 462 72<191.242 314.374> 644 79<432.832 576.708> 736 81<285.567 370.781>
AnchorPoint: "+BBEENQQ3BEsEPARPBD0EPQQ+BDUA--0" 627 751 basechar 0
LayerCount: 2
Fore
SplineSet
338 85 m 0,0,1
 284 85 284 85 237 105.5 c 128,-1,2
 190 126 190 126 160.5 165.5 c 128,-1,3
 131 205 131 205 131 262 c 0,4,5
 131 282 131 282 136 302 c 1,6,7
 32 383 32 383 32 499 c 0,8,9
 32 560 32 560 60 608.5 c 128,-1,10
 88 657 88 657 136 690.5 c 128,-1,11
 184 724 184 724 247 741.5 c 128,-1,12
 310 759 310 759 379 759 c 0,13,14
 449 759 449 759 511 742 c 128,-1,15
 573 725 573 725 620.5 692.5 c 128,-1,16
 668 660 668 660 695.5 614 c 128,-1,17
 723 568 723 568 723 511 c 0,18,19
 723 473 723 473 710 437 c 1,20,21
 758 428 758 428 787.5 401 c 128,-1,22
 817 374 817 374 817 333 c 0,23,24
 817 285 817 285 777 255 c 128,-1,25
 737 225 737 225 672 218 c 1,26,-1
 762 106 l 1,27,-1
 700 58 l 1,28,-1
 578 225 l 1,29,-1
 606 260 l 1,30,31
 663 260 663 260 699.5 276.5 c 128,-1,32
 736 293 736 293 736 328 c 0,33,34
 736 361 736 361 703.5 378 c 128,-1,35
 671 395 671 395 619 395 c 1,36,37
 644 448 644 448 644 495 c 0,38,39
 644 557 644 557 605.5 599.5 c 128,-1,40
 567 642 567 642 506 664 c 128,-1,41
 445 686 445 686 377 686 c 0,42,43
 307 686 307 686 245.5 663 c 128,-1,44
 184 640 184 640 146 595.5 c 128,-1,45
 108 551 108 551 108 486 c 0,46,47
 108 417 108 417 159 365 c 1,48,49
 177 398 177 398 207.5 429.5 c 128,-1,50
 238 461 238 461 283 491 c 1,51,-1
 316 447 l 1,52,53
 258 402 258 402 234.5 356 c 128,-1,54
 211 310 211 310 211 272 c 0,55,56
 211 216 211 216 250 185 c 128,-1,57
 289 154 289 154 342 154 c 0,58,59
 389 154 389 154 425.5 178.5 c 128,-1,60
 462 203 462 203 462 251 c 0,61,62
 462 275 462 275 451 297.5 c 128,-1,63
 440 320 440 320 416 339 c 1,64,-1
 358 279 l 1,65,-1
 317 320 l 1,66,-1
 469 479 l 1,67,-1
 510 438 l 1,68,-1
 461 386 l 1,69,70
 500 358 500 358 517 323 c 128,-1,71
 534 288 534 288 534 250 c 0,72,73
 534 195 534 195 506 158.5 c 128,-1,74
 478 122 478 122 433 103.5 c 128,-1,75
 388 85 388 85 338 85 c 0,0,1
EndSplineSet
EndChar

StartChar: uni0B0B
Encoding: 2827 2827 14
Width: 809
GlyphClass: 2
Flags: W
HStem: 85 65<241.552 382.263> 382 66<240.433 382.783> 686 73<240.729 480.239>
VStem: 32 76<405.203 574.904> 126 74<192.758 317.866> 423 74<191.769 340.401> 603 80<432.769 582.263> 696 81<285.567 370.615>
AnchorPoint: "+BBEENQQ3BEsEPARPBD0EPQQ+BDUA--0" 587 751 basechar 0
LayerCount: 2
Fore
SplineSet
313 85 m 0,0,1
 256 85 256 85 214 108.5 c 128,-1,2
 172 132 172 132 149 173 c 128,-1,3
 126 214 126 214 126 267 c 0,4,5
 126 288 126 288 129 307 c 1,6,7
 80 347 80 347 56 396 c 128,-1,8
 32 445 32 445 32 497 c 0,9,10
 32 563 32 563 60.5 612 c 128,-1,11
 89 661 89 661 136.5 694 c 128,-1,12
 184 727 184 727 243 743 c 128,-1,13
 302 759 302 759 363 759 c 0,14,15
 423 759 423 759 480.5 743.5 c 128,-1,16
 538 728 538 728 583.5 697.5 c 128,-1,17
 629 667 629 667 656 621.5 c 128,-1,18
 683 576 683 576 683 516 c 0,19,20
 683 475 683 475 667 437 c 1,21,22
 716 429 716 429 746.5 402 c 128,-1,23
 777 375 777 375 777 333 c 0,24,25
 777 285 777 285 737 255 c 128,-1,26
 697 225 697 225 631 218 c 1,27,-1
 722 106 l 1,28,-1
 659 58 l 1,29,-1
 538 225 l 1,30,-1
 565 260 l 1,31,32
 622 260 622 260 659 276.5 c 128,-1,33
 696 293 696 293 696 328 c 0,34,35
 696 361 696 361 663 378 c 128,-1,36
 630 395 630 395 579 395 c 1,37,38
 591 422 591 422 597 447.5 c 128,-1,39
 603 473 603 473 603 495 c 0,40,41
 603 558 603 558 569 600.5 c 128,-1,42
 535 643 535 643 480 664.5 c 128,-1,43
 425 686 425 686 361 686 c 0,44,45
 296 686 296 686 238.5 663.5 c 128,-1,46
 181 641 181 641 144.5 597 c 128,-1,47
 108 553 108 553 108 488 c 0,48,49
 108 421 108 421 155 370 c 1,50,51
 179 406 179 406 219.5 427 c 128,-1,52
 260 448 260 448 313 448 c 0,53,54
 368 448 368 448 409.5 424.5 c 128,-1,55
 451 401 451 401 474 360 c 128,-1,56
 497 319 497 319 497 267 c 0,57,58
 497 214 497 214 474 173 c 128,-1,59
 451 132 451 132 409.5 108.5 c 128,-1,60
 368 85 368 85 313 85 c 0,0,1
312 150 m 256,61,62
 365 150 365 150 394 182.5 c 128,-1,63
 423 215 423 215 423 267 c 0,64,65
 423 318 423 318 394 350 c 128,-1,66
 365 382 365 382 312 382 c 256,67,68
 259 382 259 382 229.5 350 c 128,-1,69
 200 318 200 318 200 267 c 256,70,71
 200 216 200 216 229.5 183 c 128,-1,72
 259 150 259 150 312 150 c 256,61,62
EndSplineSet
EndChar

StartChar: uni0B0C
Encoding: 2828 2828 15
Width: 594
GlyphClass: 2
Flags: W
HStem: 85 62<184.095 295> 323 57<355.705 474.296> 693 66<203.653 349.136>
VStem: 36 71<210.09 341.789> 87 80<523.593 657.305> 266 63<166.319 296.673> 384 79<522.643 659.225> 495 67<194.848 303.179>
AnchorPoint: "+BBEENQQ3BEsEPARPBD0EPQQ+BDUA--0" 280 751 basechar 0
LayerCount: 2
Fore
SplineSet
107 278 m 0,0,1
 107 219 107 219 154.5 184.5 c 128,-1,2
 202 150 202 150 295 147 c 1,3,4
 279 171 279 171 272.5 195.5 c 128,-1,5
 266 220 266 220 266 243 c 0,6,7
 266 303 266 303 307.5 341.5 c 128,-1,8
 349 380 349 380 419 380 c 0,9,10
 483 380 483 380 522.5 347 c 128,-1,11
 562 314 562 314 562 251 c 0,12,13
 562 173 562 173 496 129 c 128,-1,14
 430 85 430 85 306 85 c 0,15,16
 170 85 170 85 103 137.5 c 128,-1,17
 36 190 36 190 36 279 c 0,18,19
 36 326 36 326 53 356.5 c 128,-1,20
 70 387 70 387 97 406 c 128,-1,21
 124 425 124 425 155 437 c 128,-1,22
 186 449 186 449 216 458 c 2,23,-1
 271 475 l 2,24,25
 298 484 298 484 323.5 495 c 128,-1,26
 349 506 349 506 366.5 527.5 c 128,-1,27
 384 549 384 549 384 590 c 0,28,29
 384 639 384 639 356 666 c 128,-1,30
 328 693 328 693 278 693 c 0,31,32
 226 693 226 693 196.5 665.5 c 128,-1,33
 167 638 167 638 167 591 c 0,34,35
 167 576 167 576 170.5 559 c 128,-1,36
 174 542 174 542 184 523 c 1,37,-1
 108 501 l 1,38,39
 99 522 99 522 93 546 c 128,-1,40
 87 570 87 570 87 595 c 0,41,42
 87 671 87 671 138.5 715 c 128,-1,43
 190 759 190 759 280 759 c 0,44,45
 367 759 367 759 415 715.5 c 128,-1,46
 463 672 463 672 463 594 c 0,47,48
 463 547 463 547 447.5 516.5 c 128,-1,49
 432 486 432 486 408.5 467.5 c 128,-1,50
 385 449 385 449 359.5 438.5 c 128,-1,51
 334 428 334 428 313 422 c 2,52,-1
 257 404 l 2,53,54
 214 391 214 391 180 376.5 c 128,-1,55
 146 362 146 362 126.5 339.5 c 128,-1,56
 107 317 107 317 107 278 c 0,0,1
329 238 m 0,57,58
 329 218 329 218 337 195.5 c 128,-1,59
 345 173 345 173 362 149 c 1,60,61
 425 157 425 157 460 182.5 c 128,-1,62
 495 208 495 208 495 250 c 0,63,64
 495 284 495 284 474 303.5 c 128,-1,65
 453 323 453 323 417 323 c 0,66,67
 377 323 377 323 353 299.5 c 128,-1,68
 329 276 329 276 329 238 c 0,57,58
EndSplineSet
EndChar

StartChar: uni0B0F
Encoding: 2831 2831 16
Width: 688
GlyphClass: 2
Flags: W
VStem: 297 124<458.722 528.468> 549 78<172 677>
AnchorPoint: "+BBEENQQ3BEsEPARPBD0EPQQ+BDUA--0" 588 751 basechar 0
LayerCount: 2
Fore
SplineSet
627 751 m 1,0,-1
 627 93 l 1,1,-1
 537 93 l 1,2,3
 387 192 387 192 251.5 303.5 c 128,-1,4
 116 415 116 415 -5 533 c 1,5,-1
 51 591 l 1,6,7
 167 475 167 475 292.5 368.5 c 128,-1,8
 418 262 418 262 549 172 c 1,9,-1
 549 677 l 1,10,11
 481 673 481 673 432 637 c 128,-1,12
 383 601 383 601 366 548 c 1,13,14
 392 546 392 546 406.5 529 c 128,-1,15
 421 512 421 512 421 491 c 0,16,17
 421 466 421 466 404.5 450.5 c 128,-1,18
 388 435 388 435 362 435 c 0,19,20
 332 435 332 435 314.5 458 c 128,-1,21
 297 481 297 481 297 516 c 256,22,23
 297 551 297 551 314.5 591.5 c 128,-1,24
 332 632 332 632 367.5 668.5 c 128,-1,25
 403 705 403 705 456.5 728 c 128,-1,26
 510 751 510 751 582 751 c 2,27,-1
 627 751 l 1,0,-1
EndSplineSet
EndChar

StartChar: uni0B10
Encoding: 2832 2832 17
Width: 889
Flags: W
HStem: 400 70<627.845 748.154> 860 74<417.031 588.396> 919 73<637.829 797.92>
VStem: 297 124<458.722 528.983> 549 78<172 411 474.297 685> 749 78<93 411 474.688 786.518> 815 80<814.669 904.115>
LayerCount: 2
Fore
SplineSet
687 400 m 0,0,1
 654 400 654 400 627 411 c 1,2,-1
 627 93 l 1,3,-1
 537 93 l 1,4,5
 387 192 387 192 251.5 303.5 c 128,-1,6
 116 415 116 415 -5 533 c 1,7,-1
 51 591 l 1,8,9
 167 475 167 475 292.5 368.5 c 128,-1,10
 418 262 418 262 549 172 c 1,11,-1
 549 685 l 1,12,13
 476 680 476 680 428 641.5 c 128,-1,14
 380 603 380 603 365 548 c 1,15,16
 391 546 391 546 406 529.5 c 128,-1,17
 421 513 421 513 421 491 c 0,18,19
 421 466 421 466 404.5 450.5 c 128,-1,20
 388 435 388 435 362 435 c 0,21,22
 332 435 332 435 314.5 458 c 128,-1,23
 297 481 297 481 297 516 c 256,24,25
 297 551 297 551 314.5 591.5 c 128,-1,26
 332 632 332 632 367.5 668.5 c 128,-1,27
 403 705 403 705 456.5 728 c 128,-1,28
 510 751 510 751 582 751 c 2,29,-1
 627 751 l 1,30,-1
 627 481 l 1,31,32
 654 470 654 470 688 470 c 256,33,34
 722 470 722 470 749 482 c 1,35,-1
 749 787 l 1,36,37
 781 799 781 799 798 819 c 128,-1,38
 815 839 815 839 815 862 c 0,39,40
 815 889 815 889 794.5 904 c 128,-1,41
 774 919 774 919 739 919 c 0,42,43
 705 919 705 919 660.5 904.5 c 128,-1,44
 616 890 616 890 567.5 875 c 128,-1,45
 519 860 519 860 470 860 c 0,46,47
 430 860 430 860 389.5 878 c 128,-1,48
 349 896 349 896 326 946 c 1,49,-1
 391 987 l 1,50,51
 408 958 408 958 431.5 946 c 128,-1,52
 455 934 455 934 481 934 c 0,53,54
 508 934 508 934 541 942.5 c 128,-1,55
 574 951 574 951 611 963 c 128,-1,56
 648 975 648 975 685.5 983.5 c 128,-1,57
 723 992 723 992 759 992 c 0,58,59
 821 992 821 992 858 960 c 128,-1,60
 895 928 895 928 895 878 c 0,61,62
 895 812 895 812 827 772 c 1,63,-1
 827 93 l 1,64,-1
 749 93 l 1,65,-1
 749 411 l 1,66,67
 722 400 722 400 687 400 c 0,0,1
EndSplineSet
EndChar

StartChar: uni0B13
Encoding: 2835 2835 18
Width: 700
GlyphClass: 2
Flags: W
HStem: 85 73<277.542 511.337> 690 69<398.481 539.037>
VStem: 32 80<323.812 574.783> 283 80<523.828 654.683> 572 80<528.506 657.871> 584 79<219.785 342.338>
AnchorPoint: "+BBEENQQ3BEsEPARPBD0EPQQ+BDUA--0" 556 751 basechar 0
LayerCount: 2
Fore
SplineSet
400 85 m 0,0,1
 289 85 289 85 206 128.5 c 128,-1,2
 123 172 123 172 77.5 252 c 128,-1,3
 32 332 32 332 32 442 c 0,4,5
 32 561 32 561 84 663.5 c 128,-1,6
 136 766 136 766 224 831 c 1,7,-1
 278 779 l 1,8,9
 232 745 232 745 194 692.5 c 128,-1,10
 156 640 156 640 134 575.5 c 128,-1,11
 112 511 112 511 112 443 c 0,12,13
 112 360 112 360 146.5 296 c 128,-1,14
 181 232 181 232 245.5 195 c 128,-1,15
 310 158 310 158 398 158 c 0,16,17
 485 158 485 158 534.5 193 c 128,-1,18
 584 228 584 228 584 280 c 0,19,20
 584 327 584 327 550 355 c 128,-1,21
 516 383 516 383 456 383 c 0,22,23
 432 383 432 383 404.5 377.5 c 128,-1,24
 377 372 377 372 353 362 c 1,25,-1
 324 426 l 1,26,-1
 418 457 l 2,27,28
 451 467 451 467 487 482.5 c 128,-1,29
 523 498 523 498 547.5 525 c 128,-1,30
 572 552 572 552 572 595 c 0,31,32
 572 639 572 639 544 664.5 c 128,-1,33
 516 690 516 690 469 690 c 0,34,35
 421 690 421 690 392 662.5 c 128,-1,36
 363 635 363 635 363 591 c 0,37,38
 363 574 363 574 367 559 c 128,-1,39
 371 544 371 544 378 529 c 1,40,-1
 306 506 l 1,41,42
 283 555 283 555 283 600 c 0,43,44
 283 674 283 674 334.5 716.5 c 128,-1,45
 386 759 386 759 470 759 c 0,46,47
 557 759 557 759 604.5 715 c 128,-1,48
 652 671 652 671 652 603 c 0,49,50
 652 558 652 558 633 525.5 c 128,-1,51
 614 493 614 493 585 471 c 128,-1,52
 556 449 556 449 524 435 c 1,53,54
 593 422 593 422 628 380.5 c 128,-1,55
 663 339 663 339 663 277 c 0,56,57
 663 193 663 193 594.5 139 c 128,-1,58
 526 85 526 85 400 85 c 0,0,1
EndSplineSet
EndChar

StartChar: uni0B14
Encoding: 2836 2836 19
Width: 908
Flags: W
HStem: 85 73<277.542 511.337> 308 70<660 768.499> 690 69<398.481 539.037> 860 74<436.418 606.983> 919 73<657.789 817.69>
VStem: 32 80<323.812 574.783> 283 80<523.828 654.683> 572 80<528.506 657.871> 584 79<219.785 310.283> 769 78<93 323 385.392 786.518> 835 79<814.669 904.115>
LayerCount: 2
Fore
SplineSet
400 85 m 0,0,1
 289 85 289 85 206 128.5 c 128,-1,2
 123 172 123 172 77.5 252 c 128,-1,3
 32 332 32 332 32 442 c 0,4,5
 32 561 32 561 84 663.5 c 128,-1,6
 136 766 136 766 224 831 c 1,7,-1
 278 779 l 1,8,9
 232 745 232 745 194 692.5 c 128,-1,10
 156 640 156 640 134 575.5 c 128,-1,11
 112 511 112 511 112 443 c 0,12,13
 112 360 112 360 146.5 296 c 128,-1,14
 181 232 181 232 245.5 195 c 128,-1,15
 310 158 310 158 398 158 c 0,16,17
 485 158 485 158 534.5 193 c 128,-1,18
 584 228 584 228 584 280 c 0,19,20
 584 327 584 327 550 355 c 128,-1,21
 516 383 516 383 456 383 c 0,22,23
 432 383 432 383 404.5 377.5 c 128,-1,24
 377 372 377 372 353 362 c 1,25,-1
 324 426 l 1,26,-1
 418 457 l 2,27,28
 451 467 451 467 487 482.5 c 128,-1,29
 523 498 523 498 547.5 525 c 128,-1,30
 572 552 572 552 572 595 c 0,31,32
 572 639 572 639 544 664.5 c 128,-1,33
 516 690 516 690 469 690 c 0,34,35
 421 690 421 690 392 662.5 c 128,-1,36
 363 635 363 635 363 591 c 0,37,38
 363 574 363 574 367 559 c 128,-1,39
 371 544 371 544 378 529 c 1,40,-1
 306 506 l 1,41,42
 283 555 283 555 283 600 c 0,43,44
 283 674 283 674 334.5 716.5 c 128,-1,45
 386 759 386 759 470 759 c 0,46,47
 557 759 557 759 604.5 715 c 128,-1,48
 652 671 652 671 652 603 c 0,49,50
 652 558 652 558 633 525.5 c 128,-1,51
 614 493 614 493 585 471 c 128,-1,52
 556 449 556 449 524 435 c 1,53,54
 580 424 580 424 614 394 c 1,55,56
 630 387 630 387 648.5 382.5 c 128,-1,57
 667 378 667 378 689 378 c 0,58,59
 715 378 715 378 734 382 c 128,-1,60
 753 386 753 386 769 394 c 1,61,-1
 769 787 l 1,62,63
 801 799 801 799 818 819 c 128,-1,64
 835 839 835 839 835 862 c 0,65,66
 835 889 835 889 814.5 904 c 128,-1,67
 794 919 794 919 759 919 c 256,68,69
 724 919 724 919 680 904.5 c 128,-1,70
 636 890 636 890 587 875 c 128,-1,71
 538 860 538 860 489 860 c 0,72,73
 449 860 449 860 408.5 878 c 128,-1,74
 368 896 368 896 345 946 c 1,75,-1
 411 987 l 1,76,77
 428 958 428 958 451 946 c 128,-1,78
 474 934 474 934 501 934 c 0,79,80
 527 934 527 934 560 942.5 c 128,-1,81
 593 951 593 951 630 963 c 128,-1,82
 667 975 667 975 705 983.5 c 128,-1,83
 743 992 743 992 778 992 c 0,84,85
 841 992 841 992 877.5 960 c 128,-1,86
 914 928 914 928 914 878 c 0,87,88
 914 812 914 812 847 772 c 1,89,-1
 847 93 l 1,90,-1
 769 93 l 1,91,-1
 769 323 l 1,92,93
 754 316 754 316 735.5 312 c 128,-1,94
 717 308 717 308 689 308 c 0,95,96
 674 308 674 308 660 311 c 1,97,98
 663 295 663 295 663 277 c 0,99,100
 663 193 663 193 594.5 139 c 128,-1,101
 526 85 526 85 400 85 c 0,0,1
EndSplineSet
EndChar

StartChar: uni0B15
Encoding: 2837 2837 20
Width: 752
GlyphClass: 2
Flags: W
HStem: 167 61<197.481 292.233> 386 62<197.089 292.97 396.628 480.967> 686 73<239.372 497.533>
VStem: 32 76<411.825 578.567> 114 64<249.559 336.106> 304 78<93 183> 312 70<251.721 362.794> 496 78<93 365.855> 640 80<401.272 572.619>
AnchorPoint: "+BBEENQQ3BEsEPARPBD0EPQQ+BDUA--4" 574 93 basechar 0
AnchorPoint: "+BBEENQQ3BEsEPARPBD0EPQQ+BDUA--3" 496 93 basechar 0
AnchorPoint: "+BBEENQQ3BEsEPARPBD0EPQQ+BDUA--1" 367 751 basechar 0
AnchorPoint: "+BBEENQQ3BEsEPARPBD0EPQQ+BDUA--0" 624 751 basechar 0
LayerCount: 2
Fore
SplineSet
244 167 m 0,0,1
 184 167 184 167 149 206 c 128,-1,2
 114 245 114 245 114 306 c 0,3,4
 114 316 114 316 115 324 c 1,5,6
 73 365 73 365 52.5 409.5 c 128,-1,7
 32 454 32 454 32 504 c 0,8,9
 32 581 32 581 77 638.5 c 128,-1,10
 122 696 122 696 198 727.5 c 128,-1,11
 274 759 274 759 367 759 c 0,12,13
 434 759 434 759 497 742 c 128,-1,14
 560 725 560 725 610.5 691 c 128,-1,15
 661 657 661 657 690.5 606 c 128,-1,16
 720 555 720 555 720 488 c 0,17,18
 720 446 720 446 707.5 409.5 c 128,-1,19
 695 373 695 373 671 343 c 1,20,-1
 600 374 l 1,21,22
 619 397 619 397 629.5 426 c 128,-1,23
 640 455 640 455 640 488 c 0,24,25
 640 538 640 538 617 575 c 128,-1,26
 594 612 594 612 555 636.5 c 128,-1,27
 516 661 516 661 467 673.5 c 128,-1,28
 418 686 418 686 367 686 c 0,29,30
 294 686 294 686 235.5 663 c 128,-1,31
 177 640 177 640 142.5 597 c 128,-1,32
 108 554 108 554 108 496 c 0,33,34
 108 442 108 442 140 395 c 1,35,36
 157 420 157 420 184 434 c 128,-1,37
 211 448 211 448 245 448 c 0,38,39
 281 448 281 448 308 433 c 128,-1,40
 335 418 335 418 352 392 c 1,41,42
 380 448 380 448 452 448 c 0,43,44
 515 448 515 448 544.5 413 c 128,-1,45
 574 378 574 378 574 315 c 2,46,-1
 574 93 l 1,47,-1
 496 93 l 1,48,-1
 496 309 l 2,49,50
 496 346 496 346 481 366.5 c 128,-1,51
 466 387 466 387 440 387 c 0,52,53
 412 387 412 387 397 366 c 128,-1,54
 382 345 382 345 382 309 c 2,55,-1
 382 93 l 1,56,-1
 304 93 l 1,57,-1
 309 183 l 1,58,59
 280 167 280 167 244 167 c 0,0,1
245 228 m 0,60,61
 275 228 275 228 293.5 251 c 128,-1,62
 312 274 312 274 312 308 c 0,63,64
 312 341 312 341 293.5 363.5 c 128,-1,65
 275 386 275 386 245 386 c 0,66,67
 214 386 214 386 196 363 c 128,-1,68
 178 340 178 340 178 307 c 256,69,70
 178 274 178 274 196 251 c 128,-1,71
 214 228 214 228 245 228 c 0,60,61
EndSplineSet
Substitution2: "Single Substitution lookup 10 subtable" uni0B15.base
Substitution2: "'aalt' +BBIEQQQ1 +BDAEOwRMBEIENQRABD0EMARCBDgEMgQ9BEsENQAA +BDIEMARABDgEMAQ9BEIESwAA in Oriya2 lookup 0 subtable" uni0B15.base
EndChar

StartChar: uni0B16
Encoding: 2838 2838 21
Width: 741
GlyphClass: 2
Flags: W
HStem: 85 65<243.705 382.685> 382 66<243.534 382.38> 463 65<446.839 601.232> 686 73<230.895 360>
VStem: 32 76<410.069 581.086> 126 73<193.251 319.164> 344 72<558.955 685.218> 427 72<193.251 338.726> 602 78<93 478 537.827 751>
AnchorPoint: "+BBEENQQ3BEsEPARPBD0EPQQ+BDUA--4" 680 93 basechar 0
AnchorPoint: "+BBEENQQ3BEsEPARPBD0EPQQ+BDUA--3" 602 93 basechar 0
AnchorPoint: "+BBEENQQ3BEsEPARPBD0EPQQ+BDUA--1" 376 751 basechar 0
AnchorPoint: "+BBEENQQ3BEsEPARPBD0EPQQ+BDUA--0" 641 751 basechar 0
LayerCount: 2
Fore
SplineSet
312 85 m 256,0,1
 262 85 262 85 219.5 106 c 128,-1,2
 177 127 177 127 151.5 168 c 128,-1,3
 126 209 126 209 126 267 c 0,4,5
 126 288 126 288 130 308 c 1,6,7
 84 346 84 346 58 395.5 c 128,-1,8
 32 445 32 445 32 504 c 0,9,10
 32 571 32 571 67.5 629.5 c 128,-1,11
 103 688 103 688 179 723.5 c 128,-1,12
 255 759 255 759 376 759 c 2,13,-1
 421 759 l 1,14,-1
 457 719 l 1,15,16
 416 668 416 668 416 617 c 0,17,18
 416 579 416 579 442.5 553.5 c 128,-1,19
 469 528 469 528 522 528 c 0,20,21
 548 528 548 528 568.5 534 c 128,-1,22
 589 540 589 540 602 549 c 1,23,-1
 602 751 l 1,24,-1
 680 751 l 1,25,-1
 680 93 l 1,26,-1
 602 93 l 1,27,-1
 602 478 l 1,28,29
 566 463 566 463 518 463 c 0,30,31
 439 463 439 463 391.5 503.5 c 128,-1,32
 344 544 344 544 344 612 c 0,33,34
 344 651 344 651 360 686 c 1,35,36
 268 684 268 684 212.5 657 c 128,-1,37
 157 630 157 630 132.5 587 c 128,-1,38
 108 544 108 544 108 496 c 0,39,40
 108 461 108 461 121 429 c 128,-1,41
 134 397 134 397 156 371 c 1,42,43
 181 409 181 409 222.5 428.5 c 128,-1,44
 264 448 264 448 312 448 c 0,45,46
 362 448 362 448 404.5 427 c 128,-1,47
 447 406 447 406 473 365.5 c 128,-1,48
 499 325 499 325 499 267 c 256,49,50
 499 209 499 209 473 168 c 128,-1,51
 447 127 447 127 404.5 106 c 128,-1,52
 362 85 362 85 312 85 c 256,0,1
313 150 m 256,53,54
 358 150 358 150 392.5 179.5 c 128,-1,55
 427 209 427 209 427 267 c 0,56,57
 427 324 427 324 392 353 c 128,-1,58
 357 382 357 382 313 382 c 0,59,60
 268 382 268 382 233.5 353 c 128,-1,61
 199 324 199 324 199 267 c 0,62,63
 199 209 199 209 233.5 179.5 c 128,-1,64
 268 150 268 150 313 150 c 256,53,54
EndSplineSet
Substitution2: "Single Substitution lookup 10 subtable" uni0B16.base
Substitution2: "'aalt' +BBIEQQQ1 +BDAEOwRMBEIENQRABD0EMARCBDgEMgQ9BEsENQAA +BDIEMARABDgEMAQ9BEIESwAA in Oriya2 lookup 0 subtable" uni0B16.base
EndChar

StartChar: uni0B17
Encoding: 2839 2839 22
Width: 741
GlyphClass: 2
Flags: W
HStem: 85 65<241.877 382.801> 382 66<240.341 383.836> 686 73<230.986 459.625>
VStem: 32 76<406.148 580.703> 126 72<194.249 317.866> 427 72<193.935 338.626> 601 78<93 564.5 642 751>
AnchorPoint: "+BBEENQQ3BEsEPARPBD0EPQQ+BDUA--4" 679 93 basechar 0
AnchorPoint: "+BBEENQQ3BEsEPARPBD0EPQQ+BDUA--3" 601 93 basechar 0
AnchorPoint: "+BBEENQQ3BEsEPARPBD0EPQQ+BDUA--1" 336 751 basechar 0
AnchorPoint: "+BBEENQQ3BEsEPARPBD0EPQQ+BDUA--0" 640 751 basechar 0
LayerCount: 2
Fore
SplineSet
311 85 m 256,0,1
 256 85 256 85 214.5 108.5 c 128,-1,2
 173 132 173 132 149.5 173 c 128,-1,3
 126 214 126 214 126 267 c 0,4,5
 126 288 126 288 130 307 c 1,6,7
 79 346 79 346 55.5 396.5 c 128,-1,8
 32 447 32 447 32 503 c 0,9,10
 32 566 32 566 57.5 613.5 c 128,-1,11
 83 661 83 661 126 693.5 c 128,-1,12
 169 726 169 726 223 742.5 c 128,-1,13
 277 759 277 759 335 759 c 0,14,15
 411 759 411 759 483 730 c 128,-1,16
 555 701 555 701 604 642 c 1,17,-1
 601 751 l 1,18,-1
 679 751 l 1,19,-1
 679 93 l 1,20,-1
 601 93 l 1,21,-1
 601 512 l 1,22,23
 585 569 585 569 545.5 608 c 128,-1,24
 506 647 506 647 454 666.5 c 128,-1,25
 402 686 402 686 346 686 c 0,26,27
 285 686 285 686 230.5 664 c 128,-1,28
 176 642 176 642 142 599 c 128,-1,29
 108 556 108 556 108 494 c 0,30,31
 108 422 108 422 155 370 c 1,32,33
 179 406 179 406 219.5 427 c 128,-1,34
 260 448 260 448 311 448 c 0,35,36
 366 448 366 448 408.5 424.5 c 128,-1,37
 451 401 451 401 475 360 c 128,-1,38
 499 319 499 319 499 267 c 0,39,40
 499 214 499 214 475 173 c 128,-1,41
 451 132 451 132 408.5 108.5 c 128,-1,42
 366 85 366 85 311 85 c 256,0,1
312 150 m 256,43,44
 363 150 363 150 395 182 c 128,-1,45
 427 214 427 214 427 267 c 0,46,47
 427 318 427 318 395.5 350 c 128,-1,48
 364 382 364 382 312 382 c 256,49,50
 260 382 260 382 229 350 c 128,-1,51
 198 318 198 318 198 267 c 0,52,53
 198 215 198 215 229.5 182.5 c 128,-1,54
 261 150 261 150 312 150 c 256,43,44
EndSplineSet
Substitution2: "Single Substitution lookup 10 subtable" uni0B17.base
Substitution2: "'aalt' +BBIEQQQ1 +BDAEOwRMBEIENQRABD0EMARCBDgEMgQ9BEsENQAA +BDIEMARABDgEMAQ9BEIESwAA in Oriya2 lookup 0 subtable" uni0B17.base
EndChar

StartChar: uni0B18
Encoding: 2840 2840 23
Width: 741
GlyphClass: 2
Flags: W
HStem: 85 65<230.404 348.815 474.913 576.38> 686 73<228.109 458.129>
VStem: 32 76<406.146 578.675> 126 72<183.375 316.697> 381 64<182.626 327> 601 78<93 137 174.24 564.5 642 751>
AnchorPoint: "+BBEENQQ3BEsEPARPBD0EPQQ+BDUA--4" 679 93 basechar 0
AnchorPoint: "+BBEENQQ3BEsEPARPBD0EPQQ+BDUA--3" 601 93 basechar 0
AnchorPoint: "+BBEENQQ3BEsEPARPBD0EPQQ+BDUA--1" 336 751 basechar 0
AnchorPoint: "+BBEENQQ3BEsEPARPBD0EPQQ+BDUA--0" 640 751 basechar 0
LayerCount: 2
Fore
SplineSet
283 85 m 0,0,1
 238 85 238 85 202.5 105.5 c 128,-1,2
 167 126 167 126 146.5 163 c 128,-1,3
 126 200 126 200 126 249 c 0,4,5
 126 277 126 277 133 305 c 1,6,7
 83 342 83 342 57.5 393.5 c 128,-1,8
 32 445 32 445 32 504 c 0,9,10
 32 579 32 579 71 636.5 c 128,-1,11
 110 694 110 694 177.5 726.5 c 128,-1,12
 245 759 245 759 332 759 c 0,13,14
 414 759 414 759 485.5 729 c 128,-1,15
 557 699 557 699 604 642 c 1,16,-1
 601 751 l 1,17,-1
 679 751 l 1,18,-1
 679 93 l 1,19,-1
 601 93 l 1,20,-1
 604 137 l 1,21,22
 587 111 587 111 562.5 98 c 128,-1,23
 538 85 538 85 512 85 c 0,24,25
 482 85 482 85 453.5 102.5 c 128,-1,26
 425 120 425 120 410 155 c 1,27,28
 392 120 392 120 357.5 102.5 c 128,-1,29
 323 85 323 85 283 85 c 0,0,1
445 257 m 2,30,31
 445 203 445 203 470 176.5 c 128,-1,32
 495 150 495 150 526 150 c 0,33,34
 556 150 556 150 578.5 173.5 c 128,-1,35
 601 197 601 197 601 242 c 2,36,-1
 601 512 l 1,37,38
 585 569 585 569 545.5 608 c 128,-1,39
 506 647 506 647 453 666.5 c 128,-1,40
 400 686 400 686 342 686 c 0,41,42
 274 686 274 686 221 661 c 128,-1,43
 168 636 168 636 138 592.5 c 128,-1,44
 108 549 108 549 108 493 c 0,45,46
 108 420 108 420 159 367 c 1,47,48
 181 404 181 404 217 434.5 c 128,-1,49
 253 465 253 465 303 485 c 1,50,-1
 327 429 l 1,51,52
 261 401 261 401 229.5 351 c 128,-1,53
 198 301 198 301 198 254 c 0,54,55
 198 209 198 209 223 179.5 c 128,-1,56
 248 150 248 150 289 150 c 0,57,58
 327 150 327 150 354 176.5 c 128,-1,59
 381 203 381 203 381 257 c 2,60,-1
 381 327 l 1,61,-1
 445 327 l 1,62,-1
 445 257 l 2,30,31
EndSplineSet
Substitution2: "Single Substitution lookup 10 subtable" uni0B18.base
Substitution2: "'aalt' +BBIEQQQ1 +BDAEOwRMBEIENQRABD0EMARCBDgEMgQ9BEsENQAA +BDIEMARABDgEMAQ9BEIESwAA in Oriya2 lookup 0 subtable" uni0B18.base
EndChar

StartChar: uni0B19
Encoding: 2841 2841 24
Width: 750
GlyphClass: 2
Flags: W
HStem: 85 69<274.643 434.732> 485 56<563.116 659.572> 694 65<229.522 471.576> 695 56<562.986 659.534>
VStem: 32 76<413.156 584.753> 149 76<200.841 306.454> 476 72<192.1 308.787 558.128 669.341> 678 62<562.005 673.889>
AnchorPoint: "+BBEENQQ3BEsEPARPBD0EPQQ+BDUA--4" 632 93 basechar 0
AnchorPoint: "+BBEENQQ3BEsEPARPBD0EPQQ+BDUA--3" 335 93 basechar 0
AnchorPoint: "+BBEENQQ3BEsEPARPBD0EPQQ+BDUA--1" 347 751 basechar 0
AnchorPoint: "+BBEENQQ3BEsEPARPBD0EPQQ+BDUA--0" 591 751 basechar 0
LayerCount: 2
Fore
SplineSet
348 85 m 0,0,1
 292 85 292 85 247 106.5 c 128,-1,2
 202 128 202 128 175.5 168 c 128,-1,3
 149 208 149 208 149 263 c 0,4,5
 149 281 149 281 152 298 c 1,6,7
 91 337 91 337 61.5 392.5 c 128,-1,8
 32 448 32 448 32 509 c 0,9,10
 32 575 32 575 68.5 632 c 128,-1,11
 105 689 105 689 175 724 c 128,-1,12
 245 759 245 759 346 759 c 256,13,14
 447 759 447 759 526 722 c 1,15,16
 560 751 560 751 612 751 c 0,17,18
 674 751 674 751 707 711.5 c 128,-1,19
 740 672 740 672 740 618 c 0,20,21
 740 583 740 583 725.5 552.5 c 128,-1,22
 711 522 711 522 682.5 503.5 c 128,-1,23
 654 485 654 485 612 485 c 0,24,25
 556 485 556 485 518.5 519.5 c 128,-1,26
 481 554 481 554 481 617 c 0,27,28
 481 643 481 643 489 665 c 1,29,30
 458 679 458 679 424.5 686.5 c 128,-1,31
 391 694 391 694 352 694 c 0,32,33
 272 694 272 694 217.5 666.5 c 128,-1,34
 163 639 163 639 135.5 595 c 128,-1,35
 108 551 108 551 108 501 c 0,36,37
 108 464 108 464 123.5 426.5 c 128,-1,38
 139 389 139 389 172 362 c 1,39,40
 188 395 188 395 217 428 c 128,-1,41
 246 461 246 461 291 491 c 1,42,-1
 326 445 l 1,43,44
 271 401 271 401 248 354.5 c 128,-1,45
 225 308 225 308 225 270 c 0,46,47
 225 215 225 215 262.5 184.5 c 128,-1,48
 300 154 300 154 353 154 c 0,49,50
 384 154 384 154 412 164.5 c 128,-1,51
 440 175 440 175 458 196 c 128,-1,52
 476 217 476 217 476 249 c 0,53,54
 476 300 476 300 424 337 c 1,55,-1
 368 279 l 1,56,-1
 327 320 l 1,57,-1
 479 479 l 1,58,-1
 520 438 l 1,59,-1
 471 386 l 1,60,61
 512 359 512 359 530 323.5 c 128,-1,62
 548 288 548 288 548 250 c 0,63,64
 548 196 548 196 519.5 159.5 c 128,-1,65
 491 123 491 123 445 104 c 128,-1,66
 399 85 399 85 348 85 c 0,0,1
612 541 m 0,67,68
 645 541 645 541 661.5 565 c 128,-1,69
 678 589 678 589 678 618 c 0,70,71
 678 648 678 648 661.5 671.5 c 128,-1,72
 645 695 645 695 612 695 c 0,73,74
 584 695 584 695 563.5 675 c 128,-1,75
 543 655 543 655 543 617 c 0,76,77
 543 580 543 580 563.5 560.5 c 128,-1,78
 584 541 584 541 612 541 c 0,67,68
EndSplineSet
Substitution2: "Single Substitution lookup 10 subtable" uni0B19.base
Substitution2: "'aalt' +BBIEQQQ1 +BDAEOwRMBEIENQRABD0EMARCBDgEMgQ9BEsENQAA +BDIEMARABDgEMAQ9BEIESwAA in Oriya2 lookup 0 subtable" uni0B19.base
EndChar

StartChar: uni0B1A
Encoding: 2842 2842 25
Width: 698
GlyphClass: 2
Flags: W
HStem: 85 65<242.533 381.552> 382 66<241.797 382.567> 686 73<228.261 460.096>
VStem: 32 76<408.217 582.903> 126 72<194.954 318.682> 427 72<194.954 338.269> 586 80<399.102 577.702>
AnchorPoint: "+BBEENQQ3BEsEPARPBD0EPQQ+BDUA--4" 631 93 basechar 0
AnchorPoint: "+BBEENQQ3BEsEPARPBD0EPQQ+BDUA--3" 297 93 basechar 0
AnchorPoint: "+BBEENQQ3BEsEPARPBD0EPQQ+BDUA--1" 343 751 basechar 0
AnchorPoint: "+BBEENQQ3BEsEPARPBD0EPQQ+BDUA--0" 570 751 basechar 0
LayerCount: 2
Fore
SplineSet
312 85 m 0,0,1
 259 85 259 85 217 107.5 c 128,-1,2
 175 130 175 130 150.5 171 c 128,-1,3
 126 212 126 212 126 267 c 0,4,5
 126 288 126 288 130 308 c 1,6,7
 78 348 78 348 55 399 c 128,-1,8
 32 450 32 450 32 506 c 0,9,10
 32 570 32 570 58.5 617.5 c 128,-1,11
 85 665 85 665 129 696.5 c 128,-1,12
 173 728 173 728 229 743.5 c 128,-1,13
 285 759 285 759 343 759 c 0,14,15
 404 759 404 759 461.5 742 c 128,-1,16
 519 725 519 725 565 691 c 128,-1,17
 611 657 611 657 638.5 606 c 128,-1,18
 666 555 666 555 666 487 c 0,19,20
 666 442 666 442 651.5 402 c 128,-1,21
 637 362 637 362 612 330 c 1,22,-1
 542 366 l 1,23,24
 563 391 563 391 574.5 422 c 128,-1,25
 586 453 586 453 586 488 c 0,26,27
 586 554 586 554 551 598 c 128,-1,28
 516 642 516 642 460.5 664 c 128,-1,29
 405 686 405 686 344 686 c 0,30,31
 281 686 281 686 227.5 664 c 128,-1,32
 174 642 174 642 141 599.5 c 128,-1,33
 108 557 108 557 108 496 c 0,34,35
 108 424 108 424 156 371 c 1,36,37
 180 407 180 407 221 427.5 c 128,-1,38
 262 448 262 448 312 448 c 0,39,40
 363 448 363 448 405.5 425.5 c 128,-1,41
 448 403 448 403 473.5 362.5 c 128,-1,42
 499 322 499 322 499 267 c 256,43,44
 499 212 499 212 473.5 171 c 128,-1,45
 448 130 448 130 405.5 107.5 c 128,-1,46
 363 85 363 85 312 85 c 0,0,1
312 150 m 256,47,48
 361 150 361 150 394 182 c 128,-1,49
 427 214 427 214 427 267 c 0,50,51
 427 319 427 319 394.5 350.5 c 128,-1,52
 362 382 362 382 312 382 c 256,53,54
 262 382 262 382 230 350.5 c 128,-1,55
 198 319 198 319 198 267 c 0,56,57
 198 214 198 214 230.5 182 c 128,-1,58
 263 150 263 150 312 150 c 256,47,48
EndSplineSet
Substitution2: "Single Substitution lookup 10 subtable" uni0B1A.base
Substitution2: "'aalt' +BBIEQQQ1 +BDAEOwRMBEIENQRABD0EMARCBDgEMgQ9BEsENQAA +BDIEMARABDgEMAQ9BEIESwAA in Oriya2 lookup 0 subtable" uni0B1A.base
EndChar

StartChar: uni0B1B
Encoding: 2843 2843 26
Width: 717
GlyphClass: 2
Flags: W
HStem: 85 57<135.769 256.365 449.961 568.515> 256 53<517 565.949> 296 55<37.3636 106.437> 487 66<278.47 421.926> 690 69<220.265 483.333>
VStem: 32 76<464.084 602.268> 58 63<156.634 241.858> 467 67<308.432 442.781> 584 63<157.126 241.616> 609 76<451.469 591.643>
AnchorPoint: "+BBEENQQ3BEsEPARPBD0EPQQ+BDUA--4" 599 93 basechar 0
AnchorPoint: "+BBEENQQ3BEsEPARPBD0EPQQ+BDUA--3" 494 93 basechar 0
AnchorPoint: "+BBEENQQ3BEsEPARPBD0EPQQ+BDUA--1" 352 751 basechar 0
AnchorPoint: "+BBEENQQ3BEsEPARPBD0EPQQ+BDUA--0" 590 751 basechar 0
LayerCount: 2
Fore
SplineSet
173 85 m 0,0,1
 119 85 119 85 88.5 118 c 128,-1,2
 58 151 58 151 58 197 c 0,3,4
 58 225 58 225 70 249 c 128,-1,5
 82 273 82 273 107 287 c 1,6,7
 89 290 89 290 70.5 292 c 128,-1,8
 52 294 52 294 33 296 c 1,9,-1
 38 351 l 1,10,11
 75 347 75 347 111 338.5 c 128,-1,12
 147 330 147 330 182 318 c 1,13,14
 171 343 171 343 168 371 c 1,15,16
 102 394 102 394 67 441.5 c 128,-1,17
 32 489 32 489 32 547 c 0,18,19
 32 614 32 614 75 661.5 c 128,-1,20
 118 709 118 709 190.5 734 c 128,-1,21
 263 759 263 759 352 759 c 0,22,23
 447 759 447 759 522.5 731.5 c 128,-1,24
 598 704 598 704 641.5 651.5 c 128,-1,25
 685 599 685 599 685 525 c 0,26,27
 685 502 685 502 680.5 478 c 128,-1,28
 676 454 676 454 666 430 c 1,29,-1
 595 451 l 1,30,31
 601 466 601 466 605 482.5 c 128,-1,32
 609 499 609 499 609 517 c 0,33,34
 609 572 609 572 573.5 610.5 c 128,-1,35
 538 649 538 649 479.5 669.5 c 128,-1,36
 421 690 421 690 351 690 c 0,37,38
 280 690 280 690 225 670 c 128,-1,39
 170 650 170 650 139 615 c 128,-1,40
 108 580 108 580 108 534 c 0,41,42
 108 501 108 501 124.5 472.5 c 128,-1,43
 141 444 141 444 171 425 c 1,44,45
 184 482 184 482 232 517.5 c 128,-1,46
 280 553 280 553 352 553 c 0,47,48
 434 553 434 553 484 506 c 128,-1,49
 534 459 534 459 534 384 c 0,50,51
 534 343 534 343 517 309 c 1,52,53
 520 309 520 309 523 309 c 0,54,55
 584 309 584 309 615.5 276 c 128,-1,56
 647 243 647 243 647 196 c 256,57,58
 647 149 647 149 616 117 c 128,-1,59
 585 85 585 85 531 85 c 0,60,61
 494 85 494 85 449 104.5 c 128,-1,62
 404 124 404 124 354 168 c 1,63,64
 309 128 309 128 263 106.5 c 128,-1,65
 217 85 217 85 173 85 c 0,0,1
351 266 m 256,66,67
 399 266 399 266 433 293.5 c 128,-1,68
 467 321 467 321 467 375 c 0,69,70
 467 426 467 426 433 456.5 c 128,-1,71
 399 487 399 487 350 487 c 256,72,73
 301 487 301 487 267.5 457 c 128,-1,74
 234 427 234 427 234 378 c 0,75,76
 234 323 234 323 268.5 294.5 c 128,-1,77
 303 266 303 266 351 266 c 256,66,67
183 142 m 0,78,79
 239 142 239 142 305 198 c 1,80,81
 279 222 279 222 248 239 c 128,-1,82
 217 256 217 256 185 256 c 0,83,84
 156 256 156 256 138.5 240.5 c 128,-1,85
 121 225 121 225 121 200 c 256,86,87
 121 175 121 175 138 158.5 c 128,-1,88
 155 142 155 142 183 142 c 0,78,79
521 142 m 0,89,90
 549 142 549 142 566.5 158.5 c 128,-1,91
 584 175 584 175 584 200 c 256,92,93
 584 225 584 225 566.5 240.5 c 128,-1,94
 549 256 549 256 515 256 c 0,95,96
 489 256 489 256 465.5 244 c 128,-1,97
 442 232 442 232 400 198 c 1,98,99
 435 169 435 169 466.5 155.5 c 128,-1,100
 498 142 498 142 521 142 c 0,89,90
EndSplineSet
Substitution2: "Single Substitution lookup 10 subtable" uni0B1B.base
Substitution2: "'aalt' +BBIEQQQ1 +BDAEOwRMBEIENQRABD0EMARCBDgEMgQ9BEsENQAA +BDIEMARABDgEMAQ9BEIESwAA in Oriya2 lookup 0 subtable" uni0B1B.base
EndChar

StartChar: uni0B1C
Encoding: 2844 2844 27
Width: 752
GlyphClass: 2
Flags: W
HStem: 85 61<221.676 327.254> 387 61<396.338 481.612> 686 73<239.372 497.533>
VStem: 32 76<411.455 578.567> 112 72<183.37 331.585> 307 68<148.558 366.224> 496 78<93 367.917> 640 80<401.272 572.619>
AnchorPoint: "+BBEENQQ3BEsEPARPBD0EPQQ+BDUA--4" 574 93 basechar 0
AnchorPoint: "+BBEENQQ3BEsEPARPBD0EPQQ+BDUA--3" 496 93 basechar 0
AnchorPoint: "+BBEENQQ3BEsEPARPBD0EPQQ+BDUA--1" 367 751 basechar 0
AnchorPoint: "+BBEENQQ3BEsEPARPBD0EPQQ+BDUA--0" 624 751 basechar 0
LayerCount: 2
Fore
SplineSet
292 85 m 0,0,1
 212 85 212 85 162 125.5 c 128,-1,2
 112 166 112 166 112 252 c 0,3,4
 112 287 112 287 121 319 c 1,5,6
 75 360 75 360 53.5 406.5 c 128,-1,7
 32 453 32 453 32 504 c 0,8,9
 32 581 32 581 77 638.5 c 128,-1,10
 122 696 122 696 198 727.5 c 128,-1,11
 274 759 274 759 367 759 c 0,12,13
 434 759 434 759 497 742 c 128,-1,14
 560 725 560 725 610.5 691 c 128,-1,15
 661 657 661 657 690.5 606 c 128,-1,16
 720 555 720 555 720 488 c 0,17,18
 720 446 720 446 707.5 409.5 c 128,-1,19
 695 373 695 373 671 343 c 1,20,-1
 600 374 l 1,21,22
 619 397 619 397 629.5 426 c 128,-1,23
 640 455 640 455 640 488 c 0,24,25
 640 538 640 538 617 575 c 128,-1,26
 594 612 594 612 555 636.5 c 128,-1,27
 516 661 516 661 467 673.5 c 128,-1,28
 418 686 418 686 367 686 c 0,29,30
 294 686 294 686 235.5 663 c 128,-1,31
 177 640 177 640 142.5 597 c 128,-1,32
 108 554 108 554 108 496 c 0,33,34
 108 434 108 434 149 382 c 1,35,36
 169 413 169 413 197 439.5 c 128,-1,37
 225 466 225 466 261 490 c 1,38,-1
 291 447 l 1,39,40
 184 358 184 358 184 254 c 0,41,42
 184 202 184 202 214 174 c 128,-1,43
 244 146 244 146 294 146 c 0,44,45
 312 146 312 146 328 150 c 1,46,47
 318 181 318 181 312.5 210.5 c 128,-1,48
 307 240 307 240 307 274 c 0,49,50
 307 350 307 350 340.5 399 c 128,-1,51
 374 448 374 448 450 448 c 0,52,53
 509 448 509 448 541.5 416.5 c 128,-1,54
 574 385 574 385 574 321 c 2,55,-1
 574 93 l 1,56,-1
 496 93 l 1,57,-1
 496 311 l 2,58,59
 496 350 496 350 481 368.5 c 128,-1,60
 466 387 466 387 440 387 c 0,61,62
 375 387 375 387 375 273 c 0,63,64
 375 229 375 229 384 185.5 c 128,-1,65
 393 142 393 142 405 105 c 1,66,67
 352 85 352 85 292 85 c 0,0,1
EndSplineSet
Substitution2: "Single Substitution lookup 10 subtable" uni0B1C.base
Substitution2: "'aalt' +BBIEQQQ1 +BDAEOwRMBEIENQRABD0EMARCBDgEMgQ9BEsENQAA +BDIEMARABDgEMAQ9BEIESwAA in Oriya2 lookup 0 subtable" uni0B1C.base
EndChar

StartChar: uni0B1D
Encoding: 2845 2845 28
Width: 698
GlyphClass: 2
Flags: W
HStem: 85 65<243.705 382.14> 382 66<243.534 382.38> 463 65<443.996 588.861> 686 73<232.526 365>
VStem: 32 76<409.956 577.644> 126 73<193.251 319.164> 345 71<556.442 684.998> 427 72<223.031 338.726> 617 71<556.586 687.889>
AnchorPoint: "+BBEENQQ3BEsEPARPBD0EPQQ+BDUA--4" 533 93 basechar 0
AnchorPoint: "+BBEENQQ3BEsEPARPBD0EPQQ+BDUA--3" 299 93 basechar 0
AnchorPoint: "+BBEENQQ3BEsEPARPBD0EPQQ+BDUA--1" 370 751 basechar 0
AnchorPoint: "+BBEENQQ3BEsEPARPBD0EPQQ+BDUA--0" 589 751 basechar 0
LayerCount: 2
Fore
SplineSet
312 85 m 0,0,1
 262 85 262 85 219.5 106 c 128,-1,2
 177 127 177 127 151.5 168 c 128,-1,3
 126 209 126 209 126 267 c 0,4,5
 126 288 126 288 130 308 c 1,6,7
 84 346 84 346 58 395.5 c 128,-1,8
 32 445 32 445 32 505 c 0,9,10
 32 572 32 572 68.5 629.5 c 128,-1,11
 105 687 105 687 182.5 723 c 128,-1,12
 260 759 260 759 383 759 c 2,13,-1
 421 759 l 1,14,-1
 457 719 l 1,15,16
 436 693 436 693 426 666 c 128,-1,17
 416 639 416 639 416 616 c 0,18,19
 416 578 416 578 440.5 553 c 128,-1,20
 465 528 465 528 516 528 c 0,21,22
 568 528 568 528 592.5 553 c 128,-1,23
 617 578 617 578 617 616 c 0,24,25
 617 640 617 640 606 666.5 c 128,-1,26
 595 693 595 693 572 719 c 1,27,-1
 612 759 l 1,28,29
 650 725 650 725 669 684 c 128,-1,30
 688 643 688 643 688 604 c 0,31,32
 688 547 688 547 646 505 c 128,-1,33
 604 463 604 463 516 463 c 0,34,35
 458 463 458 463 420 482.5 c 128,-1,36
 382 502 382 502 363.5 534 c 128,-1,37
 345 566 345 566 345 604 c 0,38,39
 345 645 345 645 365 686 c 1,40,41
 275 686 275 686 218.5 658.5 c 128,-1,42
 162 631 162 631 135 587.5 c 128,-1,43
 108 544 108 544 108 495 c 0,44,45
 108 460 108 460 121 428.5 c 128,-1,46
 134 397 134 397 156 371 c 1,47,48
 181 409 181 409 222.5 428.5 c 128,-1,49
 264 448 264 448 312 448 c 0,50,51
 362 448 362 448 404.5 427 c 128,-1,52
 447 406 447 406 473 365.5 c 128,-1,53
 499 325 499 325 499 267 c 0,54,55
 499 246 499 246 496 228 c 1,56,-1
 650 158 l 1,57,-1
 618 85 l 1,58,-1
 468 161 l 1,59,60
 443 124 443 124 401.5 104.5 c 128,-1,61
 360 85 360 85 312 85 c 0,0,1
313 150 m 256,62,63
 358 150 358 150 392.5 179.5 c 128,-1,64
 427 209 427 209 427 267 c 0,65,66
 427 324 427 324 392 353 c 128,-1,67
 357 382 357 382 313 382 c 0,68,69
 268 382 268 382 233.5 353 c 128,-1,70
 199 324 199 324 199 267 c 0,71,72
 199 209 199 209 233.5 179.5 c 128,-1,73
 268 150 268 150 313 150 c 256,62,63
EndSplineSet
Substitution2: "Single Substitution lookup 10 subtable" uni0B1D.base
Substitution2: "'aalt' +BBIEQQQ1 +BDAEOwRMBEIENQRABD0EMARCBDgEMgQ9BEsENQAA +BDIEMARABDgEMAQ9BEIESwAA in Oriya2 lookup 0 subtable" uni0B1D.base
EndChar

StartChar: uni0B1E
Encoding: 2846 2846 29
Width: 738
GlyphClass: 2
Flags: W
HStem: 85 66<225.918 521.053> 403 61<292.504 391.857> 700 59<293.981 390.448 491.983 588.615>
VStem: 36 76<245.765 430.672> 54 76<550.556 720.94> 207 69<258.625 382.373 551.056 681.757> 409 65<253 383.916 546 680.917> 608 76<537.679 679.524> 626 76<235.902 388.495>
AnchorPoint: "+BBEENQQ3BEsEPARPBD0EPQQ+BDUA--4" 677 93 basechar 0
AnchorPoint: "+BBEENQQ3BEsEPARPBD0EPQQ+BDUA--3" 404 93 basechar 0
AnchorPoint: "+BBEENQQ3BEsEPARPBD0EPQQ+BDUA--1" 368 751 basechar 0
AnchorPoint: "+BBEENQQ3BEsEPARPBD0EPQQ+BDUA--0" 601 751 basechar 0
LayerCount: 2
Fore
SplineSet
373 85 m 0,0,1
 199 85 199 85 117.5 153.5 c 128,-1,2
 36 222 36 222 36 336 c 0,3,4
 36 425 36 425 95 504 c 1,5,6
 54 555 54 555 54 626 c 0,7,8
 54 696 54 696 89 755 c 1,9,-1
 157 733 l 1,10,11
 146 709 146 709 138 684 c 128,-1,12
 130 659 130 659 130 630 c 0,13,14
 130 551 130 551 192.5 507.5 c 128,-1,15
 255 464 255 464 378 464 c 0,16,17
 493 464 493 464 550.5 502.5 c 128,-1,18
 608 541 608 541 608 613 c 0,19,20
 608 656 608 656 589.5 678 c 128,-1,21
 571 700 571 700 540 700 c 0,22,23
 512 700 512 700 493 681.5 c 128,-1,24
 474 663 474 663 474 628 c 2,25,-1
 474 546 l 1,26,-1
 409 546 l 1,27,-1
 409 623 l 2,28,29
 409 663 409 663 389.5 681.5 c 128,-1,30
 370 700 370 700 343 700 c 0,31,32
 311 700 311 700 294 680.5 c 128,-1,33
 277 661 277 661 277 631 c 0,34,35
 277 612 277 612 282.5 592.5 c 128,-1,36
 288 573 288 573 298 552 c 1,37,-1
 235 536 l 1,38,39
 221 565 221 565 214.5 591.5 c 128,-1,40
 208 618 208 618 208 639 c 0,41,42
 208 693 208 693 240.5 726 c 128,-1,43
 273 759 273 759 333 759 c 0,44,45
 368 759 368 759 396.5 745 c 128,-1,46
 425 731 425 731 441 702 c 1,47,48
 457 732 457 732 487.5 745.5 c 128,-1,49
 518 759 518 759 553 759 c 0,50,51
 617 759 617 759 650.5 720.5 c 128,-1,52
 684 682 684 682 684 617 c 0,53,54
 684 573 684 573 667 534 c 128,-1,55
 650 495 650 495 614 466 c 1,56,57
 653 451 653 451 677.5 412 c 128,-1,58
 702 373 702 373 702 314 c 0,59,60
 702 247 702 247 666 195.5 c 128,-1,61
 630 144 630 144 557 114.5 c 128,-1,62
 484 85 484 85 373 85 c 0,0,1
112 336 m 0,63,64
 112 151 112 151 376 151 c 0,65,66
 498 151 498 151 562 193.5 c 128,-1,67
 626 236 626 236 626 313 c 0,68,69
 626 360 626 360 606 388 c 128,-1,70
 586 416 586 416 551 416 c 0,71,72
 522 416 522 416 500 393.5 c 128,-1,73
 478 371 478 371 478 326 c 2,74,-1
 478 253 l 1,75,-1
 413 253 l 1,76,-1
 413 324 l 2,77,78
 413 366 413 366 392.5 384.5 c 128,-1,79
 372 403 372 403 342 403 c 0,80,81
 308 403 308 403 292 383 c 128,-1,82
 276 363 276 363 276 334 c 0,83,84
 276 317 276 317 281.5 297.5 c 128,-1,85
 287 278 287 278 297 258 c 1,86,-1
 234 242 l 1,87,88
 220 270 220 270 213.5 295 c 128,-1,89
 207 320 207 320 207 342 c 0,90,91
 207 390 207 390 233 421 c 1,92,93
 184 434 184 434 148 457 c 1,94,95
 132 431 132 431 122 401.5 c 128,-1,96
 112 372 112 372 112 336 c 0,63,64
EndSplineSet
Substitution2: "Single Substitution lookup 10 subtable" uni0B1E.base
Substitution2: "'aalt' +BBIEQQQ1 +BDAEOwRMBEIENQRABD0EMARCBDgEMgQ9BEsENQAA +BDIEMARABDgEMAQ9BEIESwAA in Oriya2 lookup 0 subtable" uni0B1E.base
EndChar

StartChar: uni0B1F
Encoding: 2847 2847 30
Width: 701
GlyphClass: 2
Flags: W
HStem: 85 65<242.489 382.218> 382 66<241.766 382.531> 686 73<221.166 438.022>
VStem: 32 76<408.197 586.23> 126 72<194.954 318.682> 427 72<194.954 338.269> 561 78<406 578.881 654 751>
AnchorPoint: "+BBEENQQ3BEsEPARPBD0EPQQ+BDUA--4" 639 93 basechar 0
AnchorPoint: "+BBEENQQ3BEsEPARPBD0EPQQ+BDUA--3" 296 93 basechar 0
AnchorPoint: "+BBEENQQ3BEsEPARPBD0EPQQ+BDUA--1" 323 751 basechar 0
AnchorPoint: "+BBEENQQ3BEsEPARPBD0EPQQ+BDUA--0" 600 751 basechar 0
LayerCount: 2
Fore
SplineSet
311 85 m 256,0,1
 259 85 259 85 217 107.5 c 128,-1,2
 175 130 175 130 150.5 171 c 128,-1,3
 126 212 126 212 126 267 c 0,4,5
 126 288 126 288 130 308 c 1,6,7
 80 346 80 346 56 396 c 128,-1,8
 32 446 32 446 32 505 c 0,9,10
 32 589 32 589 73 645.5 c 128,-1,11
 114 702 114 702 180.5 730.5 c 128,-1,12
 247 759 247 759 323 759 c 0,13,14
 393 759 393 759 456.5 733 c 128,-1,15
 520 707 520 707 564 654 c 1,16,-1
 561 751 l 1,17,-1
 639 751 l 1,18,-1
 639 406 l 1,19,-1
 561 406 l 1,20,-1
 561 532 l 1,21,22
 535 610 535 610 470.5 648 c 128,-1,23
 406 686 406 686 330 686 c 0,24,25
 272 686 272 686 221.5 664.5 c 128,-1,26
 171 643 171 643 139.5 601 c 128,-1,27
 108 559 108 559 108 497 c 0,28,29
 108 460 108 460 120.5 428 c 128,-1,30
 133 396 133 396 156 371 c 1,31,32
 180 407 180 407 221 427.5 c 128,-1,33
 262 448 262 448 311 448 c 0,34,35
 363 448 363 448 405.5 425.5 c 128,-1,36
 448 403 448 403 473.5 362.5 c 128,-1,37
 499 322 499 322 499 267 c 256,38,39
 499 212 499 212 473.5 171 c 128,-1,40
 448 130 448 130 405.5 107.5 c 128,-1,41
 363 85 363 85 311 85 c 256,0,1
312 150 m 256,42,43
 361 150 361 150 394 182 c 128,-1,44
 427 214 427 214 427 267 c 0,45,46
 427 319 427 319 394.5 350.5 c 128,-1,47
 362 382 362 382 312 382 c 256,48,49
 262 382 262 382 230 350.5 c 128,-1,50
 198 319 198 319 198 267 c 0,51,52
 198 214 198 214 230.5 182 c 128,-1,53
 263 150 263 150 312 150 c 256,42,43
EndSplineSet
Substitution2: "Single Substitution lookup 10 subtable" uni0B1F.base
Substitution2: "'aalt' +BBIEQQQ1 +BDAEOwRMBEIENQRABD0EMARCBDgEMgQ9BEsENQAA +BDIEMARABDgEMAQ9BEIESwAA in Oriya2 lookup 0 subtable" uni0B1F.base
EndChar

StartChar: uni0B20
Encoding: 2848 2848 31
Width: 754
GlyphClass: 2
Flags: W
HStem: 86 73<261.312 492.412> 686 73<263.77 495.024>
VStem: 32 80<307.677 534.826> 642 80<307.547 537.846>
AnchorPoint: "+BBEENQQ3BEsEPARPBD0EPQQ+BDUA--4" 658 93 basechar 0
AnchorPoint: "+BBEENQQ3BEsEPARPBD0EPQQ+BDUA--3" 375 93 basechar 0
AnchorPoint: "+BBEENQQ3BEsEPARPBD0EPQQ+BDUA--1" 379 751 basechar 0
AnchorPoint: "+BBEENQQ3BEsEPARPBD0EPQQ+BDUA--0" 623 751 basechar 0
LayerCount: 2
Fore
SplineSet
378 86 m 0,0,1
 274 86 274 86 196.5 128 c 128,-1,2
 119 170 119 170 75.5 245 c 128,-1,3
 32 320 32 320 32 421 c 256,4,5
 32 522 32 522 75.5 598 c 128,-1,6
 119 674 119 674 197 716.5 c 128,-1,7
 275 759 275 759 379 759 c 0,8,9
 482 759 482 759 559 716.5 c 128,-1,10
 636 674 636 674 679 598 c 128,-1,11
 722 522 722 522 722 421 c 256,12,13
 722 320 722 320 679 245 c 128,-1,14
 636 170 636 170 558.5 128 c 128,-1,15
 481 86 481 86 378 86 c 0,0,1
378 159 m 0,16,17
 457 159 457 159 516.5 192 c 128,-1,18
 576 225 576 225 609 284.5 c 128,-1,19
 642 344 642 344 642 424 c 0,20,21
 642 502 642 502 609.5 561 c 128,-1,22
 577 620 577 620 518 653 c 128,-1,23
 459 686 459 686 380 686 c 0,24,25
 300 686 300 686 239.5 653 c 128,-1,26
 179 620 179 620 145.5 560 c 128,-1,27
 112 500 112 500 112 421 c 256,28,29
 112 342 112 342 145.5 283 c 128,-1,30
 179 224 179 224 238.5 191.5 c 128,-1,31
 298 159 298 159 378 159 c 0,16,17
EndSplineSet
Substitution2: "Single Substitution lookup 10 subtable" uni0B20.base
Substitution2: "'aalt' +BBIEQQQ1 +BDAEOwRMBEIENQRABD0EMARCBDgEMgQ9BEsENQAA +BDIEMARABDgEMAQ9BEIESwAA in Oriya2 lookup 0 subtable" uni0B20.base
EndChar

StartChar: uni0B21
Encoding: 2849 2849 32
Width: 734
GlyphClass: 2
Flags: W
HStem: 85 69<274.643 434.732> 686 73<232.762 489.238>
VStem: 32 76<414.667 579.13> 149 76<200.841 306.454> 476 72<192.1 308.787> 622 80<399.216 576.607>
AnchorPoint: "+BBEENQQ3BEsEPARPBD0EPQQ+BDUA--4" 630 93 basechar 0
AnchorPoint: "+BBEENQQ3BEsEPARPBD0EPQQ+BDUA--3" 337 93 basechar 0
AnchorPoint: "+BBEENQQ3BEsEPARPBD0EPQQ+BDUA--2" 354 -8 basechar 0
AnchorPoint: "+BBEENQQ3BEsEPARPBD0EPQQ+BDUA--1" 364 751 basechar 0
AnchorPoint: "+BBEENQQ3BEsEPARPBD0EPQQ+BDUA--0" 606 751 basechar 0
LayerCount: 2
Fore
SplineSet
149 263 m 0,0,1
 149 281 149 281 152 298 c 1,2,3
 94 335 94 335 63 390 c 128,-1,4
 32 445 32 445 32 507 c 0,5,6
 32 578 32 578 72 635 c 128,-1,7
 112 692 112 692 186 725.5 c 128,-1,8
 260 759 260 759 364 759 c 0,9,10
 428 759 428 759 488.5 742 c 128,-1,11
 549 725 549 725 597 691.5 c 128,-1,12
 645 658 645 658 673.5 607 c 128,-1,13
 702 556 702 556 702 489 c 0,14,15
 702 441 702 441 686 399.5 c 128,-1,16
 670 358 670 358 642 325 c 1,17,-1
 574 361 l 1,18,19
 622 416 622 416 622 488 c 0,20,21
 622 554 622 554 585.5 598 c 128,-1,22
 549 642 549 642 490 664 c 128,-1,23
 431 686 431 686 365 686 c 0,24,25
 279 686 279 686 222 659.5 c 128,-1,26
 165 633 165 633 136.5 590.5 c 128,-1,27
 108 548 108 548 108 499 c 0,28,29
 108 461 108 461 125 424 c 128,-1,30
 142 387 142 387 172 362 c 1,31,32
 188 395 188 395 217 428 c 128,-1,33
 246 461 246 461 291 491 c 1,34,-1
 326 445 l 1,35,36
 271 401 271 401 248 354.5 c 128,-1,37
 225 308 225 308 225 270 c 0,38,39
 225 215 225 215 262.5 184.5 c 128,-1,40
 300 154 300 154 353 154 c 0,41,42
 384 154 384 154 412 164.5 c 128,-1,43
 440 175 440 175 458 196 c 128,-1,44
 476 217 476 217 476 249 c 0,45,46
 476 300 476 300 424 337 c 1,47,-1
 368 279 l 1,48,-1
 327 320 l 1,49,-1
 479 479 l 1,50,-1
 520 438 l 1,51,-1
 471 386 l 1,52,53
 512 359 512 359 530 323.5 c 128,-1,54
 548 288 548 288 548 250 c 0,55,56
 548 196 548 196 519.5 159.5 c 128,-1,57
 491 123 491 123 445 104 c 128,-1,58
 399 85 399 85 348 85 c 0,59,60
 292 85 292 85 247 106.5 c 128,-1,61
 202 128 202 128 175.5 168 c 128,-1,62
 149 208 149 208 149 263 c 0,0,1
EndSplineSet
Substitution2: "Single Substitution lookup 10 subtable" uni0B21.base
Substitution2: "'aalt' +BBIEQQQ1 +BDAEOwRMBEIENQRABD0EMARCBDgEMgQ9BEsENQAA +BDIEMARABDgEMAQ9BEIESwAA in Oriya2 lookup 0 subtable" uni0B21.base
EndChar

StartChar: uni0B22
Encoding: 2850 2850 33
Width: 734
GlyphClass: 2
Flags: W
HStem: 85 65<238.646 365.382> 358 60<380.492 465.858> 686 73<234.847 489.297>
VStem: 32 76<413.726 580.964> 126 72<190.477 322.426> 299 67<229.963 342.286> 479 68<222.594 343.225> 622 80<398.974 576.088>
AnchorPoint: "+BBEENQQ3BEsEPARPBD0EPQQ+BDUA--4" 644 93 basechar 0
AnchorPoint: "+BBEENQQ3BEsEPARPBD0EPQQ+BDUA--3" 279 93 basechar 0
AnchorPoint: "+BBEENQQ3BEsEPARPBD0EPQQ+BDUA--2" 361 -8 basechar 0
AnchorPoint: "+BBEENQQ3BEsEPARPBD0EPQQ+BDUA--1" 365 751 basechar 0
AnchorPoint: "+BBEENQQ3BEsEPARPBD0EPQQ+BDUA--0" 606 751 basechar 0
LayerCount: 2
Fore
SplineSet
126 257 m 0,0,1
 126 284 126 284 133 311 c 1,2,3
 84 348 84 348 58 399.5 c 128,-1,4
 32 451 32 451 32 508 c 0,5,6
 32 586 32 586 75.5 642 c 128,-1,7
 119 698 119 698 193.5 728.5 c 128,-1,8
 268 759 268 759 360 759 c 0,9,10
 457 759 457 759 534 726.5 c 128,-1,11
 611 694 611 694 656.5 633.5 c 128,-1,12
 702 573 702 573 702 489 c 0,13,14
 702 442 702 442 686.5 400.5 c 128,-1,15
 671 359 671 359 643 326 c 1,16,-1
 576 363 l 1,17,18
 622 418 622 418 622 487 c 0,19,20
 622 554 622 554 585.5 598 c 128,-1,21
 549 642 549 642 489.5 664 c 128,-1,22
 430 686 430 686 361 686 c 0,23,24
 287 686 287 686 230 662.5 c 128,-1,25
 173 639 173 639 140.5 597.5 c 128,-1,26
 108 556 108 556 108 500 c 0,27,28
 108 466 108 466 121 432.5 c 128,-1,29
 134 399 134 399 158 374 c 1,30,31
 197 443 197 443 275 494 c 1,32,-1
 308 451 l 1,33,34
 259 412 259 412 228.5 362.5 c 128,-1,35
 198 313 198 313 198 264 c 0,36,37
 198 234 198 234 209.5 208 c 128,-1,38
 221 182 221 182 246.5 166 c 128,-1,39
 272 150 272 150 314 150 c 0,40,41
 341 150 341 150 366 157 c 1,42,43
 299 220 299 220 299 299 c 0,44,45
 299 352 299 352 333 385 c 128,-1,46
 367 418 367 418 421 418 c 0,47,48
 479 418 479 418 513 383.5 c 128,-1,49
 547 349 547 349 547 298 c 0,50,51
 547 262 547 262 529.5 223.5 c 128,-1,52
 512 185 512 185 479 154 c 1,53,54
 519 132 519 132 573 114 c 1,55,-1
 555 55 l 1,56,57
 478 81 478 81 423 114 c 1,58,59
 397 101 397 101 366.5 93 c 128,-1,60
 336 85 336 85 300 85 c 0,61,62
 240 85 240 85 201 109.5 c 128,-1,63
 162 134 162 134 144 173 c 128,-1,64
 126 212 126 212 126 257 c 0,0,1
366 294 m 0,65,66
 366 268 366 268 380.5 241 c 128,-1,67
 395 214 395 214 426 188 c 1,68,69
 452 209 452 209 465.5 237.5 c 128,-1,70
 479 266 479 266 479 294 c 0,71,72
 479 321 479 321 465 339.5 c 128,-1,73
 451 358 451 358 423 358 c 0,74,75
 397 358 397 358 381.5 339.5 c 128,-1,76
 366 321 366 321 366 294 c 0,65,66
EndSplineSet
Substitution2: "Single Substitution lookup 10 subtable" uni0B22.base
Substitution2: "'aalt' +BBIEQQQ1 +BDAEOwRMBEIENQRABD0EMARCBDgEMgQ9BEsENQAA +BDIEMARABDgEMAQ9BEIESwAA in Oriya2 lookup 0 subtable" uni0B22.base
EndChar

StartChar: uni0B23
Encoding: 2851 2851 34
Width: 741
GlyphClass: 2
Flags: W
HStem: 85 62<204.205 383.649> 320 58<137.031 378.433> 496 62<245.164 400.156> 694 65<274.292 456.304>
VStem: 170 72<557.513 663.465> 420 80<179.989 283.114> 601 78<93 565.284 641 751>
AnchorPoint: "+BBEENQQ3BEsEPARPBD0EPQQ+BDUA--4" 679 93 basechar 0
AnchorPoint: "+BBEENQQ3BEsEPARPBD0EPQQ+BDUA--3" 601 93 basechar 0
AnchorPoint: "+BBEENQQ3BEsEPARPBD0EPQQ+BDUA--1" 370 751 basechar 0
AnchorPoint: "+BBEENQQ3BEsEPARPBD0EPQQ+BDUA--0" 640 751 basechar 0
LayerCount: 2
Fore
SplineSet
32 327 m 0,0,1
 32 403 32 403 72 461 c 128,-1,2
 112 519 112 519 185 543 c 1,3,4
 170 581 170 581 170 618 c 0,5,6
 170 681 170 681 216.5 720 c 128,-1,7
 263 759 263 759 346 759 c 0,8,9
 414 759 414 759 484.5 729.5 c 128,-1,10
 555 700 555 700 604 641 c 1,11,-1
 601 751 l 1,12,-1
 679 751 l 1,13,-1
 679 93 l 1,14,-1
 601 93 l 1,15,-1
 601 511 l 1,16,17
 584 572 584 572 544 612.5 c 128,-1,18
 504 653 504 653 453.5 673.5 c 128,-1,19
 403 694 403 694 355 694 c 0,20,21
 303 694 303 694 272.5 671 c 128,-1,22
 242 648 242 648 242 607 c 0,23,24
 242 583 242 583 252 557 c 1,25,26
 268 558 268 558 284 558 c 0,27,28
 316 558 316 558 351 552 c 128,-1,29
 386 546 386 546 420 533 c 1,30,-1
 401 476 l 1,31,32
 374 486 374 486 345 491.5 c 128,-1,33
 316 497 316 497 290 496 c 0,34,35
 209 496 209 496 164 454.5 c 128,-1,36
 119 413 119 413 113 349 c 1,37,38
 191 378 191 378 279 378 c 0,39,40
 382 378 382 378 441 338.5 c 128,-1,41
 500 299 500 299 500 229 c 0,42,43
 500 183 500 183 473.5 151 c 128,-1,44
 447 119 447 119 402 102 c 128,-1,45
 357 85 357 85 302 85 c 0,46,47
 253 85 253 85 205.5 99 c 128,-1,48
 158 113 158 113 118.5 142.5 c 128,-1,49
 79 172 79 172 55.5 218 c 128,-1,50
 32 264 32 264 32 327 c 0,0,1
275 320 m 0,51,52
 235 320 235 320 192.5 312 c 128,-1,53
 150 304 150 304 115 291 c 1,54,55
 123 240 123 240 152.5 208 c 128,-1,56
 182 176 182 176 221 161.5 c 128,-1,57
 260 147 260 147 299 147 c 0,58,59
 348 147 348 147 384 169 c 128,-1,60
 420 191 420 191 420 231 c 0,61,62
 420 273 420 273 382 296.5 c 128,-1,63
 344 320 344 320 275 320 c 0,51,52
EndSplineSet
Substitution2: "Single Substitution lookup 10 subtable" uni0B23.base
Substitution2: "'aalt' +BBIEQQQ1 +BDAEOwRMBEIENQRABD0EMARCBDgEMgQ9BEsENQAA +BDIEMARABDgEMAQ9BEIESwAA in Oriya2 lookup 0 subtable" uni0B23.base
EndChar

StartChar: uni0B24
Encoding: 2852 2852 35
Width: 734
GlyphClass: 2
Flags: W
HStem: 85 69<276.139 431.528> 292 122<366.689 446.328> 686 73<237.811 493.973>
VStem: 32 76<412.589 579.867> 149 76<201.83 306.745> 476 72<197.604 327.502> 622 80<407.833 583.988>
AnchorPoint: "+BBEENQQ3BEsEPARPBD0EPQQ+BDUA--4" 634 93 basechar 0
AnchorPoint: "+BBEENQQ3BEsEPARPBD0EPQQ+BDUA--3" 338 93 basechar 0
AnchorPoint: "+BBEENQQ3BEsEPARPBD0EPQQ+BDUA--1" 364 751 basechar 0
AnchorPoint: "+BBEENQQ3BEsEPARPBD0EPQQ+BDUA--0" 606 751 basechar 0
LayerCount: 2
Fore
SplineSet
149 272 m 0,0,1
 149 286 149 286 150 299 c 1,2,3
 90 338 90 338 61 392 c 128,-1,4
 32 446 32 446 32 507 c 0,5,6
 32 586 32 586 77.5 642.5 c 128,-1,7
 123 699 123 699 198.5 729 c 128,-1,8
 274 759 274 759 364 759 c 0,9,10
 456 759 456 759 532.5 728.5 c 128,-1,11
 609 698 609 698 655.5 640.5 c 128,-1,12
 702 583 702 583 702 502 c 0,13,14
 702 453 702 453 686.5 410 c 128,-1,15
 671 367 671 367 642 333 c 1,16,-1
 575 369 l 1,17,18
 622 426 622 426 622 501 c 0,19,20
 622 562 622 562 586 603.5 c 128,-1,21
 550 645 550 645 491 665.5 c 128,-1,22
 432 686 432 686 362 686 c 0,23,24
 291 686 291 686 233 662.5 c 128,-1,25
 175 639 175 639 141.5 597 c 128,-1,26
 108 555 108 555 108 499 c 0,27,28
 108 468 108 468 122 430 c 128,-1,29
 136 392 136 392 170 363 c 1,30,31
 186 398 186 398 214 430 c 128,-1,32
 242 462 242 462 280 491 c 1,33,-1
 315 445 l 1,34,35
 272 406 272 406 248.5 363.5 c 128,-1,36
 225 321 225 321 225 276 c 0,37,38
 225 217 225 217 262.5 185.5 c 128,-1,39
 300 154 300 154 355 154 c 0,40,41
 411 154 411 154 443.5 185.5 c 128,-1,42
 476 217 476 217 476 262 c 0,43,44
 476 302 476 302 454 328 c 1,45,46
 448 311 448 311 433.5 301.5 c 128,-1,47
 419 292 419 292 401 292 c 0,48,49
 377 292 377 292 360.5 307.5 c 128,-1,50
 344 323 344 323 344 350 c 0,51,52
 344 381 344 381 366 397.5 c 128,-1,53
 388 414 388 414 418 414 c 0,54,55
 447 414 447 414 477 398 c 128,-1,56
 507 382 507 382 527.5 349 c 128,-1,57
 548 316 548 316 548 265 c 0,58,59
 548 222 548 222 527 180.5 c 128,-1,60
 506 139 506 139 462.5 112 c 128,-1,61
 419 85 419 85 352 85 c 0,62,63
 294 85 294 85 248 107 c 128,-1,64
 202 129 202 129 175.5 171 c 128,-1,65
 149 213 149 213 149 272 c 0,0,1
EndSplineSet
Substitution2: "Single Substitution lookup 10 subtable" uni0B24.base
Substitution2: "'aalt' +BBIEQQQ1 +BDAEOwRMBEIENQRABD0EMARCBDgEMgQ9BEsENQAA +BDIEMARABDgEMAQ9BEIESwAA in Oriya2 lookup 0 subtable" uni0B24.base
EndChar

StartChar: uni0B25
Encoding: 2853 2853 36
Width: 689
GlyphClass: 2
Flags: W
HStem: 85 73<165.627 381.27> 693 66<199.506 344.48>
VStem: 32 80<208.207 338.314> 83 80<523.593 657.305> 379 80<526.496 659.339> 550 78<93 205 273.986 751>
AnchorPoint: "+BBEENQQ3BEsEPARPBD0EPQQ+BDUA--4" 628 93 basechar 0
AnchorPoint: "+BBEENQQ3BEsEPARPBD0EPQQ+BDUA--3" 550 93 basechar 0
AnchorPoint: "+BBEENQQ3BEsEPARPBD0EPQQ+BDUA--1" 275 751 basechar 0
AnchorPoint: "+BBEENQQ3BEsEPARPBD0EPQQ+BDUA--0" 589 751 basechar 0
LayerCount: 2
Fore
SplineSet
379 594 m 0,0,1
 379 639 379 639 351.5 666 c 128,-1,2
 324 693 324 693 273 693 c 256,3,4
 222 693 222 693 192.5 665.5 c 128,-1,5
 163 638 163 638 163 591 c 0,6,7
 163 576 163 576 166.5 559 c 128,-1,8
 170 542 170 542 179 523 c 1,9,-1
 104 501 l 1,10,11
 95 522 95 522 89 546 c 128,-1,12
 83 570 83 570 83 595 c 0,13,14
 83 671 83 671 134.5 715 c 128,-1,15
 186 759 186 759 275 759 c 0,16,17
 362 759 362 759 410.5 716 c 128,-1,18
 459 673 459 673 459 596 c 0,19,20
 459 541 459 541 436 505.5 c 128,-1,21
 413 470 413 470 377 448.5 c 128,-1,22
 341 427 341 427 300 414 c 2,23,-1
 232 390 l 2,24,25
 201 380 201 380 173.5 367 c 128,-1,26
 146 354 146 354 129 332.5 c 128,-1,27
 112 311 112 311 112 275 c 0,28,29
 112 225 112 225 148.5 191.5 c 128,-1,30
 185 158 185 158 261 158 c 0,31,32
 336 158 336 158 413 192.5 c 128,-1,33
 490 227 490 227 550 297 c 1,34,-1
 550 751 l 1,35,-1
 628 751 l 1,36,-1
 628 93 l 1,37,-1
 550 93 l 1,38,-1
 556 205 l 1,39,40
 502 149 502 149 425 117 c 128,-1,41
 348 85 348 85 259 85 c 0,42,43
 143 85 143 85 87.5 138 c 128,-1,44
 32 191 32 191 32 271 c 0,45,46
 32 322 32 322 51 354.5 c 128,-1,47
 70 387 70 387 100.5 406.5 c 128,-1,48
 131 426 131 426 166 438.5 c 128,-1,49
 201 451 201 451 234 462 c 2,50,-1
 254 469 l 2,51,52
 279 477 279 477 308.5 490 c 128,-1,53
 338 503 338 503 358.5 527.5 c 128,-1,54
 379 552 379 552 379 594 c 0,0,1
EndSplineSet
Substitution2: "Single Substitution lookup 10 subtable" uni0B25.base
Substitution2: "'aalt' +BBIEQQQ1 +BDAEOwRMBEIENQRABD0EMARCBDgEMgQ9BEsENQAA +BDIEMARABDgEMAQ9BEIESwAA in Oriya2 lookup 0 subtable" uni0B25.base
EndChar

StartChar: uni0B26
Encoding: 2854 2854 37
Width: 752
GlyphClass: 2
Flags: W
HStem: 157 62<263.673 418.688> 686 73<239.372 497.533>
VStem: 32 76<410.031 578.567> 440 78<93 191 240.401 413> 640 80<398.64 572.619>
AnchorPoint: "+BBEENQQ3BEsEPARPBD0EPQQ+BDUA--4" 638 93 basechar 0
AnchorPoint: "+BBEENQQ3BEsEPARPBD0EPQQ+BDUA--3" 440 93 basechar 0
AnchorPoint: "+BBEENQQ3BEsEPARPBD0EPQQ+BDUA--1" 367 751 basechar 0
AnchorPoint: "+BBEENQQ3BEsEPARPBD0EPQQ+BDUA--0" 624 751 basechar 0
LayerCount: 2
Fore
SplineSet
323 157 m 0,0,1
 240 157 240 157 197.5 198 c 128,-1,2
 155 239 155 239 152 294 c 1,3,4
 91 334 91 334 61.5 388 c 128,-1,5
 32 442 32 442 32 504 c 0,6,7
 32 581 32 581 77 638.5 c 128,-1,8
 122 696 122 696 198 727.5 c 128,-1,9
 274 759 274 759 367 759 c 0,10,11
 434 759 434 759 497 742 c 128,-1,12
 560 725 560 725 610.5 691 c 128,-1,13
 661 657 661 657 690.5 606 c 128,-1,14
 720 555 720 555 720 488 c 0,15,16
 720 443 720 443 705.5 403.5 c 128,-1,17
 691 364 691 364 664 330 c 1,18,-1
 596 366 l 1,19,20
 617 391 617 391 628.5 422 c 128,-1,21
 640 453 640 453 640 488 c 0,22,23
 640 538 640 538 617 575 c 128,-1,24
 594 612 594 612 555 636.5 c 128,-1,25
 516 661 516 661 467 673.5 c 128,-1,26
 418 686 418 686 367 686 c 0,27,28
 294 686 294 686 235.5 663 c 128,-1,29
 177 640 177 640 142.5 597 c 128,-1,30
 108 554 108 554 108 496 c 0,31,32
 108 460 108 460 122.5 425.5 c 128,-1,33
 137 391 137 391 164 365 c 1,34,35
 177 398 177 398 206 428 c 128,-1,36
 235 458 235 458 280 478 c 1,37,-1
 312 434 l 1,38,39
 273 412 273 412 252 377.5 c 128,-1,40
 231 343 231 343 231 310 c 0,41,42
 231 273 231 273 257 246 c 128,-1,43
 283 219 283 219 336 219 c 0,44,45
 366 219 366 219 393.5 228.5 c 128,-1,46
 421 238 421 238 440 259 c 1,47,-1
 440 413 l 1,48,-1
 518 413 l 1,49,-1
 518 93 l 1,50,-1
 440 93 l 1,51,-1
 445 191 l 1,52,53
 420 174 420 174 389 165.5 c 128,-1,54
 358 157 358 157 323 157 c 0,0,1
EndSplineSet
Substitution2: "Single Substitution lookup 10 subtable" uni0B26.base
Substitution2: "'aalt' +BBIEQQQ1 +BDAEOwRMBEIENQRABD0EMARCBDgEMgQ9BEsENQAA +BDIEMARABDgEMAQ9BEIESwAA in Oriya2 lookup 0 subtable" uni0B26.base
EndChar

StartChar: uni0B27
Encoding: 2855 2855 38
Width: 690
GlyphClass: 2
Flags: W
HStem: 85 73<192.832 402.129>
VStem: 32 80<234.87 393.432> 551 78<93 196 266.703 751>
AnchorPoint: "+BBEENQQ3BEsEPARPBD0EPQQ+BDUA--4" 629 93 basechar 0
AnchorPoint: "+BBEENQQ3BEsEPARPBD0EPQQ+BDUA--3" 551 93 basechar 0
AnchorPoint: "+BBEENQQ3BEsEPARPBD0EPQQ+BDUA--1" 338 751 basechar 0
AnchorPoint: "+BBEENQQ3BEsEPARPBD0EPQQ+BDUA--0" 590 751 basechar 0
LayerCount: 2
Fore
SplineSet
32 314 m 0,0,1
 32 387 32 387 79.5 449 c 128,-1,2
 127 511 127 511 218 545 c 1,3,-1
 77 706 l 1,4,-1
 130 758 l 1,5,-1
 447 397 l 1,6,-1
 395 346 l 1,7,-1
 267 491 l 1,8,9
 190 466 190 466 151 418.5 c 128,-1,10
 112 371 112 371 112 315 c 0,11,12
 112 272 112 272 132.5 236.5 c 128,-1,13
 153 201 153 201 193 179.5 c 128,-1,14
 233 158 233 158 291 158 c 0,15,16
 357 158 357 158 425 189.5 c 128,-1,17
 493 221 493 221 550 289 c 1,18,-1
 551 751 l 1,19,-1
 629 751 l 1,20,-1
 629 93 l 1,21,-1
 551 93 l 1,22,-1
 556 196 l 1,23,24
 502 141 502 141 433 113 c 128,-1,25
 364 85 364 85 290 85 c 0,26,27
 210 85 210 85 152.5 114 c 128,-1,28
 95 143 95 143 63.5 194.5 c 128,-1,29
 32 246 32 246 32 314 c 0,0,1
EndSplineSet
Substitution2: "Single Substitution lookup 10 subtable" uni0B27.base
Substitution2: "'aalt' +BBIEQQQ1 +BDAEOwRMBEIENQRABD0EMARCBDgEMgQ9BEsENQAA +BDIEMARABDgEMAQ9BEIESwAA in Oriya2 lookup 0 subtable" uni0B27.base
EndChar

StartChar: uni0B28
Encoding: 2856 2856 39
Width: 712
GlyphClass: 2
Flags: W
HStem: 85 132<190.94 240.888> 381 66<309.339 417.438> 686 73<230.761 470.882>
VStem: 32 80<407.257 584.809> 113 148<112.694 195.858> 418 78<93 381> 600 79<396.559 579.459>
AnchorPoint: "+BBEENQQ3BEsEPARPBD0EPQQ+BDUA--4" 496 93 basechar 0
AnchorPoint: "+BBEENQQ3BEsEPARPBD0EPQQ+BDUA--3" 418 93 basechar 0
AnchorPoint: "+BBEENQQ3BEsEPARPBD0EPQQ+BDUA--1" 348 751 basechar 0
AnchorPoint: "+BBEENQQ3BEsEPARPBD0EPQQ+BDUA--0" 584 751 basechar 0
LayerCount: 2
Fore
SplineSet
192 85 m 0,0,1
 158 85 158 85 135.5 111.5 c 128,-1,2
 113 138 113 138 113 185 c 0,3,4
 113 238 113 238 141 291 c 1,5,6
 88 328 88 328 60 383 c 128,-1,7
 32 438 32 438 32 502 c 0,8,9
 32 565 32 565 58 613.5 c 128,-1,10
 84 662 84 662 128.5 694 c 128,-1,11
 173 726 173 726 230.5 742.5 c 128,-1,12
 288 759 288 759 350 759 c 0,13,14
 415 759 415 759 474.5 742 c 128,-1,15
 534 725 534 725 580 691.5 c 128,-1,16
 626 658 626 658 652.5 608.5 c 128,-1,17
 679 559 679 559 679 494 c 0,18,19
 679 448 679 448 666.5 408 c 128,-1,20
 654 368 654 368 632 334 c 1,21,-1
 563 369 l 1,22,23
 580 395 580 395 590 426 c 128,-1,24
 600 457 600 457 600 492 c 0,25,26
 600 556 600 556 564 599.5 c 128,-1,27
 528 643 528 643 471 664.5 c 128,-1,28
 414 686 414 686 349 686 c 0,29,30
 285 686 285 686 231 664.5 c 128,-1,31
 177 643 177 643 144.5 601 c 128,-1,32
 112 559 112 559 112 497 c 0,33,34
 112 455 112 455 129.5 415.5 c 128,-1,35
 147 376 147 376 181 350 c 1,36,37
 219 392 219 392 276 419.5 c 128,-1,38
 333 447 333 447 406 447 c 0,39,40
 427 447 427 447 452 444.5 c 128,-1,41
 477 442 477 442 496 439 c 1,42,-1
 496 93 l 1,43,-1
 418 93 l 1,44,-1
 418 381 l 1,45,46
 414 381 414 381 409 381 c 0,47,48
 351 381 351 381 305 357.5 c 128,-1,49
 259 334 259 334 229.5 296.5 c 128,-1,50
 200 259 200 259 190 217 c 1,51,-1
 191 217 l 2,52,53
 223 217 223 217 242 196.5 c 128,-1,54
 261 176 261 176 261 150 c 0,55,56
 261 122 261 122 241.5 103.5 c 128,-1,57
 222 85 222 85 192 85 c 0,0,1
EndSplineSet
Substitution2: "Single Substitution lookup 10 subtable" uni0B28.base
Substitution2: "'aalt' +BBIEQQQ1 +BDAEOwRMBEIENQRABD0EMARCBDgEMgQ9BEsENQAA +BDIEMARABDgEMAQ9BEIESwAA in Oriya2 lookup 0 subtable" uni0B28.base
EndChar

StartChar: uni0B2A
Encoding: 2858 2858 40
Width: 741
GlyphClass: 2
Flags: W
HStem: 86 73<301.038 480.068> 686 73<225.911 456.551>
VStem: 32 80<410.58 584.717> 165 79<213.292 298.346> 601 78<93 195 258.701 563.5 642 751>
AnchorPoint: "+BBEENQQ3BEsEPARPBD0EPQQ+BDUA--4" 679 93 basechar 0
AnchorPoint: "+BBEENQQ3BEsEPARPBD0EPQQ+BDUA--3" 601 93 basechar 0
AnchorPoint: "+BBEENQQ3BEsEPARPBD0EPQQ+BDUA--1" 329 751 basechar 0
AnchorPoint: "+BBEENQQ3BEsEPARPBD0EPQQ+BDUA--0" 640 751 basechar 0
LayerCount: 2
Fore
SplineSet
373 86 m 0,0,1
 316 86 316 86 269 108.5 c 128,-1,2
 222 131 222 131 193.5 172.5 c 128,-1,3
 165 214 165 214 165 271 c 0,4,5
 165 278 165 278 165 285 c 1,6,7
 99 323 99 323 65.5 381 c 128,-1,8
 32 439 32 439 32 509 c 0,9,10
 32 569 32 569 56.5 615.5 c 128,-1,11
 81 662 81 662 123 694 c 128,-1,12
 165 726 165 726 218 742.5 c 128,-1,13
 271 759 271 759 329 759 c 0,14,15
 408 759 408 759 481.5 730 c 128,-1,16
 555 701 555 701 604 642 c 1,17,-1
 601 751 l 1,18,-1
 679 751 l 1,19,-1
 679 93 l 1,20,-1
 601 93 l 1,21,-1
 606 195 l 1,22,23
 561 139 561 139 498 112.5 c 128,-1,24
 435 86 435 86 373 86 c 0,0,1
244 280 m 0,25,26
 244 241 244 241 264.5 214 c 128,-1,27
 285 187 285 187 316 173 c 128,-1,28
 347 159 347 159 381 159 c 0,29,30
 421 159 421 159 463 174 c 128,-1,31
 505 189 505 189 541.5 219 c 128,-1,32
 578 249 578 249 601 294 c 1,33,-1
 601 511 l 1,34,35
 585 568 585 568 545.5 607 c 128,-1,36
 506 646 506 646 452 666 c 128,-1,37
 398 686 398 686 337 686 c 0,38,39
 277 686 277 686 225.5 664 c 128,-1,40
 174 642 174 642 143 599.5 c 128,-1,41
 112 557 112 557 112 495 c 0,42,43
 112 456 112 456 129.5 418.5 c 128,-1,44
 147 381 147 381 182 353 c 1,45,46
 203 399 203 399 245 434 c 128,-1,47
 287 469 287 469 345 488 c 1,48,-1
 372 426 l 1,49,50
 316 407 316 407 280 368.5 c 128,-1,51
 244 330 244 330 244 280 c 0,25,26
EndSplineSet
Substitution2: "Single Substitution lookup 10 subtable" uni0B2A.base
Substitution2: "'aalt' +BBIEQQQ1 +BDAEOwRMBEIENQRABD0EMARCBDgEMgQ9BEsENQAA +BDIEMARABDgEMAQ9BEIESwAA in Oriya2 lookup 0 subtable" uni0B2A.base
EndChar

StartChar: uni0B2B
Encoding: 2859 2859 41
Width: 899
GlyphClass: 2
Flags: W
HStem: 86 73<301.038 480.068> 426 55<700.742 804.111> 644 55<701.308 803.649> 686 73<225.911 456.551>
VStem: 32 80<410.58 584.717> 165 79<213.292 298.346> 601 78<93 194 258.701 454 501.63 563.482 670 751> 825 64<503.778 620.132>
AnchorPoint: "+BBEENQQ3BEsEPARPBD0EPQQ+BDUA--4" 679 93 basechar 0
AnchorPoint: "+BBEENQQ3BEsEPARPBD0EPQQ+BDUA--3" 601 93 basechar 0
AnchorPoint: "+BBEENQQ3BEsEPARPBD0EPQQ+BDUA--1" 329 751 basechar 0
AnchorPoint: "+BBEENQQ3BEsEPARPBD0EPQQ+BDUA--0" 758 751 basechar 0
LayerCount: 2
Fore
SplineSet
373 86 m 0,0,1
 316 86 316 86 269 108.5 c 128,-1,2
 222 131 222 131 193.5 172.5 c 128,-1,3
 165 214 165 214 165 271 c 0,4,5
 165 278 165 278 165 285 c 1,6,7
 99 323 99 323 65.5 381 c 128,-1,8
 32 439 32 439 32 509 c 0,9,10
 32 569 32 569 56.5 615.5 c 128,-1,11
 81 662 81 662 123 694 c 128,-1,12
 165 726 165 726 218 742.5 c 128,-1,13
 271 759 271 759 329 759 c 0,14,15
 408 759 408 759 481.5 730 c 128,-1,16
 555 701 555 701 604 642 c 1,17,-1
 601 751 l 1,18,-1
 679 751 l 1,19,-1
 679 670 l 1,20,21
 714 699 714 699 762 699 c 0,22,23
 819 699 819 699 854 660 c 128,-1,24
 889 621 889 621 889 562 c 0,25,26
 889 504 889 504 854.5 465 c 128,-1,27
 820 426 820 426 763 426 c 0,28,29
 714 426 714 426 679 454 c 1,30,-1
 679 93 l 1,31,-1
 601 93 l 1,32,-1
 605 194 l 1,33,34
 561 139 561 139 498 112.5 c 128,-1,35
 435 86 435 86 373 86 c 0,0,1
244 280 m 0,36,37
 244 241 244 241 264.5 214 c 128,-1,38
 285 187 285 187 316 173 c 128,-1,39
 347 159 347 159 381 159 c 0,40,41
 421 159 421 159 463 174 c 128,-1,42
 505 189 505 189 541.5 219 c 128,-1,43
 578 249 578 249 601 294 c 1,44,-1
 601 511 l 1,45,46
 585 568 585 568 545.5 607 c 128,-1,47
 506 646 506 646 452 666 c 128,-1,48
 398 686 398 686 337 686 c 0,49,50
 277 686 277 686 225.5 664 c 128,-1,51
 174 642 174 642 143 599.5 c 128,-1,52
 112 557 112 557 112 495 c 0,53,54
 112 456 112 456 129.5 418.5 c 128,-1,55
 147 381 147 381 182 353 c 1,56,57
 203 399 203 399 245 434 c 128,-1,58
 287 469 287 469 345 488 c 1,59,-1
 372 426 l 1,60,61
 316 407 316 407 280 368.5 c 128,-1,62
 244 330 244 330 244 280 c 0,36,37
753 644 m 0,63,64
 723 644 723 644 701 622.5 c 128,-1,65
 679 601 679 601 679 561 c 256,66,67
 679 521 679 521 701 501 c 128,-1,68
 723 481 723 481 753 481 c 0,69,70
 788 481 788 481 806.5 505.5 c 128,-1,71
 825 530 825 530 825 562 c 256,72,73
 825 594 825 594 806.5 619 c 128,-1,74
 788 644 788 644 753 644 c 0,63,64
EndSplineSet
Substitution2: "Single Substitution lookup 10 subtable" uni0B2B.base
Substitution2: "'aalt' +BBIEQQQ1 +BDAEOwRMBEIENQRABD0EMARCBDgEMgQ9BEsENQAA +BDIEMARABDgEMAQ9BEIESwAA in Oriya2 lookup 0 subtable" uni0B2B.base
EndChar

StartChar: uni0B2C
Encoding: 2860 2860 42
Width: 718
GlyphClass: 2
Flags: W
HStem: 142 61<261.261 396.733> 422 62<261.303 396.66> 686 73<230.894 475.415>
VStem: 32 76<408.747 578.563> 430 78<93 169> 437 71<243.507 382.186> 606 80<399.542 577.107>
AnchorPoint: "+BBEENQQ3BEsEPARPBD0EPQQ+BDUA--4" 628 93 basechar 0
AnchorPoint: "+BBEENQQ3BEsEPARPBD0EPQQ+BDUA--3" 430 93 basechar 0
AnchorPoint: "+BBEENQQ3BEsEPARPBD0EPQQ+BDUA--1" 353 751 basechar 0
AnchorPoint: "+BBEENQQ3BEsEPARPBD0EPQQ+BDUA--0" 590 751 basechar 0
LayerCount: 2
Fore
SplineSet
328 142 m 0,0,1
 253 142 253 142 204 185 c 128,-1,2
 155 228 155 228 149 298 c 1,3,4
 91 332 91 332 61.5 387.5 c 128,-1,5
 32 443 32 443 32 505 c 0,6,7
 32 576 32 576 70.5 633.5 c 128,-1,8
 109 691 109 691 181 725 c 128,-1,9
 253 759 253 759 353 759 c 0,10,11
 415 759 415 759 474 742 c 128,-1,12
 533 725 533 725 581 691.5 c 128,-1,13
 629 658 629 658 657.5 607 c 128,-1,14
 686 556 686 556 686 489 c 0,15,16
 686 444 686 444 672.5 406.5 c 128,-1,17
 659 369 659 369 636 340 c 1,18,-1
 565 371 l 1,19,20
 585 396 585 396 595.5 425 c 128,-1,21
 606 454 606 454 606 489 c 0,22,23
 606 555 606 555 569.5 599 c 128,-1,24
 533 643 533 643 475 664.5 c 128,-1,25
 417 686 417 686 354 686 c 0,26,27
 275 686 275 686 220 659.5 c 128,-1,28
 165 633 165 633 136.5 589.5 c 128,-1,29
 108 546 108 546 108 495 c 0,30,31
 108 460 108 460 121 427.5 c 128,-1,32
 134 395 134 395 158 371 c 1,33,34
 175 423 175 423 220 453.5 c 128,-1,35
 265 484 265 484 330 484 c 0,36,37
 410 484 410 484 459 437 c 128,-1,38
 508 390 508 390 508 315 c 2,39,-1
 508 93 l 1,40,-1
 430 93 l 1,41,-1
 432 169 l 1,42,43
 387 142 387 142 328 142 c 0,0,1
329 203 m 0,44,45
 377 203 377 203 407 233.5 c 128,-1,46
 437 264 437 264 437 314 c 0,47,48
 437 362 437 362 407 392 c 128,-1,49
 377 422 377 422 329 422 c 0,50,51
 282 422 282 422 251 392 c 128,-1,52
 220 362 220 362 220 314 c 0,53,54
 220 264 220 264 251 233.5 c 128,-1,55
 282 203 282 203 329 203 c 0,44,45
EndSplineSet
Substitution2: "Single Substitution lookup 10 subtable" uni0B2C.base
Substitution2: "'aalt' +BBIEQQQ1 +BDAEOwRMBEIENQRABD0EMARCBDgEMgQ9BEsENQAA +BDIEMARABDgEMAQ9BEIESwAA in Oriya2 lookup 0 subtable" uni0B2C.base
EndChar

StartChar: uni0B2D
Encoding: 2861 2861 43
Width: 833
GlyphClass: 2
Flags: W
HStem: 84 21G<736.276 777.667> 85 60<274.513 459.108> 224 51<408.729 507.235> 686 73<252.155 543.744>
VStem: 32 76<409.518 573.599> 133 76<208.365 314.682> 323 72<289.12 403.805> 513 78<279.615 413> 714 79<339.439 542.126>
AnchorPoint: "+BBEENQQ3BEsEPARPBD0EPQQ+BDUA--4" 667 93 basechar 0
AnchorPoint: "+BBEENQQ3BEsEPARPBD0EPQQ+BDUA--3" 351 93 basechar 0
AnchorPoint: "+BBEENQQ3BEsEPARPBD0EPQQ+BDUA--1" 398 751 basechar 0
AnchorPoint: "+BBEENQQ3BEsEPARPBD0EPQQ+BDUA--0" 691 751 basechar 0
LayerCount: 2
Fore
SplineSet
365 85 m 0,0,1
 254 85 254 85 193.5 138.5 c 128,-1,2
 133 192 133 192 133 283 c 0,3,4
 133 294 133 294 134 305 c 1,5,6
 79 349 79 349 55.5 399 c 128,-1,7
 32 449 32 449 32 501 c 0,8,9
 32 578 32 578 77 636.5 c 128,-1,10
 122 695 122 695 204 727 c 128,-1,11
 286 759 286 759 400 759 c 0,12,13
 523 759 523 759 611 721.5 c 128,-1,14
 699 684 699 684 746 615.5 c 128,-1,15
 793 547 793 547 793 456 c 0,16,17
 793 402 793 402 775.5 351 c 128,-1,18
 758 300 758 300 719 253 c 1,19,-1
 815 132 l 1,20,-1
 751 84 l 1,21,-1
 631 247 l 1,22,23
 676 290 676 290 695 337.5 c 128,-1,24
 714 385 714 385 714 437 c 0,25,26
 714 519 714 519 674 574 c 128,-1,27
 634 629 634 629 562.5 657.5 c 128,-1,28
 491 686 491 686 396 686 c 0,29,30
 308 686 308 686 243.5 661.5 c 128,-1,31
 179 637 179 637 143.5 593.5 c 128,-1,32
 108 550 108 550 108 493 c 0,33,34
 108 465 108 465 118 435.5 c 128,-1,35
 128 406 128 406 151 378 c 1,36,37
 164 411 164 411 185.5 443 c 128,-1,38
 207 475 207 475 239 505 c 1,39,-1
 284 464 l 1,40,41
 244 417 244 417 226.5 371.5 c 128,-1,42
 209 326 209 326 209 286 c 0,43,44
 209 224 209 224 250 184.5 c 128,-1,45
 291 145 291 145 367 145 c 0,46,47
 427 145 427 145 462 168.5 c 128,-1,48
 497 192 497 192 508 236 c 1,49,50
 476 224 476 224 440 224 c 0,51,52
 386 224 386 224 354.5 251.5 c 128,-1,53
 323 279 323 279 323 326 c 0,54,55
 323 388 323 388 379 452 c 1,56,-1
 421 414 l 1,57,58
 395 371 395 371 395 333 c 0,59,60
 395 308 395 308 410 291.5 c 128,-1,61
 425 275 425 275 458 275 c 0,62,63
 488 275 488 275 513 288 c 1,64,-1
 513 413 l 1,65,-1
 591 413 l 1,66,-1
 591 286 l 2,67,68
 591 183 591 183 529 134 c 128,-1,69
 467 85 467 85 365 85 c 0,0,1
EndSplineSet
Substitution2: "Single Substitution lookup 10 subtable" uni0B2D.base
Substitution2: "'aalt' +BBIEQQQ1 +BDAEOwRMBEIENQRABD0EMARCBDgEMgQ9BEsENQAA +BDIEMARABDgEMAQ9BEIESwAA in Oriya2 lookup 0 subtable" uni0B2D.base
EndChar

StartChar: uni0B2E
Encoding: 2862 2862 44
Width: 741
GlyphClass: 2
Flags: W
HStem: 85 132<189.886 240.888> 686 73<223.124 458.786>
VStem: 32 80<407.793 584.158> 113 148<112.694 195.343> 601 78<93 563.75 642 751>
AnchorPoint: "+BBEENQQ3BEsEPARPBD0EPQQ+BDUA--4" 679 93 basechar 0
AnchorPoint: "+BBEENQQ3BEsEPARPBD0EPQQ+BDUA--3" 601 93 basechar 0
AnchorPoint: "+BBEENQQ3BEsEPARPBD0EPQQ+BDUA--1" 331 751 basechar 0
AnchorPoint: "+BBEENQQ3BEsEPARPBD0EPQQ+BDUA--0" 640 751 basechar 0
LayerCount: 2
Fore
SplineSet
192 85 m 0,0,1
 158 85 158 85 135.5 111.5 c 128,-1,2
 113 138 113 138 113 184 c 0,3,4
 113 241 113 241 143 294 c 1,5,6
 89 330 89 330 60.5 385 c 128,-1,7
 32 440 32 440 32 505 c 0,8,9
 32 575 32 575 67.5 632.5 c 128,-1,10
 103 690 103 690 170 724.5 c 128,-1,11
 237 759 237 759 331 759 c 0,12,13
 408 759 408 759 481 730 c 128,-1,14
 554 701 554 701 604 642 c 1,15,-1
 601 751 l 1,16,-1
 679 751 l 1,17,-1
 679 93 l 1,18,-1
 601 93 l 1,19,-1
 601 512 l 1,20,21
 585 568 585 568 546.5 607 c 128,-1,22
 508 646 508 646 454.5 666 c 128,-1,23
 401 686 401 686 340 686 c 0,24,25
 263 686 263 686 212.5 659.5 c 128,-1,26
 162 633 162 633 137 590 c 128,-1,27
 112 547 112 547 112 497 c 0,28,29
 112 454 112 454 130.5 414 c 128,-1,30
 149 374 149 374 184 347 c 1,31,32
 227 392 227 392 290 422 c 128,-1,33
 353 452 353 452 426 462 c 1,34,-1
 437 394 l 1,35,36
 324 377 324 377 263.5 327.5 c 128,-1,37
 203 278 203 278 189 217 c 1,38,-1
 191 217 l 2,39,40
 223 217 223 217 242 196 c 128,-1,41
 261 175 261 175 261 150 c 0,42,43
 261 122 261 122 241.5 103.5 c 128,-1,44
 222 85 222 85 192 85 c 0,0,1
EndSplineSet
Substitution2: "Single Substitution lookup 10 subtable" uni0B2E.base
Substitution2: "'aalt' +BBIEQQQ1 +BDAEOwRMBEIENQRABD0EMARCBDgEMgQ9BEsENQAA +BDIEMARABDgEMAQ9BEIESwAA in Oriya2 lookup 0 subtable" uni0B2E.base
EndChar

StartChar: uni0B2F
Encoding: 2863 2863 45
Width: 784
GlyphClass: 2
Flags: W
HStem: 85 73<345.572 521.157> 686 73<268.598 495.667>
VStem: 24 119<139.019 220.988> 76 79<428.232 590.009> 218 76<205.036 334.512> 645 78<93 194 259.266 560.063 640 751>
AnchorPoint: "+BBEENQQ3BEsEPARPBD0EPQQ+BDUA--4" 723 93 basechar 0
AnchorPoint: "+BBEENQQ3BEsEPARPBD0EPQQ+BDUA--3" 645 93 basechar 0
AnchorPoint: "+BBEENQQ3BEsEPARPBD0EPQQ+BDUA--1" 375 751 basechar 0
AnchorPoint: "+BBEENQQ3BEsEPARPBD0EPQQ+BDUA--0" 684 751 basechar 0
LayerCount: 2
Fore
SplineSet
421 85 m 0,0,1
 363 85 363 85 317.5 107 c 128,-1,2
 272 129 272 129 245 171 c 128,-1,3
 218 213 218 213 218 273 c 0,4,5
 218 287 218 287 220 302.5 c 128,-1,6
 222 318 222 318 227 335 c 1,7,8
 190 309 190 309 158.5 282 c 128,-1,9
 127 255 127 255 107 230 c 1,10,11
 126 221 126 221 134.5 206.5 c 128,-1,12
 143 192 143 192 143 176 c 0,13,14
 143 151 143 151 126 136.5 c 128,-1,15
 109 122 109 122 86 122 c 0,16,17
 61 122 61 122 42.5 138.5 c 128,-1,18
 24 155 24 155 24 184 c 0,19,20
 24 216 24 216 56.5 263 c 128,-1,21
 89 310 89 310 151 359 c 1,22,23
 114 391 114 391 95 433 c 128,-1,24
 76 475 76 475 76 520 c 0,25,26
 76 579 76 579 100 623.5 c 128,-1,27
 124 668 124 668 165.5 698 c 128,-1,28
 207 728 207 728 259 743.5 c 128,-1,29
 311 759 311 759 367 759 c 0,30,31
 447 759 447 759 522 729.5 c 128,-1,32
 597 700 597 700 648 640 c 1,33,-1
 645 751 l 1,34,-1
 723 751 l 1,35,-1
 723 93 l 1,36,-1
 645 93 l 1,37,-1
 649 194 l 1,38,39
 605 138 605 138 542.5 111.5 c 128,-1,40
 480 85 480 85 421 85 c 0,0,1
294 273 m 0,41,42
 294 217 294 217 334 187.5 c 128,-1,43
 374 158 374 158 428 158 c 0,44,45
 463 158 463 158 504.5 173 c 128,-1,46
 546 188 546 188 583.5 218 c 128,-1,47
 621 248 621 248 645 294 c 1,48,-1
 645 510 l 1,49,50
 627 570 627 570 585 609 c 128,-1,51
 543 648 543 648 488.5 667 c 128,-1,52
 434 686 434 686 379 686 c 0,53,54
 321 686 321 686 270 665 c 128,-1,55
 219 644 219 644 187 604.5 c 128,-1,56
 155 565 155 565 155 507 c 0,57,58
 155 443 155 443 202 396 c 1,59,60
 241 421 241 421 288.5 445 c 128,-1,61
 336 469 336 469 392 490 c 1,62,-1
 420 426 l 1,63,64
 354 401 354 401 324 358.5 c 128,-1,65
 294 316 294 316 294 273 c 0,41,42
EndSplineSet
Substitution2: "Single Substitution lookup 10 subtable" uni0B2F.base
Substitution2: "'aalt' +BBIEQQQ1 +BDAEOwRMBEIENQRABD0EMARCBDgEMgQ9BEsENQAA +BDIEMARABDgEMAQ9BEIESwAA in Oriya2 lookup 0 subtable" uni0B2F.base
EndChar

StartChar: uni0B30
Encoding: 2864 2864 46
Width: 749
GlyphClass: 2
Flags: W
HStem: 84 21G<644.276 686.234> 85 65<242.489 382.218> 382 66<241.766 382.531> 686 73<238.387 492.693>
VStem: 32 76<408.846 581.211> 126 72<194.954 318.682> 427 72<194.954 338.269> 646 80<365.347 557.337>
AnchorPoint: "+BBEENQQ3BEsEPARPBD0EPQQ+BDUA--4" 603 93 basechar 0
AnchorPoint: "+BBEENQQ3BEsEPARPBD0EPQQ+BDUA--3" 292 93 basechar 0
AnchorPoint: "+BBEENQQ3BEsEPARPBD0EPQQ+BDUA--1" 367 751 basechar 0
AnchorPoint: "+BBEENQQ3BEsEPARPBD0EPQQ+BDUA--0" 630 751 basechar 0
LayerCount: 2
Fore
SplineSet
311 85 m 256,0,1
 259 85 259 85 217 107.5 c 128,-1,2
 175 130 175 130 150.5 171 c 128,-1,3
 126 212 126 212 126 267 c 0,4,5
 126 288 126 288 130 308 c 1,6,7
 80 347 80 347 56 399 c 128,-1,8
 32 451 32 451 32 505 c 0,9,10
 32 568 32 568 60 615.5 c 128,-1,11
 88 663 88 663 135.5 695 c 128,-1,12
 183 727 183 727 243 743 c 128,-1,13
 303 759 303 759 367 759 c 0,14,15
 434 759 434 759 498.5 741 c 128,-1,16
 563 723 563 723 614 688 c 128,-1,17
 665 653 665 653 695.5 600 c 128,-1,18
 726 547 726 547 726 477 c 0,19,20
 726 415 726 415 700.5 356 c 128,-1,21
 675 297 675 297 630 250 c 1,22,-1
 723 131 l 1,23,-1
 659 84 l 1,24,-1
 539 247 l 1,25,26
 592 290 592 290 619 347.5 c 128,-1,27
 646 405 646 405 646 462 c 0,28,29
 646 535 646 535 606.5 585 c 128,-1,30
 567 635 567 635 503 660.5 c 128,-1,31
 439 686 439 686 365 686 c 0,32,33
 296 686 296 686 237.5 664 c 128,-1,34
 179 642 179 642 143.5 600.5 c 128,-1,35
 108 559 108 559 108 498 c 0,36,37
 108 426 108 426 156 371 c 1,38,39
 180 407 180 407 221 427.5 c 128,-1,40
 262 448 262 448 311 448 c 0,41,42
 363 448 363 448 405.5 425.5 c 128,-1,43
 448 403 448 403 473.5 362.5 c 128,-1,44
 499 322 499 322 499 267 c 256,45,46
 499 212 499 212 473.5 171 c 128,-1,47
 448 130 448 130 405.5 107.5 c 128,-1,48
 363 85 363 85 311 85 c 256,0,1
312 150 m 256,49,50
 361 150 361 150 394 182 c 128,-1,51
 427 214 427 214 427 267 c 0,52,53
 427 319 427 319 394.5 350.5 c 128,-1,54
 362 382 362 382 312 382 c 256,55,56
 262 382 262 382 230 350.5 c 128,-1,57
 198 319 198 319 198 267 c 0,58,59
 198 214 198 214 230.5 182 c 128,-1,60
 263 150 263 150 312 150 c 256,49,50
EndSplineSet
Substitution2: "Single Substitution lookup 10 subtable" uni0B30.base
Substitution2: "'aalt' +BBIEQQQ1 +BDAEOwRMBEIENQRABD0EMARCBDgEMgQ9BEsENQAA +BDIEMARABDgEMAQ9BEIESwAA in Oriya2 lookup 0 subtable" uni0B30.base
EndChar

StartChar: uni0B32
Encoding: 2866 2866 47
Width: 833
GlyphClass: 2
Flags: W
HStem: 84 21G<149.5 229 736.276 777.667> 387 61<225.09 309.576 414.058 496.651> 686 73<250.238 535.939>
VStem: 32 76<411.594 576.669> 123 78<123.542 325.335> 157 72<100.25 163.687> 325 74<93 365.34> 513 78<93 371.531> 714 79<339.916 538.155>
AnchorPoint: "+BBEENQQ3BEsEPARPBD0EPQQ+BDUA--4" 591 93 basechar 0
AnchorPoint: "+BBEENQQ3BEsEPARPBD0EPQQ+BDUA--3" 513 93 basechar 0
AnchorPoint: "+BBEENQQ3BEsEPARPBD0EPQQ+BDUA--1" 420 751 basechar 0
AnchorPoint: "+BBEENQQ3BEsEPARPBD0EPQQ+BDUA--0" 688 751 basechar 0
LayerCount: 2
Fore
SplineSet
157 84 m 1,0,1
 142 128 142 128 132.5 177.5 c 128,-1,2
 123 227 123 227 123 272 c 0,3,4
 123 294 123 294 126 314 c 1,5,6
 77 357 77 357 54.5 404.5 c 128,-1,7
 32 452 32 452 32 502 c 0,8,9
 32 585 32 585 80 642 c 128,-1,10
 128 699 128 699 210.5 729 c 128,-1,11
 293 759 293 759 399 759 c 0,12,13
 480 759 480 759 551.5 739 c 128,-1,14
 623 719 623 719 677.5 680.5 c 128,-1,15
 732 642 732 642 762.5 585 c 128,-1,16
 793 528 793 528 793 455 c 0,17,18
 793 402 793 402 775.5 351 c 128,-1,19
 758 300 758 300 719 253 c 1,20,-1
 815 132 l 1,21,-1
 751 84 l 1,22,-1
 631 247 l 1,23,24
 676 290 676 290 695 337 c 128,-1,25
 714 384 714 384 714 434 c 0,26,27
 714 518 714 518 670.5 574 c 128,-1,28
 627 630 627 630 554.5 658 c 128,-1,29
 482 686 482 686 394 686 c 0,30,31
 315 686 315 686 250 664 c 128,-1,32
 185 642 185 642 146.5 599.5 c 128,-1,33
 108 557 108 557 108 495 c 0,34,35
 108 467 108 467 117.5 439 c 128,-1,36
 127 411 127 411 148 384 c 1,37,38
 183 448 183 448 256 448 c 0,39,40
 292 448 292 448 320 432 c 128,-1,41
 348 416 348 416 363 383 c 1,42,43
 377 420 377 420 405.5 434 c 128,-1,44
 434 448 434 448 469 448 c 0,45,46
 525 448 525 448 558 414 c 128,-1,47
 591 380 591 380 591 320 c 2,48,-1
 591 93 l 1,49,-1
 513 93 l 1,50,-1
 513 313 l 2,51,52
 513 322 513 322 510 339.5 c 128,-1,53
 507 357 507 357 495 372 c 128,-1,54
 483 387 483 387 457 387 c 0,55,56
 429 387 429 387 414 366 c 128,-1,57
 399 345 399 345 399 307 c 2,58,-1
 399 93 l 1,59,-1
 325 93 l 1,60,-1
 325 303 l 2,61,62
 325 346 325 346 309.5 366.5 c 128,-1,63
 294 387 294 387 267 387 c 0,64,65
 237 387 237 387 219 357.5 c 128,-1,66
 201 328 201 328 201 268 c 0,67,68
 201 230 201 230 208.5 186 c 128,-1,69
 216 142 216 142 229 102 c 1,70,-1
 157 84 l 1,0,1
EndSplineSet
Substitution2: "Single Substitution lookup 10 subtable" uni0B32.base
Substitution2: "'aalt' +BBIEQQQ1 +BDAEOwRMBEIENQRABD0EMARCBDgEMgQ9BEsENQAA +BDIEMARABDgEMAQ9BEIESwAA in Oriya2 lookup 0 subtable" uni0B32.base
EndChar

StartChar: uni0B33
Encoding: 2867 2867 48
Width: 776
GlyphClass: 2
Flags: W
HStem: 84 21G<149.5 229> 387 61<225.09 309.576 413.916 497.168> 686 73<243.756 520.24>
VStem: 32 76<411.713 576.706> 123 78<123.542 325.335> 157 72<100.25 163.687> 325 74<93 365.34> 513 78<93 371.531> 663 80<400.836 573.603>
AnchorPoint: "+BBEENQQ3BEsEPARPBD0EPQQ+BDUA--4" 591 93 basechar 0
AnchorPoint: "+BBEENQQ3BEsEPARPBD0EPQQ+BDUA--3" 513 93 basechar 0
AnchorPoint: "+BBEENQQ3BEsEPARPBD0EPQQ+BDUA--1" 384 751 basechar 0
AnchorPoint: "+BBEENQQ3BEsEPARPBD0EPQQ+BDUA--0" 648 751 basechar 0
LayerCount: 2
Fore
SplineSet
32 503 m 0,0,1
 32 582 32 582 77.5 639 c 128,-1,2
 123 696 123 696 202.5 727.5 c 128,-1,3
 282 759 282 759 384 759 c 0,4,5
 483 759 483 759 564.5 728 c 128,-1,6
 646 697 646 697 694.5 636.5 c 128,-1,7
 743 576 743 576 743 487 c 0,8,9
 743 444 743 444 730 407 c 128,-1,10
 717 370 717 370 693 340 c 1,11,-1
 621 370 l 1,12,13
 641 395 641 395 652 424.5 c 128,-1,14
 663 454 663 454 663 488 c 0,15,16
 663 553 663 553 624.5 597 c 128,-1,17
 586 641 586 641 522.5 663.5 c 128,-1,18
 459 686 459 686 382 686 c 0,19,20
 300 686 300 686 238 662 c 128,-1,21
 176 638 176 638 142 595 c 128,-1,22
 108 552 108 552 108 494 c 256,23,24
 108 436 108 436 148 384 c 1,25,26
 183 448 183 448 256 448 c 0,27,28
 292 448 292 448 320 432 c 128,-1,29
 348 416 348 416 362 383 c 1,30,31
 377 420 377 420 406 434 c 128,-1,32
 435 448 435 448 471 448 c 0,33,34
 525 448 525 448 558 414 c 128,-1,35
 591 380 591 380 591 320 c 2,36,-1
 591 93 l 1,37,-1
 513 93 l 1,38,-1
 513 313 l 2,39,40
 513 322 513 322 510 339.5 c 128,-1,41
 507 357 507 357 495 372 c 128,-1,42
 483 387 483 387 457 387 c 0,43,44
 429 387 429 387 414 366 c 128,-1,45
 399 345 399 345 399 307 c 2,46,-1
 399 93 l 1,47,-1
 325 93 l 1,48,-1
 325 303 l 2,49,50
 325 346 325 346 309.5 366.5 c 128,-1,51
 294 387 294 387 267 387 c 0,52,53
 237 387 237 387 219 357.5 c 128,-1,54
 201 328 201 328 201 268 c 0,55,56
 201 230 201 230 208.5 186 c 128,-1,57
 216 142 216 142 229 102 c 1,58,-1
 157 84 l 1,59,60
 142 128 142 128 132.5 177.5 c 128,-1,61
 123 227 123 227 123 272 c 0,62,63
 123 294 123 294 126 314 c 1,64,65
 80 354 80 354 56 401 c 128,-1,66
 32 448 32 448 32 503 c 0,0,1
EndSplineSet
Substitution2: "Single Substitution lookup 10 subtable" uni0B33.base
Substitution2: "'aalt' +BBIEQQQ1 +BDAEOwRMBEIENQRABD0EMARCBDgEMgQ9BEsENQAA +BDIEMARABDgEMAQ9BEIESwAA in Oriya2 lookup 0 subtable" uni0B33.base
EndChar

StartChar: uni0B35
Encoding: 2869 2869 49
Width: 718
GlyphClass: 2
Flags: W
HStem: 142 61<261.261 396.733> 272 81<298.861 358.139> 422 62<261.303 396.66> 686 73<230.894 475.415>
VStem: 32 76<408.747 578.563> 287 83<284.376 341.655> 430 78<93 169> 437 71<243.507 382.186> 606 80<401.626 577.107>
AnchorPoint: "+BBEENQQ3BEsEPARPBD0EPQQ+BDUA--4" 628 93 basechar 0
AnchorPoint: "+BBEENQQ3BEsEPARPBD0EPQQ+BDUA--3" 430 93 basechar 0
AnchorPoint: "+BBEENQQ3BEsEPARPBD0EPQQ+BDUA--1" 353 751 basechar 0
AnchorPoint: "+BBEENQQ3BEsEPARPBD0EPQQ+BDUA--0" 590 751 basechar 0
LayerCount: 2
Fore
SplineSet
328 142 m 0,0,1
 253 142 253 142 204 185 c 128,-1,2
 155 228 155 228 149 298 c 1,3,4
 91 332 91 332 61.5 387.5 c 128,-1,5
 32 443 32 443 32 505 c 0,6,7
 32 576 32 576 70.5 633.5 c 128,-1,8
 109 691 109 691 181 725 c 128,-1,9
 253 759 253 759 353 759 c 0,10,11
 415 759 415 759 474 742 c 128,-1,12
 533 725 533 725 581 691.5 c 128,-1,13
 629 658 629 658 657.5 607 c 128,-1,14
 686 556 686 556 686 489 c 0,15,16
 686 444 686 444 672.5 406.5 c 128,-1,17
 659 369 659 369 636 339 c 1,18,-1
 565 371 l 1,19,20
 584 396 584 396 595 425.5 c 128,-1,21
 606 455 606 455 606 489 c 0,22,23
 606 555 606 555 569.5 599 c 128,-1,24
 533 643 533 643 475 664.5 c 128,-1,25
 417 686 417 686 354 686 c 0,26,27
 275 686 275 686 220 659.5 c 128,-1,28
 165 633 165 633 136.5 589.5 c 128,-1,29
 108 546 108 546 108 495 c 0,30,31
 108 460 108 460 121 427.5 c 128,-1,32
 134 395 134 395 158 371 c 1,33,34
 175 423 175 423 220 453.5 c 128,-1,35
 265 484 265 484 330 484 c 0,36,37
 410 484 410 484 459 437 c 128,-1,38
 508 390 508 390 508 315 c 2,39,-1
 508 93 l 1,40,-1
 430 93 l 1,41,-1
 432 169 l 1,42,43
 387 142 387 142 328 142 c 0,0,1
329 203 m 0,44,45
 377 203 377 203 407 233.5 c 128,-1,46
 437 264 437 264 437 314 c 0,47,48
 437 362 437 362 407 392 c 128,-1,49
 377 422 377 422 329 422 c 0,50,51
 282 422 282 422 251 392 c 128,-1,52
 220 362 220 362 220 314 c 0,53,54
 220 264 220 264 251 233.5 c 128,-1,55
 282 203 282 203 329 203 c 0,44,45
328 272 m 0,56,57
 310 272 310 272 298.5 284 c 128,-1,58
 287 296 287 296 287 314 c 0,59,60
 287 331 287 331 298.5 342 c 128,-1,61
 310 353 310 353 328 353 c 0,62,63
 347 353 347 353 358.5 342 c 128,-1,64
 370 331 370 331 370 314 c 0,65,66
 370 296 370 296 358.5 284 c 128,-1,67
 347 272 347 272 328 272 c 0,56,57
EndSplineSet
Substitution2: "Single Substitution lookup 10 subtable" uni0B35.base
Substitution2: "'aalt' +BBIEQQQ1 +BDAEOwRMBEIENQRABD0EMARCBDgEMgQ9BEsENQAA +BDIEMARABDgEMAQ9BEIESwAA in Oriya2 lookup 0 subtable" uni0B35.base
EndChar

StartChar: uni0B36
Encoding: 2870 2870 50
Width: 741
GlyphClass: 2
Flags: W
HStem: 85 62<238.116 388.992> 356 61<237.67 388.771> 510 53<320.558 372.774> 532 62<242.996 367.16> 694 65<275.09 455.984>
VStem: 32 76<371.123 491.14> 126 73<185.873 297.772> 170 72<593.661 662.302> 427 72<184.622 318.16> 601 78<93 565.284 641 751>
AnchorPoint: "+BBEENQQ3BEsEPARPBD0EPQQ+BDUA--4" 679 93 basechar 0
AnchorPoint: "+BBEENQQ3BEsEPARPBD0EPQQ+BDUA--3" 601 93 basechar 0
AnchorPoint: "+BBEENQQ3BEsEPARPBD0EPQQ+BDUA--1" 357 751 basechar 0
AnchorPoint: "+BBEENQQ3BEsEPARPBD0EPQQ+BDUA--0" 640 751 basechar 0
LayerCount: 2
Fore
SplineSet
313 85 m 256,0,1
 257 85 257 85 215 106.5 c 128,-1,2
 173 128 173 128 149.5 166 c 128,-1,3
 126 204 126 204 126 252 c 0,4,5
 126 271 126 271 131 290 c 1,6,7
 82 317 82 317 57 356.5 c 128,-1,8
 32 396 32 396 32 439 c 0,9,10
 32 500 32 500 72.5 537 c 128,-1,11
 113 574 113 574 173 587 c 1,12,13
 170 602 170 602 170 618 c 0,14,15
 170 681 170 681 217 720 c 128,-1,16
 264 759 264 759 346 759 c 0,17,18
 413 759 413 759 484 729.5 c 128,-1,19
 555 700 555 700 604 641 c 1,20,-1
 601 751 l 1,21,-1
 679 751 l 1,22,-1
 679 93 l 5,23,-1
 601 93 l 5,24,-1
 601 511 l 1,25,26
 584 572 584 572 544 612.5 c 128,-1,27
 504 653 504 653 453.5 673.5 c 128,-1,28
 403 694 403 694 355 694 c 0,29,30
 303 694 303 694 272.5 670.5 c 128,-1,31
 242 647 242 647 242 606 c 0,32,33
 242 600 242 600 243 594 c 1,34,35
 279 593 279 593 317 585.5 c 128,-1,36
 355 578 355 578 391 563 c 1,37,-1
 370 510 l 1,38,39
 340 521 340 521 310.5 526.5 c 128,-1,40
 281 532 281 532 253 532 c 0,41,42
 188 532 188 532 148 506.5 c 128,-1,43
 108 481 108 481 108 433 c 0,44,45
 108 380 108 380 156 347 c 1,46,47
 180 379 180 379 220.5 398 c 128,-1,48
 261 417 261 417 313 417 c 0,49,50
 369 417 369 417 410.5 395.5 c 128,-1,51
 452 374 452 374 475.5 337 c 128,-1,52
 499 300 499 300 499 252 c 256,53,54
 499 204 499 204 475.5 166 c 128,-1,55
 452 128 452 128 410.5 106.5 c 128,-1,56
 369 85 369 85 313 85 c 256,0,1
314 147 m 0,57,58
 367 147 367 147 397 175.5 c 128,-1,59
 427 204 427 204 427 252 c 0,60,61
 427 298 427 298 397.5 327 c 128,-1,62
 368 356 368 356 313 356 c 0,63,64
 259 356 259 356 229 327 c 128,-1,65
 199 298 199 298 199 252 c 256,66,67
 199 206 199 206 229 176.5 c 128,-1,68
 259 147 259 147 314 147 c 0,57,58
EndSplineSet
Substitution2: "Single Substitution lookup 10 subtable" uni0B36.base
Substitution2: "'aalt' +BBIEQQQ1 +BDAEOwRMBEIENQRABD0EMARCBDgEMgQ9BEsENQAA +BDIEMARABDgEMAQ9BEIESwAA in Oriya2 lookup 0 subtable" uni0B36.base
EndChar

StartChar: uni0B37
Encoding: 2871 2871 51
Width: 741
GlyphClass: 2
Flags: W
HStem: 86 73<301.038 479.733> 686 73<248.761 456.551>
VStem: 32 80<410.58 583.762> 165 79<213.292 297.631> 601 78<93 190 259.894 563.5 642 751>
AnchorPoint: "+BBEENQQ3BEsEPARPBD0EPQQ+BDUA--4" 679 93 basechar 0
AnchorPoint: "+BBEENQQ3BEsEPARPBD0EPQQ+BDUA--3" 601 93 basechar 0
AnchorPoint: "+BBEENQQ3BEsEPARPBD0EPQQ+BDUA--1" 335 751 basechar 0
AnchorPoint: "+BBEENQQ3BEsEPARPBD0EPQQ+BDUA--0" 640 751 basechar 0
LayerCount: 2
Fore
SplineSet
373 86 m 0,0,1
 316 86 316 86 269 108.5 c 128,-1,2
 222 131 222 131 193.5 172.5 c 128,-1,3
 165 214 165 214 165 271 c 0,4,5
 165 278 165 278 165 285 c 1,6,7
 99 323 99 323 65.5 381 c 128,-1,8
 32 439 32 439 32 509 c 0,9,10
 32 569 32 569 56.5 615.5 c 128,-1,11
 81 662 81 662 123 694 c 128,-1,12
 165 726 165 726 218 742.5 c 128,-1,13
 271 759 271 759 329 759 c 0,14,15
 408 759 408 759 481.5 730 c 128,-1,16
 555 701 555 701 604 642 c 1,17,-1
 601 751 l 1,18,-1
 679 751 l 1,19,-1
 679 93 l 1,20,-1
 601 93 l 1,21,-1
 605 190 l 1,22,-1
 600 188 l 1,23,24
 556 136 556 136 495 111 c 128,-1,25
 434 86 434 86 373 86 c 0,0,1
337 686 m 0,26,27
 290 686 290 686 248 673 c 1,28,-1
 572 251 l 1,29,30
 589 271 589 271 601 294 c 1,31,-1
 601 511 l 1,32,33
 585 568 585 568 545.5 607 c 128,-1,34
 506 646 506 646 452 666 c 128,-1,35
 398 686 398 686 337 686 c 0,26,27
112 495 m 0,36,37
 112 456 112 456 129.5 418.5 c 128,-1,38
 147 381 147 381 182 353 c 1,39,40
 221 438 221 438 322 479 c 1,41,-1
 192 646 l 1,42,43
 156 622 156 622 134 584 c 128,-1,44
 112 546 112 546 112 495 c 0,36,37
244 280 m 0,45,46
 244 241 244 241 264.5 214 c 128,-1,47
 285 187 285 187 316 173 c 128,-1,48
 347 159 347 159 381 159 c 0,49,50
 418 159 418 159 457 172 c 128,-1,51
 496 185 496 185 530 210 c 1,52,-1
 365 423 l 1,53,54
 312 403 312 403 278 365.5 c 128,-1,55
 244 328 244 328 244 280 c 0,45,46
EndSplineSet
Substitution2: "Single Substitution lookup 10 subtable" uni0B37.base
Substitution2: "'aalt' +BBIEQQQ1 +BDAEOwRMBEIENQRABD0EMARCBDgEMgQ9BEsENQAA +BDIEMARABDgEMAQ9BEIESwAA in Oriya2 lookup 0 subtable" uni0B37.base
EndChar

StartChar: uni0B38
Encoding: 2872 2872 52
Width: 694
GlyphClass: 2
Flags: W
HStem: 686 73<200.907 411.617>
VStem: 32 79<449.119 606.062> 555 78<166 564.347 642 751>
AnchorPoint: "+BBEENQQ3BEsEPARPBD0EPQQ+BDUA--4" 633 93 basechar 0
AnchorPoint: "+BBEENQQ3BEsEPARPBD0EPQQ+BDUA--3" 555 93 basechar 0
AnchorPoint: "+BBEENQQ3BEsEPARPBD0EPQQ+BDUA--1" 295 751 basechar 0
AnchorPoint: "+BBEENQQ3BEsEPARPBD0EPQQ+BDUA--0" 594 751 basechar 0
LayerCount: 2
Fore
SplineSet
633 751 m 1,0,-1
 633 81 l 1,1,-1
 592 81 l 1,2,-1
 104 204 l 1,3,-1
 88 250 l 1,4,-1
 165 324 l 1,5,6
 98 362 98 362 65 417.5 c 128,-1,7
 32 473 32 473 32 535 c 0,8,9
 32 599 32 599 65.5 649.5 c 128,-1,10
 99 700 99 700 158 729.5 c 128,-1,11
 217 759 217 759 295 759 c 0,12,13
 367 759 367 759 438 730 c 128,-1,14
 509 701 509 701 558 642 c 1,15,-1
 555 751 l 1,16,-1
 633 751 l 1,0,-1
390 444 m 1,17,-1
 196 256 l 1,18,-1
 555 166 l 1,19,-1
 555 512 l 1,20,21
 538 571 538 571 497.5 609.5 c 128,-1,22
 457 648 457 648 405.5 667 c 128,-1,23
 354 686 354 686 303 686 c 0,24,25
 248 686 248 686 205 666.5 c 128,-1,26
 162 647 162 647 136.5 611.5 c 128,-1,27
 111 576 111 576 111 529 c 0,28,29
 111 484 111 484 136.5 442.5 c 128,-1,30
 162 401 162 401 212 370 c 1,31,-1
 343 495 l 1,32,-1
 390 444 l 1,17,-1
EndSplineSet
Substitution2: "Single Substitution lookup 10 subtable" uni0B38.base
Substitution2: "'aalt' +BBIEQQQ1 +BDAEOwRMBEIENQRABD0EMARCBDgEMgQ9BEsENQAA +BDIEMARABDgEMAQ9BEIESwAA in Oriya2 lookup 0 subtable" uni0B38.base
EndChar

StartChar: uni0B39
Encoding: 2873 2873 53
Width: 703
GlyphClass: 2
Flags: W
HStem: 260 60<263.339 386.591> 685 73<214.678 461.6>
VStem: 32 76<456.52 601.678> 401 72<209 286 336.59 499> 591 80<406.806 578.541>
AnchorPoint: "+BBEENQQ3BEsEPARPBD0EPQQ+BDUA--4" 564 93 basechar 0
AnchorPoint: "+BBEENQQ3BEsEPARPBD0EPQQ+BDUA--3" 380 106 basechar 0
AnchorPoint: "+BBEENQQ3BEsEPARPBD0EPQQ+BDUA--1" 340 751 basechar 0
AnchorPoint: "+BBEENQQ3BEsEPARPBD0EPQQ+BDUA--0" 575 751 basechar 0
LayerCount: 2
Fore
SplineSet
117 172 m 1,0,-1
 110 217 l 1,1,-1
 210 289 l 1,2,3
 179 313 179 313 167 351 c 1,4,5
 98 377 98 377 65 427.5 c 128,-1,6
 32 478 32 478 32 535 c 0,7,8
 32 590 32 590 58 631.5 c 128,-1,9
 84 673 84 673 127.5 701.5 c 128,-1,10
 171 730 171 730 226.5 744 c 128,-1,11
 282 758 282 758 340 758 c 0,12,13
 401 758 401 758 460 742.5 c 128,-1,14
 519 727 519 727 566.5 694.5 c 128,-1,15
 614 662 614 662 642.5 613.5 c 128,-1,16
 671 565 671 565 671 499 c 0,17,18
 671 452 671 452 656 411 c 128,-1,19
 641 370 641 370 614 336 c 1,20,-1
 546 370 l 1,21,22
 567 397 567 397 579 428.5 c 128,-1,23
 591 460 591 460 591 495 c 0,24,25
 591 543 591 543 569 579 c 128,-1,26
 547 615 547 615 510.5 638.5 c 128,-1,27
 474 662 474 662 428.5 673.5 c 128,-1,28
 383 685 383 685 336 685 c 0,29,30
 278 685 278 685 226 667.5 c 128,-1,31
 174 650 174 650 141 615.5 c 128,-1,32
 108 581 108 581 108 530 c 0,33,34
 108 499 108 499 121.5 471 c 128,-1,35
 135 443 135 443 163 422 c 1,36,37
 171 460 171 460 198 495 c 128,-1,38
 225 530 225 530 274 553 c 1,39,-1
 304 503 l 1,40,41
 270 486 270 486 251.5 455 c 128,-1,42
 233 424 233 424 233 395 c 0,43,44
 233 365 233 365 253.5 342.5 c 128,-1,45
 274 320 274 320 318 320 c 0,46,47
 342 320 342 320 363.5 328.5 c 128,-1,48
 385 337 385 337 401 355 c 1,49,-1
 401 499 l 1,50,-1
 473 499 l 1,51,-1
 473 209 l 1,52,-1
 401 209 l 1,53,-1
 403 286 l 1,54,55
 363 260 363 260 307 260 c 0,56,57
 289 260 289 260 272 263 c 1,58,-1
 204 212 l 1,59,-1
 564 112 l 1,60,-1
 546 52 l 1,61,-1
 117 172 l 1,0,-1
EndSplineSet
Substitution2: "Single Substitution lookup 10 subtable" uni0B39.base
Substitution2: "'aalt' +BBIEQQQ1 +BDAEOwRMBEIENQRABD0EMARCBDgEMgQ9BEsENQAA +BDIEMARABDgEMAQ9BEIESwAA in Oriya2 lookup 0 subtable" uni0B39.base
EndChar

StartChar: uni0B71
Encoding: 2929 2929 54
Width: 700
GlyphClass: 2
Flags: W
HStem: 133 54<260.984 452.12> 297 58<256.508 494.309> 705 54<385.912 547.844>
VStem: 32 80<465.491 651.48> 144 79<221.521 318.657> 286 75<599.039 684.316> 495 78<93 175 221.328 303> 572 80<602.021 684.254> 584 79<388.138 472.817>
AnchorPoint: "+BBEENQQ3BEsEPARPBD0EPQQ+BDUA--4" 573 93 basechar 0
AnchorPoint: "+BBEENQQ3BEsEPARPBD0EPQQ+BDUA--3" 495 93 basechar 0
AnchorPoint: "+BBEENQQ3BEsEPARPBD0EPQQ+BDUA--1" 387 751 basechar 0
AnchorPoint: "+BBEENQQ3BEsEPARPBD0EPQQ+BDUA--0" 584 751 basechar 0
LayerCount: 2
Fore
SplineSet
340 133 m 0,0,1
 246 133 246 133 195 170.5 c 128,-1,2
 144 208 144 208 144 274 c 0,3,4
 144 310 144 310 160 346 c 1,5,6
 32 413 32 413 32 548 c 0,7,8
 32 608 32 608 57 666 c 128,-1,9
 82 724 82 724 129 777 c 1,10,-1
 192 743 l 1,11,12
 155 699 155 699 133.5 651.5 c 128,-1,13
 112 604 112 604 112 549 c 0,14,15
 112 486 112 486 149.5 443 c 128,-1,16
 187 400 187 400 254.5 377.5 c 128,-1,17
 322 355 322 355 410 355 c 0,18,19
 484 355 484 355 534 373 c 128,-1,20
 584 391 584 391 584 432 c 0,21,22
 584 457 584 457 565.5 471 c 128,-1,23
 547 485 547 485 517.5 491 c 128,-1,24
 488 497 488 497 454 497 c 0,25,26
 424 497 424 497 397.5 492.5 c 128,-1,27
 371 488 371 488 342 480 c 1,28,-1
 321 531 l 1,29,-1
 412 553 l 2,30,31
 457 563 457 563 493.5 574.5 c 128,-1,32
 530 586 530 586 551 602.5 c 128,-1,33
 572 619 572 619 572 644 c 0,34,35
 572 672 572 672 544.5 688.5 c 128,-1,36
 517 705 517 705 467 705 c 0,37,38
 419 705 419 705 390 689 c 128,-1,39
 361 673 361 673 361 641 c 0,40,41
 361 622 361 622 370 602 c 1,42,-1
 300 585 l 1,43,44
 286 619 286 619 286 646 c 0,45,46
 286 700 286 700 336.5 729.5 c 128,-1,47
 387 759 387 759 470 759 c 0,48,49
 555 759 555 759 603.5 730 c 128,-1,50
 652 701 652 701 652 653 c 0,51,52
 652 621 652 621 627 592 c 128,-1,53
 602 563 602 563 543 540 c 1,54,55
 606 527 606 527 634.5 497 c 128,-1,56
 663 467 663 467 663 430 c 0,57,58
 663 357 663 357 573 323 c 1,59,-1
 573 93 l 1,60,-1
 495 93 l 1,61,-1
 498 175 l 1,62,63
 465 155 465 155 423.5 144 c 128,-1,64
 382 133 382 133 340 133 c 0,0,1
401 297 m 0,65,66
 305 297 305 297 230 319 c 1,67,68
 223 297 223 297 223 278 c 0,69,70
 223 232 223 232 259.5 209.5 c 128,-1,71
 296 187 296 187 352 187 c 0,72,73
 391 187 391 187 430 200 c 128,-1,74
 469 213 469 213 495 239 c 1,75,-1
 495 303 l 1,76,77
 452 297 452 297 401 297 c 0,65,66
EndSplineSet
Substitution2: "Single Substitution lookup 10 subtable" uni0B71.base
Substitution2: "'aalt' +BBIEQQQ1 +BDAEOwRMBEIENQRABD0EMARCBDgEMgQ9BEsENQAA +BDIEMARABDgEMAQ9BEIESwAA in Oriya2 lookup 0 subtable" uni0B71.base
EndChar

StartChar: uni0B60
Encoding: 2912 2912 55
Width: 811
Flags: W
HStem: 85 65<242.503 382.01> 199 51<567 639.996> 382 66<241.616 383.249> 686 73<243.912 489.915>
VStem: 32 76<403.933 574.404> 126 75<192.758 317.85> 423 75<191.769 340.401> 609 80<432.176 587.03> 673 81<89.6971 175.478> 697 81<280.314 367.091>
LayerCount: 2
Fore
SplineSet
313 85 m 256,0,1
 257 85 257 85 215 108.5 c 128,-1,2
 173 132 173 132 149.5 173 c 128,-1,3
 126 214 126 214 126 267 c 0,4,5
 126 287 126 287 130 307 c 1,6,7
 80 347 80 347 56 396 c 128,-1,8
 32 445 32 445 32 497 c 0,9,10
 32 563 32 563 60.5 612 c 128,-1,11
 89 661 89 661 137.5 693.5 c 128,-1,12
 186 726 186 726 246 742.5 c 128,-1,13
 306 759 306 759 370 759 c 0,14,15
 459 759 459 759 531.5 729.5 c 128,-1,16
 604 700 604 700 646.5 646 c 128,-1,17
 689 592 689 592 689 520 c 0,18,19
 689 478 689 478 669 437 c 1,20,21
 721 428 721 428 749.5 399 c 128,-1,22
 778 370 778 370 778 332 c 0,23,24
 778 299 778 299 756.5 270.5 c 128,-1,25
 735 242 735 242 689 229 c 1,26,27
 719 215 719 215 736.5 192 c 128,-1,28
 754 169 754 169 754 138 c 0,29,30
 754 89 754 89 714 59 c 128,-1,31
 674 29 674 29 608 22 c 1,32,-1
 699 -90 l 1,33,-1
 636 -137 l 1,34,-1
 515 29 l 1,35,-1
 542 64 l 1,36,37
 599 64 599 64 636 80.5 c 128,-1,38
 673 97 673 97 673 133 c 0,39,40
 673 165 673 165 641 182 c 128,-1,41
 609 199 609 199 560 199 c 1,42,-1
 567 250 l 1,43,44
 638 250 638 250 667.5 273.5 c 128,-1,45
 697 297 697 297 697 325 c 0,46,47
 697 350 697 350 672 370 c 128,-1,48
 647 390 647 390 597 393 c 2,49,-1
 580 394 l 1,50,51
 609 452 609 452 609 503 c 0,52,53
 609 563 609 563 575.5 604 c 128,-1,54
 542 645 542 645 487 665.5 c 128,-1,55
 432 686 432 686 367 686 c 0,56,57
 299 686 299 686 240 663 c 128,-1,58
 181 640 181 640 144.5 596 c 128,-1,59
 108 552 108 552 108 487 c 0,60,61
 108 420 108 420 155 369 c 1,62,63
 179 406 179 406 219.5 427 c 128,-1,64
 260 448 260 448 313 448 c 0,65,66
 369 448 369 448 410.5 424.5 c 128,-1,67
 452 401 452 401 475 360 c 128,-1,68
 498 319 498 319 498 267 c 0,69,70
 498 214 498 214 475 173 c 128,-1,71
 452 132 452 132 410.5 108.5 c 128,-1,72
 369 85 369 85 313 85 c 256,0,1
313 150 m 0,73,74
 365 150 365 150 394 182.5 c 128,-1,75
 423 215 423 215 423 267 c 0,76,77
 423 318 423 318 394 350 c 128,-1,78
 365 382 365 382 313 382 c 0,79,80
 260 382 260 382 230.5 350 c 128,-1,81
 201 318 201 318 201 267 c 256,82,83
 201 216 201 216 230.5 183 c 128,-1,84
 260 150 260 150 313 150 c 0,73,74
EndSplineSet
EndChar

StartChar: uni0B61
Encoding: 2913 2913 56
Width: 591
Flags: W
HStem: 325 55<356.154 474.104> 694 65<204.112 350.515>
VStem: 36 71<209.521 342.607> 87 80<523.593 657.305> 266 63<155.2 297.783> 384 79<522.809 659.979> 495 63<192.834 304.053>
LayerCount: 2
Fore
SplineSet
426 -45 m 1,0,1
 395 -14 395 -14 367.5 19 c 128,-1,2
 340 52 340 52 319 85 c 1,3,4
 311 85 311 85 302 85 c 0,5,6
 171 85 171 85 103.5 137 c 128,-1,7
 36 189 36 189 36 278 c 0,8,9
 36 326 36 326 53 357 c 128,-1,10
 70 388 70 388 97 407 c 128,-1,11
 124 426 124 426 154.5 437 c 128,-1,12
 185 448 185 448 211 457 c 2,13,-1
 279 478 l 2,14,15
 326 492 326 492 355 515.5 c 128,-1,16
 384 539 384 539 384 591 c 0,17,18
 384 637 384 637 358 665.5 c 128,-1,19
 332 694 332 694 278 694 c 0,20,21
 227 694 227 694 197 666.5 c 128,-1,22
 167 639 167 639 167 591 c 0,23,24
 167 576 167 576 170.5 559 c 128,-1,25
 174 542 174 542 184 523 c 1,26,-1
 108 501 l 1,27,28
 99 522 99 522 93 546 c 128,-1,29
 87 570 87 570 87 595 c 0,30,31
 87 671 87 671 139 715 c 128,-1,32
 191 759 191 759 279 759 c 0,33,34
 345 759 345 759 385.5 736 c 128,-1,35
 426 713 426 713 444.5 675.5 c 128,-1,36
 463 638 463 638 463 593 c 0,37,38
 463 536 463 536 439 502 c 128,-1,39
 415 468 415 468 379.5 450 c 128,-1,40
 344 432 344 432 309 421 c 2,41,-1
 257 404 l 2,42,43
 215 391 215 391 181 377 c 128,-1,44
 147 363 147 363 127 340.5 c 128,-1,45
 107 318 107 318 107 278 c 0,46,47
 107 221 107 221 152.5 185 c 128,-1,48
 198 149 198 149 288 144 c 1,49,50
 266 196 266 196 266 241 c 0,51,52
 266 306 266 306 308 343 c 128,-1,53
 350 380 350 380 417 380 c 256,54,55
 484 380 484 380 521 345 c 128,-1,56
 558 310 558 310 558 252 c 0,57,58
 558 189 558 189 514 147.5 c 128,-1,59
 470 106 470 106 388 92 c 1,60,61
 421 46 421 46 470 -2 c 1,62,-1
 426 -45 l 1,0,1
329 235 m 0,63,64
 329 195 329 195 355 146 c 1,65,66
 424 152 424 152 459.5 180 c 128,-1,67
 495 208 495 208 495 250 c 0,68,69
 495 284 495 284 474 304.5 c 128,-1,70
 453 325 453 325 416 325 c 0,71,72
 377 325 377 325 353 300.5 c 128,-1,73
 329 276 329 276 329 235 c 0,63,64
EndSplineSet
EndChar

StartChar: uni0B3C
Encoding: 2876 2876 57
Width: 0
GlyphClass: 4
Flags: W
HStem: -69 100<259.85 335.561>
VStem: 251 99<-54.5605 21.8447>
AnchorPoint: "+BBEENQQ3BEsEPARPBD0EPQQ+BDUA--6" 300 -19 mark 0
AnchorPoint: "+BBEENQQ3BEsEPARPBD0EPQQ+BDUA--2" 300 -19 mark 0
LayerCount: 2
Fore
SplineSet
300 -69 m 0,0,1
 281 -69 281 -69 266 -54.5 c 128,-1,2
 251 -40 251 -40 251 -19 c 0,3,4
 251 1 251 1 265.5 16 c 128,-1,5
 280 31 280 31 300 31 c 256,6,7
 320 31 320 31 335 16 c 128,-1,8
 350 1 350 1 350 -19 c 0,9,10
 350 -41 350 -41 336 -55 c 128,-1,11
 322 -69 322 -69 300 -69 c 0,0,1
EndSplineSet
EndChar

StartChar: uni0B3D
Encoding: 2877 2877 58
Width: 405
Flags: W
VStem: 36 331
LayerCount: 2
Fore
SplineSet
335 85 m 1,0,-1
 36 232 l 1,1,-1
 36 290 l 1,2,-1
 285 420 l 1,3,-1
 36 551 l 1,4,-1
 36 609 l 1,5,-1
 335 759 l 1,6,-1
 367 696 l 1,7,-1
 128 572 l 1,8,-1
 362 451 l 1,9,-1
 362 393 l 1,10,-1
 127 269 l 1,11,-1
 367 148 l 1,12,-1
 335 85 l 1,0,-1
EndSplineSet
EndChar

StartChar: uni0B3E
Encoding: 2878 2878 59
Width: 201
GlyphClass: 2
Flags: W
VStem: 61 78<93 751>
AnchorPoint: "+BBEENQQ3BEsEPARPBD0EPQQ+BDUA--0" 100 751 basechar 0
LayerCount: 2
Fore
SplineSet
139 751 m 1,0,-1
 139 93 l 1,1,-1
 61 93 l 1,2,-1
 61 751 l 1,3,-1
 139 751 l 1,0,-1
EndSplineSet
EndChar

StartChar: uni0B3F
Encoding: 2879 2879 60
Width: 0
GlyphClass: 4
Flags: W
HStem: 884 68<170.704 429.53>
AnchorPoint: "+BBEENQQ3BEsEPARPBD0EPQQ+BDUA--7" 300 751 mark 0
AnchorPoint: "+BBEENQQ3BEsEPARPBD0EPQQ+BDUA--1" 300 751 mark 0
LayerCount: 2
Fore
SplineSet
16 849 m 1,0,1
 76 899 76 899 150 925.5 c 128,-1,2
 224 952 224 952 301 952 c 0,3,4
 379 952 379 952 452 925.5 c 128,-1,5
 525 899 525 899 584 849 c 1,6,-1
 546 795 l 1,7,8
 498 838 498 838 434 861 c 128,-1,9
 370 884 370 884 301 884 c 0,10,11
 231 884 231 884 166.5 861 c 128,-1,12
 102 838 102 838 54 795 c 1,13,-1
 16 849 l 1,0,1
EndSplineSet
Substitution2: "Single Substitution lookup 23 subtable" uni0B3F.wide
Substitution2: "Single Substitution lookup 16 subtable" uni0B3F.below
AlternateSubs2: "'aalt' +BBIEQQQ1 +BDAEOwRMBEIENQRABD0EMARCBDgEMgQ9BEsENQAA +BDIEMARABDgEMAQ9BEIESwAA in Oriya2 lookup 1 subtable" uni0B3F.wide uni0B3F.below
EndChar

StartChar: uni0B3F.wide
Encoding: 65538 -1 61
Width: 0
GlyphClass: 4
Flags: W
HStem: 884 68<192.089 482.982>
AnchorPoint: "+BBEENQQ3BEsEPARPBD0EPQQ+BDUA--7" 338 751 mark 0
AnchorPoint: "+BBEENQQ3BEsEPARPBD0EPQQ+BDUA--1" 338 751 mark 0
LayerCount: 2
Fore
SplineSet
24 848 m 1,0,1
 87 899 87 899 169 925.5 c 128,-1,2
 251 952 251 952 337 952 c 0,3,4
 424 952 424 952 505.5 925.5 c 128,-1,5
 587 899 587 899 651 848 c 1,6,-1
 612 795 l 1,7,8
 560 838 560 838 488 861 c 128,-1,9
 416 884 416 884 338 884 c 256,10,11
 260 884 260 884 187.5 861 c 128,-1,12
 115 838 115 838 62 795 c 1,13,-1
 24 848 l 1,0,1
EndSplineSet
EndChar

StartChar: uni0B40
Encoding: 2880 2880 62
Width: 312
GlyphClass: 2
Flags: W
VStem: 173 78<93 665>
AnchorPoint: "+BBEENQQ3BEsEPARPBD0EPQQ+BDUA--0" 215 751 basechar 0
LayerCount: 2
Fore
SplineSet
251 93 m 1,0,-1
 173 93 l 1,1,-1
 173 665 l 1,2,-1
 36 574 l 1,3,-1
 -2 632 l 1,4,-1
 178 751 l 1,5,-1
 251 751 l 1,6,-1
 251 93 l 1,0,-1
EndSplineSet
EndChar

StartChar: uni0B41
Encoding: 2881 2881 63
Width: 0
GlyphClass: 4
Flags: W
HStem: -154 65<485.018 614.208> -154 54<235.646 339.312> -10 54<233.214 338.967>
VStem: 164 59<-88.1074 -20.2662> 391 78<8.75391 93>
AnchorPoint: "+BBEENQQ3BEsEPARPBD0EPQQ+BDUA--8" 391 93 mark 0
AnchorPoint: "+BBEENQQ3BEsEPARPBD0EPQQ+BDUA--3" 391 93 mark 0
LayerCount: 2
Fore
SplineSet
284 -154 m 0,0,1
 228 -154 228 -154 196 -124 c 128,-1,2
 164 -94 164 -94 164 -53 c 0,3,4
 164 -15 164 -15 191.5 14.5 c 128,-1,5
 219 44 219 44 273 44 c 0,6,7
 305 44 305 44 331.5 33.5 c 128,-1,8
 358 23 358 23 382 7 c 1,9,10
 387 27 387 27 389 49 c 128,-1,11
 391 71 391 71 391 93 c 1,12,-1
 469 114 l 1,13,-1
 469 93 l 2,14,15
 469 19 469 19 444 -39 c 1,16,17
 470 -59 470 -59 496.5 -74 c 128,-1,18
 523 -89 523 -89 553 -89 c 0,19,20
 564 -89 564 -89 579.5 -86.5 c 128,-1,21
 595 -84 595 -84 609 -80 c 1,22,-1
 630 -138 l 1,23,24
 598 -154 598 -154 560 -154 c 0,25,26
 515 -154 515 -154 479.5 -134.5 c 128,-1,27
 444 -115 444 -115 414 -90 c 1,28,29
 362 -154 362 -154 284 -154 c 0,0,1
223 -54 m 0,30,31
 223 -73 223 -73 239.5 -86.5 c 128,-1,32
 256 -100 256 -100 284 -100 c 0,33,34
 311 -100 311 -100 330.5 -86 c 128,-1,35
 350 -72 350 -72 362 -48 c 1,36,37
 341 -32 341 -32 320 -21 c 128,-1,38
 299 -10 299 -10 276 -10 c 0,39,40
 250 -10 250 -10 236.5 -23 c 128,-1,41
 223 -36 223 -36 223 -54 c 0,30,31
EndSplineSet
EndChar

StartChar: uni0B42
Encoding: 2882 2882 64
Width: 0
GlyphClass: 4
Flags: W
HStem: -155 62<312.212 456.527 541.422 671.58> -138 57<372.125 484.447 619.124 668.395> 10 52<312.651 382>
VStem: 222 74<-80.3328 -7.62494> 382 78<62 93>
AnchorPoint: "+BBEENQQ3BEsEPARPBD0EPQQ+BDUA--8" 382 93 mark 0
AnchorPoint: "+BBEENQQ3BEsEPARPBD0EPQQ+BDUA--3" 382 93 mark 0
LayerCount: 2
Fore
SplineSet
222 -44 m 0,0,1
 222 3 222 3 261 31 c 128,-1,2
 300 59 300 59 382 62 c 1,3,-1
 382 93 l 1,4,-1
 460 114 l 1,5,-1
 460 10 l 1,6,7
 377 10 377 10 336.5 -0.5 c 128,-1,8
 296 -11 296 -11 296 -42 c 0,9,10
 296 -69 296 -69 317.5 -81 c 128,-1,11
 339 -93 339 -93 371 -93 c 0,12,13
 407 -93 407 -93 441.5 -80.5 c 128,-1,14
 476 -68 476 -68 501 -47 c 1,15,16
 528 -65 528 -65 554.5 -78 c 128,-1,17
 581 -91 581 -91 609 -91 c 0,18,19
 621 -91 621 -91 635.5 -88.5 c 128,-1,20
 650 -86 650 -86 666 -81 c 1,21,-1
 687 -138 l 1,22,23
 654 -155 654 -155 618 -155 c 0,24,25
 584 -155 584 -155 555 -141.5 c 128,-1,26
 526 -128 526 -128 501 -108 c 1,27,28
 471 -129 471 -129 435 -142 c 128,-1,29
 399 -155 399 -155 359 -155 c 0,30,31
 302 -155 302 -155 262 -127 c 128,-1,32
 222 -99 222 -99 222 -44 c 0,0,1
EndSplineSet
EndChar

StartChar: uni0B43
Encoding: 2883 2883 65
Width: 0
GlyphClass: 4
Flags: W
HStem: -163 53<348.096 506.767> -27 51<468 513.72> 31 49<358.842 412>
VStem: 248 74<-87.3211 -1.59448> 518 69<-94.957 -34.5341>
AnchorPoint: "+BBEENQQ3BEsEPARPBD0EPQQ+BDUA--8" 410 93 mark 0
AnchorPoint: "+BBEENQQ3BEsEPARPBD0EPQQ+BDUA--3" 410 93 mark 0
LayerCount: 2
Fore
SplineSet
468 24 m 1,0,1
 524 22 524 22 555.5 -1.5 c 128,-1,2
 587 -25 587 -25 587 -63 c 0,3,4
 586 -111 586 -111 538.5 -137 c 128,-1,5
 491 -163 491 -163 421 -163 c 0,6,7
 348 -163 348 -163 298 -132.5 c 128,-1,8
 248 -102 248 -102 248 -46 c 0,9,10
 248 5 248 5 293.5 38.5 c 128,-1,11
 339 72 339 72 410 80 c 1,12,-1
 424 31 l 1,13,14
 379 24 379 24 350.5 4 c 128,-1,15
 322 -16 322 -16 322 -46 c 0,16,17
 322 -75 322 -75 351 -92.5 c 128,-1,18
 380 -110 380 -110 425 -110 c 0,19,20
 464 -110 464 -110 491 -98 c 128,-1,21
 518 -86 518 -86 518 -64 c 0,22,23
 518 -31 518 -31 459 -27 c 1,24,-1
 468 24 l 1,0,1
EndSplineSet
EndChar

StartChar: uni0B44
Encoding: 2884 2884 66
Width: 0
GlyphClass: 4
Flags: W
HStem: -171 49<312.303 494.954> -65 41<448 497.179> -41 38<312.871 390> 44 39<307.921 390>
VStem: 233 69<-107.174 -53.5443 4.5965 36.4424> 499 58<-112.115 -70.6363>
AnchorPoint: "+BBEENQQ3BEsEPARPBD0EPQQ+BDUA--8" 390 93 mark 0
AnchorPoint: "+BBEENQQ3BEsEPARPBD0EPQQ+BDUA--3" 390 93 mark 0
LayerCount: 2
Fore
SplineSet
233 -87 m 0,0,1
 233 -39 233 -39 299 -20 c 1,2,3
 239 -8 239 -8 239 25 c 0,4,5
 239 52 239 52 278.5 67.5 c 128,-1,6
 318 83 318 83 390 83 c 1,7,-1
 397 44 l 1,8,9
 354 44 354 44 330.5 38.5 c 128,-1,10
 307 33 307 33 307 21 c 256,11,12
 307 9 307 9 326.5 3.5 c 128,-1,13
 346 -2 346 -2 390 -3 c 1,14,-1
 397 -41 l 1,15,16
 348 -42 348 -42 325 -52.5 c 128,-1,17
 302 -63 302 -63 302 -81 c 0,18,19
 302 -100 302 -100 332 -111 c 128,-1,20
 362 -122 362 -122 408 -122 c 0,21,22
 448 -122 448 -122 473.5 -113.5 c 128,-1,23
 499 -105 499 -105 499 -90 c 0,24,25
 499 -69 499 -69 442 -65 c 1,26,-1
 448 -24 l 1,27,28
 507 -26 507 -26 532 -45.5 c 128,-1,29
 557 -65 557 -65 557 -92 c 0,30,31
 557 -128 557 -128 514.5 -149.5 c 128,-1,32
 472 -171 472 -171 400 -171 c 256,33,34
 328 -171 328 -171 280.5 -149 c 128,-1,35
 233 -127 233 -127 233 -87 c 0,0,1
EndSplineSet
EndChar

StartChar: uni0B62
Encoding: 2914 2914 67
Width: 0
GlyphClass: 4
Flags: W
HStem: -149 38<276.485 373> -64 33<414.721 474.299> 55 38<272.41 410.648>
VStem: 200 61<-95.7559 -41.7934> 367 42<-109.674 -68.28> 411 61<20.9087 52.9117> 475 46<-102.487 -65.2715>
AnchorPoint: "+BBEENQQ3BEsEPARPBD0EPQQ+BDUA--8" 366 93 mark 0
AnchorPoint: "+BBEENQQ3BEsEPARPBD0EPQQ+BDUA--3" 366 93 mark 0
LayerCount: 2
Fore
SplineSet
521 -85 m 0,0,1
 521 -149 521 -149 374 -149 c 0,2,3
 292 -149 292 -149 246 -128.5 c 128,-1,4
 200 -108 200 -108 200 -69 c 0,5,6
 200 -42 200 -42 218.5 -27 c 128,-1,7
 237 -12 237 -12 263.5 -4.5 c 128,-1,8
 290 3 290 3 314 7 c 2,9,-1
 372 17 l 2,10,11
 385 19 385 19 398 23.5 c 128,-1,12
 411 28 411 28 411 38 c 256,13,14
 411 48 411 48 396.5 51.5 c 128,-1,15
 382 55 382 55 363 55 c 0,16,17
 338 55 338 55 311.5 50 c 128,-1,18
 285 45 285 45 272 41 c 1,19,-1
 262 77 l 1,20,21
 286 84 286 84 313 88.5 c 128,-1,22
 340 93 340 93 368 93 c 0,23,24
 410 93 410 93 441 81 c 128,-1,25
 472 69 472 69 472 39 c 0,26,27
 472 17 472 17 455.5 5 c 128,-1,28
 439 -7 439 -7 417 -12.5 c 128,-1,29
 395 -18 395 -18 381 -21 c 2,30,-1
 328 -30 l 2,31,32
 315 -32 315 -32 299.5 -36 c 128,-1,33
 284 -40 284 -40 272.5 -47.5 c 128,-1,34
 261 -55 261 -55 261 -69 c 0,35,36
 261 -90 261 -90 294 -100 c 128,-1,37
 327 -110 327 -110 373 -111 c 1,38,39
 367 -97 367 -97 367 -85 c 0,40,41
 367 -59 367 -59 388 -45 c 128,-1,42
 409 -31 409 -31 442 -31 c 0,43,44
 472 -31 472 -31 496.5 -44 c 128,-1,45
 521 -57 521 -57 521 -85 c 0,0,1
409 -89 m 0,46,47
 409 -99 409 -99 414 -110 c 1,48,49
 441 -108 441 -108 458 -101.5 c 128,-1,50
 475 -95 475 -95 475 -84 c 0,51,52
 475 -75 475 -75 465 -69.5 c 128,-1,53
 455 -64 455 -64 442 -64 c 0,54,55
 427 -64 427 -64 418 -70.5 c 128,-1,56
 409 -77 409 -77 409 -89 c 0,46,47
EndSplineSet
EndChar

StartChar: uni0B63
Encoding: 2915 2915 68
Width: 0
GlyphClass: 4
Flags: W
HStem: -149 38<311.15 407 477 505.469> -64 33<448.391 508.203> 55 38<306.41 444.003>
VStem: 234 61<-95.7559 -41.7934> 401 42<-109.613 -68.0726> 445 61<20.9087 52.9531> 509 46<-102.477 -65.2715>
AnchorPoint: "+BBEENQQ3BEsEPARPBD0EPQQ+BDUA--8" 400 93 mark 0
AnchorPoint: "+BBEENQQ3BEsEPARPBD0EPQQ+BDUA--3" 400 93 mark 0
LayerCount: 2
Fore
SplineSet
234 -69 m 0,0,1
 234 -42 234 -42 252.5 -27 c 128,-1,2
 271 -12 271 -12 297.5 -4.5 c 128,-1,3
 324 3 324 3 348 7 c 2,4,-1
 406 17 l 2,5,6
 419 19 419 19 432 23.5 c 128,-1,7
 445 28 445 28 445 38 c 256,8,9
 445 48 445 48 430.5 51.5 c 128,-1,10
 416 55 416 55 398 55 c 0,11,12
 372 55 372 55 345.5 50 c 128,-1,13
 319 45 319 45 306 41 c 1,14,-1
 296 77 l 1,15,16
 320 84 320 84 347 88.5 c 128,-1,17
 374 93 374 93 402 93 c 0,18,19
 443 93 443 93 474.5 81 c 128,-1,20
 506 69 506 69 506 39 c 0,21,22
 506 17 506 17 489.5 5 c 128,-1,23
 473 -7 473 -7 451 -12.5 c 128,-1,24
 429 -18 429 -18 415 -21 c 2,25,-1
 362 -30 l 2,26,27
 349 -32 349 -32 333.5 -36 c 128,-1,28
 318 -40 318 -40 306.5 -47.5 c 128,-1,29
 295 -55 295 -55 295 -69 c 0,30,31
 295 -90 295 -90 328 -100 c 128,-1,32
 361 -110 361 -110 407 -111 c 1,33,34
 401 -96 401 -96 401 -84 c 0,35,36
 401 -60 401 -60 421 -45.5 c 128,-1,37
 441 -31 441 -31 475 -31 c 0,38,39
 506 -31 506 -31 530.5 -44 c 128,-1,40
 555 -57 555 -57 555 -85 c 0,41,42
 555 -131 555 -131 477 -144 c 1,43,44
 493 -158 493 -158 516 -172 c 1,45,-1
 490 -199 l 1,46,47
 470 -186 470 -186 455.5 -173.5 c 128,-1,48
 441 -161 441 -161 430 -148 c 1,49,50
 420 -149 420 -149 408 -149 c 0,51,52
 327 -149 327 -149 280.5 -128.5 c 128,-1,53
 234 -108 234 -108 234 -69 c 0,0,1
443 -89 m 0,54,55
 443 -98 443 -98 449 -110 c 1,56,57
 475 -107 475 -107 492 -101 c 128,-1,58
 509 -95 509 -95 509 -84 c 0,59,60
 509 -75 509 -75 499 -69.5 c 128,-1,61
 489 -64 489 -64 476 -64 c 0,62,63
 461 -64 461 -64 452 -70.5 c 128,-1,64
 443 -77 443 -77 443 -89 c 0,54,55
EndSplineSet
EndChar

StartChar: uni0B47
Encoding: 2887 2887 69
Width: 534
Flags: W
HStem: 85 74<202.398 358.964> 398 70<120.199 338.054> 686 73<248.791 461.907>
VStem: 36 80<265.879 385.658 452 535.116> 402 80<200.376 338.876>
LayerCount: 2
Fore
SplineSet
482 270 m 0,0,1
 482 189 482 189 431 137 c 128,-1,2
 380 85 380 85 287 85 c 0,3,4
 170 85 170 85 103 168.5 c 128,-1,5
 36 252 36 252 36 403 c 0,6,7
 36 521 36 521 77 600.5 c 128,-1,8
 118 680 118 680 189.5 719.5 c 128,-1,9
 261 759 261 759 351 759 c 0,10,11
 392 759 392 759 432.5 750.5 c 128,-1,12
 473 742 473 742 508 724 c 1,13,-1
 478 657 l 1,14,15
 421 686 421 686 351 686 c 0,16,17
 252 686 252 686 191.5 623 c 128,-1,18
 131 560 131 560 119 452 c 1,19,20
 190 468 190 468 248 468 c 0,21,22
 354 468 354 468 418 415 c 128,-1,23
 482 362 482 362 482 270 c 0,0,1
240 398 m 0,24,25
 214 398 214 398 182 393.5 c 128,-1,26
 150 389 150 389 116 381 c 1,27,28
 120 280 120 280 161.5 219.5 c 128,-1,29
 203 159 203 159 283 159 c 0,30,31
 337 159 337 159 369.5 188.5 c 128,-1,32
 402 218 402 218 402 269 c 0,33,34
 402 327 402 327 358.5 362.5 c 128,-1,35
 315 398 315 398 240 398 c 0,24,25
EndSplineSet
EndChar

StartChar: uni0B56
Encoding: 2902 2902 73
Width: 0
GlyphClass: 4
Flags: W
HStem: 860 74<113.842 285.396> 919 73<334.829 495.742>
VStem: 514 79<798.296 900.167>
AnchorPoint: "+BBEENQQ3BEsEPARPBD0EPQQ+BDUA--5" 528 751 mark 0
AnchorPoint: "+BBEENQQ3BEsEPARPBD0EPQQ+BDUA--0" 528 751 mark 0
LayerCount: 2
Fore
SplineSet
504 801 m 1,0,1
 514 827 514 827 514 849 c 0,2,3
 514 879 514 879 495.5 899 c 128,-1,4
 477 919 477 919 438 919 c 0,5,6
 402 919 402 919 357.5 904.5 c 128,-1,7
 313 890 313 890 264.5 875 c 128,-1,8
 216 860 216 860 168 860 c 0,9,10
 128 860 128 860 87 878 c 128,-1,11
 46 896 46 896 23 946 c 1,12,-1
 89 987 l 1,13,14
 105 958 105 958 128.5 946 c 128,-1,15
 152 934 152 934 179 934 c 0,16,17
 205 934 205 934 238 942.5 c 128,-1,18
 271 951 271 951 308 963 c 128,-1,19
 345 975 345 975 382.5 983.5 c 128,-1,20
 420 992 420 992 455 992 c 0,21,22
 524 992 524 992 558.5 954.5 c 128,-1,23
 593 917 593 917 593 865 c 0,24,25
 593 824 593 824 575 785 c 1,26,-1
 504 801 l 1,0,1
EndSplineSet
Substitution2: "Single Substitution lookup 21 subtable" uni0B56.stem
Substitution2: "Single Substitution lookup 20 subtable" uni0B56.umbrella
AlternateSubs2: "'aalt' +BBIEQQQ1 +BDAEOwRMBEIENQRABD0EMARCBDgEMgQ9BEsENQAA +BDIEMARABDgEMAQ9BEIESwAA in Oriya2 lookup 1 subtable" uni0B56.stem uni0B56.umbrella
EndChar

StartChar: uni0B56.stem
Encoding: 65539 -1 74
Width: 0
GlyphClass: 4
Flags: W
HStem: 860 74<120.811 290.811> 919 73<340.877 501.957>
VStem: 520 79<800.657 901.422>
AnchorPoint: "+BBEENQQ3BEsEPARPBD0EPQQ+BDUA--5" 483 751 mark 0
AnchorPoint: "+BBEENQQ3BEsEPARPBD0EPQQ+BDUA--0" 483 751 mark 0
LayerCount: 2
Fore
SplineSet
444 751 m 1,0,1
 481 772 481 772 500.5 801.5 c 128,-1,2
 520 831 520 831 520 857 c 256,3,4
 520 883 520 883 501 901 c 128,-1,5
 482 919 482 919 445 919 c 256,6,7
 408 919 408 919 363.5 904.5 c 128,-1,8
 319 890 319 890 271 875 c 128,-1,9
 223 860 223 860 174 860 c 0,10,11
 134 860 134 860 93 878 c 128,-1,12
 52 896 52 896 29 946 c 1,13,-1
 95 987 l 1,14,15
 112 958 112 958 135 946 c 128,-1,16
 158 934 158 934 185 934 c 0,17,18
 211 934 211 934 244 942.5 c 128,-1,19
 277 951 277 951 314 963 c 128,-1,20
 351 975 351 975 389 983.5 c 128,-1,21
 427 992 427 992 462 992 c 0,22,23
 531 992 531 992 565 958 c 128,-1,24
 599 924 599 924 599 877 c 0,25,26
 599 839 599 839 576.5 799.5 c 128,-1,27
 554 760 554 760 509 731 c 1,28,-1
 444 751 l 1,0,1
EndSplineSet
EndChar

StartChar: uni0B56.umbrella
Encoding: 65540 -1 75
Width: 0
GlyphClass: 4
Flags: W
HStem: 860 74<113.842 285.396> 919 73<334.829 495.742>
VStem: 514 79<781.799 900.167>
AnchorPoint: "+BBEENQQ3BEsEPARPBD0EPQQ+BDUA--5" 523 751 mark 0
AnchorPoint: "+BBEENQQ3BEsEPARPBD0EPQQ+BDUA--0" 523 751 mark 0
LayerCount: 2
Fore
SplineSet
426 709 m 1,0,1
 468 743 468 743 491 779.5 c 128,-1,2
 514 816 514 816 514 849 c 0,3,4
 514 879 514 879 495.5 899 c 128,-1,5
 477 919 477 919 438 919 c 0,6,7
 402 919 402 919 357.5 904.5 c 128,-1,8
 313 890 313 890 264.5 875 c 128,-1,9
 216 860 216 860 168 860 c 0,10,11
 128 860 128 860 87 878 c 128,-1,12
 46 896 46 896 23 946 c 1,13,-1
 89 987 l 1,14,15
 105 958 105 958 128.5 946 c 128,-1,16
 152 934 152 934 179 934 c 0,17,18
 205 934 205 934 238 942.5 c 128,-1,19
 271 951 271 951 308 963 c 128,-1,20
 345 975 345 975 382.5 983.5 c 128,-1,21
 420 992 420 992 455 992 c 0,22,23
 524 992 524 992 558.5 954.5 c 128,-1,24
 593 917 593 917 593 865 c 0,25,26
 593 819 593 819 566.5 769.5 c 128,-1,27
 540 720 540 720 486 679 c 1,28,-1
 426 709 l 1,0,1
EndSplineSet
EndChar

StartChar: uni0B57
Encoding: 2903 2903 76
Width: 201
Flags: W
HStem: 860 74<-270.915 -99.6035> 919 73<-50.1708 109.357>
VStem: 61 78<93 786.518> 127 80<814.669 904.115>
LayerCount: 2
Fore
SplineSet
61 787 m 1,0,1
 93 799 93 799 110 819 c 128,-1,2
 127 839 127 839 127 862 c 0,3,4
 127 889 127 889 106.5 904 c 128,-1,5
 86 919 86 919 51 919 c 0,6,7
 17 919 17 919 -27.5 904.5 c 128,-1,8
 -72 890 -72 890 -120.5 875 c 128,-1,9
 -169 860 -169 860 -218 860 c 0,10,11
 -258 860 -258 860 -298.5 878 c 128,-1,12
 -339 896 -339 896 -362 946 c 1,13,-1
 -296 987 l 1,14,15
 -280 958 -280 958 -256.5 946 c 128,-1,16
 -233 934 -233 934 -207 934 c 0,17,18
 -180 934 -180 934 -147 942.5 c 128,-1,19
 -114 951 -114 951 -77 963 c 128,-1,20
 -40 975 -40 975 -2.5 983.5 c 128,-1,21
 35 992 35 992 71 992 c 0,22,23
 134 992 134 992 170.5 960 c 128,-1,24
 207 928 207 928 207 878 c 0,25,26
 207 812 207 812 139 772 c 1,27,-1
 139 93 l 1,28,-1
 61 93 l 1,29,-1
 61 787 l 1,0,1
EndSplineSet
EndChar

StartChar: uni0B4D
Encoding: 2893 2893 77
Width: 0
GlyphClass: 4
Flags: W
HStem: -119 179
VStem: 20 159
AnchorPoint: "+BBEENQQ3BEsEPARPBD0EPQQ+BDUA--8" 24 93 mark 0
AnchorPoint: "+BBEENQQ3BEsEPARPBD0EPQQ+BDUA--3" 24 93 mark 0
LayerCount: 2
Fore
SplineSet
72 60 m 1,0,-1
 179 -84 l 1,1,-1
 132 -119 l 1,2,-1
 20 23 l 1,3,-1
 72 60 l 1,0,-1
EndSplineSet
EndChar

StartChar: uni0B5F
Encoding: 2911 2911 78
Width: 848
GlyphClass: 2
Flags: W
HStem: 85 73<335.71 476.667> 686 73<267.12 494.834>
VStem: 24 119<139.018 220.753> 76 79<428.559 589.177> 218 76<200.628 335.861> 645 78<323.713 560.063 640 751> 737 79<161.212 246.792>
AnchorPoint: "+BBEENQQ3BEsEPARPBD0EPQQ+BDUA--4" 684 93 basechar 0
AnchorPoint: "+BBEENQQ3BEsEPARPBD0EPQQ+BDUA--3" 383 93 basechar 0
AnchorPoint: "+BBEENQQ3BEsEPARPBD0EPQQ+BDUA--1" 388 751 basechar 0
AnchorPoint: "+BBEENQQ3BEsEPARPBD0EPQQ+BDUA--0" 684 751 basechar 0
LayerCount: 2
Fore
SplineSet
400 85 m 0,0,1
 344 85 344 85 303 109.5 c 128,-1,2
 262 134 262 134 240 175.5 c 128,-1,3
 218 217 218 217 218 267 c 0,4,5
 218 304 218 304 230 337 c 1,6,7
 191 311 191 311 159 283 c 128,-1,8
 127 255 127 255 107 230 c 1,9,10
 126 221 126 221 134.5 206.5 c 128,-1,11
 143 192 143 192 143 176 c 0,12,13
 143 151 143 151 126 136.5 c 128,-1,14
 109 122 109 122 86 122 c 0,15,16
 61 122 61 122 42.5 138.5 c 128,-1,17
 24 155 24 155 24 183 c 0,18,19
 24 216 24 216 56.5 263 c 128,-1,20
 89 310 89 310 151 359 c 1,21,22
 114 391 114 391 95 433.5 c 128,-1,23
 76 476 76 476 76 523 c 0,24,25
 76 580 76 580 100 624 c 128,-1,26
 124 668 124 668 165.5 698 c 128,-1,27
 207 728 207 728 259.5 743.5 c 128,-1,28
 312 759 312 759 369 759 c 0,29,30
 448 759 448 759 522.5 729.5 c 128,-1,31
 597 700 597 700 648 640 c 1,32,-1
 645 751 l 1,33,-1
 723 751 l 1,34,-1
 723 330 l 1,35,36
 766 321 766 321 791 290.5 c 128,-1,37
 816 260 816 260 816 221 c 0,38,39
 816 187 816 187 795.5 155.5 c 128,-1,40
 775 124 775 124 733 107 c 1,41,-1
 820 83 l 1,42,-1
 803 28 l 1,43,-1
 606 83 l 1,44,-1
 622 132 l 1,45,46
 678 132 678 132 707.5 154.5 c 128,-1,47
 737 177 737 177 737 208 c 0,48,49
 737 230 737 230 721 245 c 128,-1,50
 705 260 705 260 678 260 c 0,51,52
 649 260 649 260 627.5 242.5 c 128,-1,53
 606 225 606 225 586 198.5 c 128,-1,54
 566 172 566 172 542 146 c 128,-1,55
 518 120 518 120 484 102.5 c 128,-1,56
 450 85 450 85 400 85 c 0,0,1
294 269 m 0,57,58
 294 222 294 222 324.5 190 c 128,-1,59
 355 158 355 158 405 158 c 0,60,61
 439 158 439 158 464 172 c 128,-1,62
 489 186 489 186 509.5 207.5 c 128,-1,63
 530 229 530 229 550 252.5 c 128,-1,64
 570 276 570 276 593 295.5 c 128,-1,65
 616 315 616 315 645 325 c 1,66,-1
 645 510 l 1,67,68
 627 570 627 570 585 609 c 128,-1,69
 543 648 543 648 488.5 667 c 128,-1,70
 434 686 434 686 379 686 c 0,71,72
 317 686 317 686 266.5 664 c 128,-1,73
 216 642 216 642 185.5 602 c 128,-1,74
 155 562 155 562 155 509 c 0,75,76
 155 443 155 443 202 396 c 1,77,78
 241 421 241 421 288.5 445 c 128,-1,79
 336 469 336 469 392 490 c 1,80,-1
 420 426 l 1,81,82
 358 404 358 404 326 359.5 c 128,-1,83
 294 315 294 315 294 269 c 0,57,58
EndSplineSet
EndChar

StartChar: omoriya
Encoding: 65541 -1 79
Width: 930
Flags: W
HStem: 86 65<324.141 543.035> 689 61<418.276 564.271> 773 65<602.41 799.265> 827 69<315.052 552.043> 912 74<680.86 736.655>
VStem: 73 76<342.715 636.41> 307 71<514.435 650.353> 604 74<516.033 649.252> 613 75<209.347 340.141> 669 79<922.314 975.171> 842 72<885.416 971.583>
LayerCount: 2
Fore
SplineSet
748 949 m 0,0,1
 748 932 748 932 737 922 c 128,-1,2
 726 912 726 912 709 912 c 0,3,4
 691 912 691 912 680 922 c 128,-1,5
 669 932 669 932 669 949 c 256,6,7
 669 966 669 966 680.5 976 c 128,-1,8
 692 986 692 986 708 986 c 0,9,10
 726 986 726 986 737 975.5 c 128,-1,11
 748 965 748 965 748 949 c 0,0,1
914 971 m 1,12,13
 907 869 907 869 865 821 c 128,-1,14
 823 773 823 773 736 773 c 0,15,16
 681 773 681 773 630.5 786.5 c 128,-1,17
 580 800 580 800 530 813.5 c 128,-1,18
 480 827 480 827 426 827 c 0,19,20
 338 827 338 827 276 784 c 128,-1,21
 214 741 214 741 181.5 665 c 128,-1,22
 149 589 149 589 149 490 c 0,23,24
 149 381 149 381 186.5 305.5 c 128,-1,25
 224 230 224 230 289 190.5 c 128,-1,26
 354 151 354 151 437 151 c 0,27,28
 513 151 513 151 563 183.5 c 128,-1,29
 613 216 613 216 613 276 c 0,30,31
 613 324 613 324 579.5 352.5 c 128,-1,32
 546 381 546 381 489 381 c 0,33,34
 464 381 464 381 436.5 376 c 128,-1,35
 409 371 409 371 380 359 c 1,36,-1
 355 418 l 1,37,38
 389 430 389 430 406 435 c 128,-1,39
 423 440 423 440 445 447 c 0,40,41
 528 472 528 472 566 500.5 c 128,-1,42
 604 529 604 529 604 581 c 0,43,44
 604 631 604 631 573 660 c 128,-1,45
 542 689 542 689 491 689 c 0,46,47
 443 689 443 689 410.5 661.5 c 128,-1,48
 378 634 378 634 378 582 c 0,49,50
 378 567 378 567 381.5 550 c 128,-1,51
 385 533 385 533 394 518 c 1,52,-1
 329 503 l 1,53,54
 307 542 307 542 307 591 c 0,55,56
 307 641 307 641 332.5 676.5 c 128,-1,57
 358 712 358 712 400 731 c 128,-1,58
 442 750 442 750 492 750 c 0,59,60
 544 750 544 750 586.5 730.5 c 128,-1,61
 629 711 629 711 653.5 674.5 c 128,-1,62
 678 638 678 638 678 588 c 0,63,64
 678 533 678 533 645.5 494 c 128,-1,65
 613 455 613 455 553 430 c 1,66,67
 614 417 614 417 651 374.5 c 128,-1,68
 688 332 688 332 688 272 c 0,69,70
 688 215 688 215 656 173 c 128,-1,71
 624 131 624 131 568 108.5 c 128,-1,72
 512 86 512 86 440 86 c 0,73,74
 332 86 332 86 249 135.5 c 128,-1,75
 166 185 166 185 119.5 276 c 128,-1,76
 73 367 73 367 73 493 c 0,77,78
 73 612 73 612 114.5 703 c 128,-1,79
 156 794 156 794 232 845 c 128,-1,80
 308 896 308 896 412 896 c 0,81,82
 473 896 473 896 526 881.5 c 128,-1,83
 579 867 579 867 627 852.5 c 128,-1,84
 675 838 675 838 723 838 c 0,85,86
 785 838 785 838 811.5 871.5 c 128,-1,87
 838 905 838 905 842 977 c 1,88,-1
 914 971 l 1,12,13
EndSplineSet
EndChar

StartChar: uni0B300B4D
Encoding: 65542 -1 82
Width: 0
GlyphClass: 4
Flags: W
HStem: 758 306
VStem: 198 230
AnchorPoint: "+BBEENQQ3BEsEPARPBD0EPQQ+BDUA--5" 358 751 mark 0
AnchorPoint: "+BBEENQQ3BEsEPARPBD0EPQQ+BDUA--0" 358 751 mark 0
LayerCount: 2
Fore
SplineSet
208 876 m 1,0,-1
 198 901 l 1,1,-1
 391 1064 l 1,2,-1
 428 1020 l 1,3,-1
 276 894 l 1,4,-1
 393 801 l 1,5,-1
 358 758 l 1,6,-1
 208 876 l 1,0,-1
EndSplineSet
Ligature2: "'rphf' Reph Form in Oriya2 lookup 4 subtable" uni0B30 uni0B4D
EndChar

StartChar: uni0B70
Encoding: 2928 2928 83
Width: 632
Flags: W
HStem: 248 73<201.694 337.034> 563 96<256.439 323.076>
VStem: 43 73<454.776 552.055> 242 95<576.924 651.18> 527 73<692.297 772.438>
LayerCount: 2
Fore
SplineSet
600 771 m 1,0,1
 570 624 570 624 534 523.5 c 128,-1,2
 498 423 498 423 456.5 362.5 c 128,-1,3
 415 302 415 302 368 275 c 128,-1,4
 321 248 321 248 270 248 c 0,5,6
 209 248 209 248 168 277.5 c 128,-1,7
 127 307 127 307 102 353 c 128,-1,8
 77 399 77 399 63 451.5 c 128,-1,9
 49 504 49 504 43 551 c 1,10,-1
 116 562 l 1,11,12
 124 501 124 501 140.5 446 c 128,-1,13
 157 391 157 391 187.5 356 c 128,-1,14
 218 321 218 321 269 321 c 0,15,16
 305 321 305 321 339.5 344 c 128,-1,17
 374 367 374 367 406.5 420 c 128,-1,18
 439 473 439 473 469 563 c 128,-1,19
 499 653 499 653 527 786 c 1,20,-1
 600 771 l 1,0,1
289 563 m 0,21,22
 270 563 270 563 256 576.5 c 128,-1,23
 242 590 242 590 242 611 c 0,24,25
 242 630 242 630 256 644.5 c 128,-1,26
 270 659 270 659 289 659 c 0,27,28
 309 659 309 659 323 644.5 c 128,-1,29
 337 630 337 630 337 611 c 0,30,31
 337 589 337 589 323.5 576 c 128,-1,32
 310 563 310 563 289 563 c 0,21,22
EndSplineSet
EndChar

StartChar: uni0964
Encoding: 2404 2404 84
Width: 246
Flags: W
VStem: 84 78<93 751>
LayerCount: 2
Fore
SplineSet
162 751 m 1,0,-1
 162 93 l 1,1,-1
 84 93 l 1,2,-1
 84 751 l 1,3,-1
 162 751 l 1,0,-1
EndSplineSet
EndChar

StartChar: uni0965
Encoding: 2405 2405 85
Width: 459
Flags: W
VStem: 84 75<93 751> 301 74<93 751>
LayerCount: 2
Fore
SplineSet
159 751 m 1,0,-1
 159 93 l 1,1,-1
 84 93 l 1,2,-1
 84 751 l 1,3,-1
 159 751 l 1,0,-1
375 751 m 1,4,-1
 375 93 l 1,5,-1
 301 93 l 1,6,-1
 301 751 l 1,7,-1
 375 751 l 1,4,-1
EndSplineSet
EndChar

StartChar: uni0B66
Encoding: 2918 2918 86
Width: 563
Flags: W
HStem: 159 73<186.366 375.854> 587 73<186.366 375.854>
VStem: 21 80<317.833 501.393> 462 79<317.833 501.393>
LayerCount: 2
Fore
SplineSet
281 159 m 256,0,1
 202 159 202 159 144 190 c 128,-1,2
 86 221 86 221 53.5 277 c 128,-1,3
 21 333 21 333 21 410 c 0,4,5
 21 486 21 486 53.5 542.5 c 128,-1,6
 86 599 86 599 144 629.5 c 128,-1,7
 202 660 202 660 281 660 c 256,8,9
 360 660 360 660 418.5 629.5 c 128,-1,10
 477 599 477 599 509 542.5 c 128,-1,11
 541 486 541 486 541 410 c 0,12,13
 541 333 541 333 509 277 c 128,-1,14
 477 221 477 221 418.5 190 c 128,-1,15
 360 159 360 159 281 159 c 256,0,1
281 587 m 256,16,17
 200 587 200 587 150.5 538.5 c 128,-1,18
 101 490 101 490 101 410 c 0,19,20
 101 329 101 329 150.5 280.5 c 128,-1,21
 200 232 200 232 281 232 c 256,22,23
 362 232 362 232 412 280.5 c 128,-1,24
 462 329 462 329 462 410 c 0,25,26
 462 490 462 490 412 538.5 c 128,-1,27
 362 587 362 587 281 587 c 256,16,17
EndSplineSet
Substitution2: "'ss02' Style Set 2 in Oriya2 lookup 25 subtable" zero
Substitution2: "'aalt' +BBIEQQQ1 +BDAEOwRMBEIENQRABD0EMARCBDgEMgQ9BEsENQAA +BDIEMARABDgEMAQ9BEIESwAA in Oriya2 lookup 0 subtable" zero
EndChar

StartChar: uni0B67
Encoding: 2919 2919 87
Width: 563
Flags: W
HStem: 85 74<398.322 453.081> 389 69<200.588 377.073> 686 73<234.476 386.486>
VStem: 431 80<508.017 643.086>
LayerCount: 2
Fore
SplineSet
451 85 m 1,0,1
 332 113 332 113 246 168 c 128,-1,2
 160 223 160 223 114 301.5 c 128,-1,3
 68 380 68 380 68 478 c 0,4,5
 68 566 68 566 103.5 629 c 128,-1,6
 139 692 139 692 196 725.5 c 128,-1,7
 253 759 253 759 319 759 c 0,8,9
 371 759 371 759 414.5 737.5 c 128,-1,10
 458 716 458 716 484.5 676 c 128,-1,11
 511 636 511 636 511 581 c 256,12,13
 511 526 511 526 484 482.5 c 128,-1,14
 457 439 457 439 409.5 414 c 128,-1,15
 362 389 362 389 301 389 c 0,16,17
 263 389 263 389 223.5 401 c 128,-1,18
 184 413 184 413 151 438 c 1,19,20
 165 342 165 342 244 267.5 c 128,-1,21
 323 193 323 193 473 159 c 1,22,-1
 451 85 l 1,0,1
312 686 m 0,23,24
 248 686 248 686 203 639 c 128,-1,25
 158 592 158 592 149 515 c 1,26,27
 183 485 183 485 220 471.5 c 128,-1,28
 257 458 257 458 293 458 c 0,29,30
 354 458 354 458 392.5 490.5 c 128,-1,31
 431 523 431 523 431 578 c 0,32,33
 431 627 431 627 396.5 656.5 c 128,-1,34
 362 686 362 686 312 686 c 0,23,24
EndSplineSet
Substitution2: "'ss02' Style Set 2 in Oriya2 lookup 25 subtable" one
Substitution2: "'aalt' +BBIEQQQ1 +BDAEOwRMBEIENQRABD0EMARCBDgEMgQ9BEsENQAA +BDIEMARABDgEMAQ9BEIESwAA in Oriya2 lookup 0 subtable" one
EndChar

StartChar: uni0B69
Encoding: 2921 2921 89
Width: 563
Flags: W
HStem: 310 69<130.886 237.343> 512 55<111.537 238.376> 690 70<131.567 233.275 348.117 440.111>
VStem: 19 72<533 641.188> 256 73<93 331 397.566 493.435 545 662.151> 458 78<93 673.202>
LayerCount: 2
Fore
SplineSet
329 593 m 2,0,-1
 329 93 l 1,1,-1
 255 93 l 1,2,-1
 255 331 l 1,3,4
 225 310 225 310 184 310 c 0,5,6
 141 310 141 310 103 333 c 128,-1,7
 65 356 65 356 42 406 c 128,-1,8
 19 456 19 456 19 535 c 0,9,10
 19 636 19 636 63 698 c 128,-1,11
 107 760 107 760 185 760 c 0,12,13
 258 760 258 760 294 706 c 1,14,15
 329 760 329 760 401 760 c 0,16,17
 456 760 456 760 485 733.5 c 128,-1,18
 514 707 514 707 525 666.5 c 128,-1,19
 536 626 536 626 536 583 c 2,20,-1
 536 93 l 1,21,-1
 458 93 l 1,22,-1
 458 591 l 2,23,24
 458 691 458 691 395 691 c 0,25,26
 362 691 362 691 345.5 665 c 128,-1,27
 329 639 329 639 329 593 c 2,0,-1
185 690 m 0,28,29
 140 690 140 690 115.5 647 c 128,-1,30
 91 604 91 604 91 533 c 1,31,32
 138 567 138 567 189 567 c 0,33,34
 228 567 228 567 256 545 c 1,35,-1
 256 589 l 2,36,37
 256 636 256 636 238 663 c 128,-1,38
 220 690 220 690 185 690 c 0,28,29
187 379 m 0,39,40
 216 379 216 379 236 397 c 128,-1,41
 256 415 256 415 256 446 c 0,42,43
 256 476 256 476 237 494 c 128,-1,44
 218 512 218 512 185 512 c 0,45,46
 164 512 164 512 140.5 504 c 128,-1,47
 117 496 117 496 94 478 c 1,48,49
 104 423 104 423 130 401 c 128,-1,50
 156 379 156 379 187 379 c 0,39,40
EndSplineSet
Substitution2: "'ss02' Style Set 2 in Oriya2 lookup 25 subtable" three
Substitution2: "'aalt' +BBIEQQQ1 +BDAEOwRMBEIENQRABD0EMARCBDgEMgQ9BEsENQAA +BDIEMARABDgEMAQ9BEIESwAA in Oriya2 lookup 0 subtable" three
EndChar

StartChar: uni0B6A
Encoding: 2922 2922 90
Width: 563
Flags: W
HStem: 85 73<201.029 357.831>
VStem: 13 76<687.377 749.013> 72 80<203.59 339.063> 408 80<203.949 338.533> 476 74<685.645 749.946>
LayerCount: 2
Fore
SplineSet
89 759 m 1,0,1
 99 701 99 701 125 660 c 0,2,3
 154 612 154 612 196.5 576 c 128,-1,4
 239 540 239 540 285 509 c 1,5,6
 329 538 329 538 370 572.5 c 128,-1,7
 411 607 411 607 439 655 c 0,8,9
 466 701 466 701 476 759 c 1,10,-1
 550 749 l 1,11,12
 539 679 539 679 507 628 c 128,-1,13
 475 577 475 577 431.5 539 c 128,-1,14
 388 501 388 501 342 470 c 1,15,16
 382 443 382 443 415 413.5 c 128,-1,17
 448 384 448 384 468 347.5 c 128,-1,18
 488 311 488 311 488 262 c 0,19,20
 488 208 488 208 461.5 168 c 128,-1,21
 435 128 435 128 388 106.5 c 128,-1,22
 341 85 341 85 280 85 c 0,23,24
 226 85 226 85 178.5 103.5 c 128,-1,25
 131 122 131 122 101.5 161 c 128,-1,26
 72 200 72 200 72 260 c 0,27,28
 72 311 72 311 93 348 c 128,-1,29
 114 385 114 385 148 414 c 128,-1,30
 182 443 182 443 223 469 c 1,31,32
 178 501 178 501 134 539.5 c 128,-1,33
 90 578 90 578 57.5 628.5 c 128,-1,34
 25 679 25 679 13 748 c 1,35,-1
 89 759 l 1,0,1
152 270 m 0,36,37
 152 220 152 220 188 189 c 128,-1,38
 224 158 224 158 279 158 c 0,39,40
 331 158 331 158 369.5 187.5 c 128,-1,41
 408 217 408 217 408 269 c 0,42,43
 408 320 408 320 371 357 c 128,-1,44
 334 394 334 394 281 430 c 1,45,46
 227 394 227 394 189.5 357.5 c 128,-1,47
 152 321 152 321 152 270 c 0,36,37
EndSplineSet
Substitution2: "'ss02' Style Set 2 in Oriya2 lookup 25 subtable" four
Substitution2: "'aalt' +BBIEQQQ1 +BDAEOwRMBEIENQRABD0EMARCBDgEMgQ9BEsENQAA +BDIEMARABDgEMAQ9BEIESwAA in Oriya2 lookup 0 subtable" four
EndChar

StartChar: uni0B6B
Encoding: 2923 2923 91
Width: 563
Flags: W
HStem: 85 73<180.536 320.938> 687 72<248.825 383.918>
VStem: 68 76<192.555 309.196> 138 74<527.934 651.746> 357 74<191.602 316.395> 420 76<522.3 653.278>
LayerCount: 2
Fore
SplineSet
249 85 m 0,0,1
 199 85 199 85 158 103 c 128,-1,2
 117 121 117 121 92.5 156 c 128,-1,3
 68 191 68 191 68 242 c 0,4,5
 68 336 68 336 194 402 c 1,6,7
 142 411 142 411 93 429 c 128,-1,8
 44 447 44 447 0 488 c 1,9,-1
 43 536 l 1,10,11
 85 498 85 498 130.5 480 c 128,-1,12
 176 462 176 462 223 453 c 1,13,14
 138 528 138 528 138 605 c 0,15,16
 138 654 138 654 162.5 688.5 c 128,-1,17
 187 723 187 723 228 741 c 128,-1,18
 269 759 269 759 319 759 c 0,19,20
 367 759 367 759 407 741 c 128,-1,21
 447 723 447 723 471.5 688 c 128,-1,22
 496 653 496 653 496 603 c 0,23,24
 496 552 496 552 466.5 510 c 128,-1,25
 437 468 437 468 374 431 c 1,26,27
 424 422 424 422 472 403 c 128,-1,28
 520 384 520 384 563 342 c 1,29,-1
 522 295 l 1,30,31
 483 330 483 330 441.5 348.5 c 128,-1,32
 400 367 400 367 357 377 c 1,33,34
 396 342 396 342 413.5 309 c 128,-1,35
 431 276 431 276 431 240 c 0,36,37
 431 191 431 191 406 156.5 c 128,-1,38
 381 122 381 122 339.5 103.5 c 128,-1,39
 298 85 298 85 249 85 c 0,0,1
212 589 m 0,40,41
 212 519 212 519 303 447 c 1,42,43
 364 480 364 480 392 514 c 128,-1,44
 420 548 420 548 420 589 c 0,45,46
 420 638 420 638 388 662.5 c 128,-1,47
 356 687 356 687 316 687 c 0,48,49
 277 687 277 687 244.5 662 c 128,-1,50
 212 637 212 637 212 589 c 0,40,41
144 255 m 0,51,52
 144 206 144 206 177.5 182 c 128,-1,53
 211 158 211 158 251 158 c 256,54,55
 291 158 291 158 324 181.5 c 128,-1,56
 357 205 357 205 357 253 c 0,57,58
 357 282 357 282 336 315.5 c 128,-1,59
 315 349 315 349 274 382 c 1,60,61
 212 357 212 357 178 323.5 c 128,-1,62
 144 290 144 290 144 255 c 0,51,52
EndSplineSet
Substitution2: "'ss02' Style Set 2 in Oriya2 lookup 25 subtable" five
Substitution2: "'aalt' +BBIEQQQ1 +BDAEOwRMBEIENQRABD0EMARCBDgEMgQ9BEsENQAA +BDIEMARABDgEMAQ9BEIESwAA in Oriya2 lookup 0 subtable" five
EndChar

StartChar: uni0B6C
Encoding: 2924 2924 92
Width: 563
Flags: W
HStem: 85 77<80.6364 160.63> 312 62<130.793 247.696> 694 65<222.789 361.415>
VStem: 127 79<593.33 678.374> 268 73<392.277 492.022> 460 80<363.101 579.895>
LayerCount: 2
Fore
SplineSet
78 473 m 1,0,1
 100 420 100 420 129 397 c 128,-1,2
 158 374 158 374 191 374 c 0,3,4
 223 374 223 374 245.5 391.5 c 128,-1,5
 268 409 268 409 268 443 c 0,6,7
 268 467 268 467 253.5 484 c 128,-1,8
 239 501 239 501 212 522 c 0,9,10
 171 553 171 553 149 581 c 128,-1,11
 127 609 127 609 127 647 c 0,12,13
 127 700 127 700 168 729.5 c 128,-1,14
 209 759 209 759 278 759 c 0,15,16
 353 759 353 759 412.5 723 c 128,-1,17
 472 687 472 687 506 622.5 c 128,-1,18
 540 558 540 558 540 471 c 0,19,20
 540 322 540 322 431 225 c 128,-1,21
 322 128 322 128 82 85 c 1,22,-1
 67 162 l 1,23,24
 271 199 271 199 365.5 272 c 128,-1,25
 460 345 460 345 460 468 c 0,26,27
 460 532 460 532 437 583 c 128,-1,28
 414 634 414 634 374 664 c 128,-1,29
 334 694 334 694 283 694 c 0,30,31
 245 694 245 694 225.5 678 c 128,-1,32
 206 662 206 662 206 637 c 0,33,34
 206 616 206 616 220.5 600.5 c 128,-1,35
 235 585 235 585 260 564 c 0,36,37
 302 529 302 529 321.5 501.5 c 128,-1,38
 341 474 341 474 341 440 c 0,39,40
 341 385 341 385 301 348.5 c 128,-1,41
 261 312 261 312 193 312 c 0,42,43
 136 312 136 312 90 346 c 128,-1,44
 44 380 44 380 21 445 c 1,45,-1
 78 473 l 1,0,1
EndSplineSet
Substitution2: "'ss02' Style Set 2 in Oriya2 lookup 25 subtable" six
Substitution2: "'aalt' +BBIEQQQ1 +BDAEOwRMBEIENQRABD0EMARCBDgEMgQ9BEsENQAA +BDIEMARABDgEMAQ9BEIESwAA in Oriya2 lookup 0 subtable" six
EndChar

StartChar: uni0B6D
Encoding: 2925 2925 93
Width: 563
Flags: W
HStem: 85 78<76.6538 159.094> 326 61<131.654 242.976> 526 55<120.295 243.049> 694 65<182.123 359.867>
VStem: 263 72<408.124 504.922> 460 80<378.817 591.903>
LayerCount: 2
Fore
SplineSet
540 484 m 0,0,1
 540 335 540 335 426.5 232 c 128,-1,2
 313 129 313 129 78 85 c 1,3,-1
 63 163 l 1,4,5
 269 200 269 200 364.5 281 c 128,-1,6
 460 362 460 362 460 485 c 0,7,8
 460 557 460 557 432.5 603 c 128,-1,9
 405 649 405 649 361.5 671.5 c 128,-1,10
 318 694 318 694 271 694 c 0,11,12
 226 694 226 694 188 675.5 c 128,-1,13
 150 657 150 657 125 622 c 128,-1,14
 100 587 100 587 95 537 c 1,15,16
 134 581 134 581 198 581 c 0,17,18
 264 581 264 581 299.5 544 c 128,-1,19
 335 507 335 507 335 455 c 0,20,21
 335 401 335 401 296 363.5 c 128,-1,22
 257 326 257 326 193 326 c 0,23,24
 150 326 150 326 112 348.5 c 128,-1,25
 74 371 74 371 50.5 414.5 c 128,-1,26
 27 458 27 458 27 521 c 0,27,28
 27 599 27 599 62.5 652 c 128,-1,29
 98 705 98 705 155 732 c 128,-1,30
 212 759 212 759 276 759 c 0,31,32
 346 759 346 759 406 727.5 c 128,-1,33
 466 696 466 696 503 634.5 c 128,-1,34
 540 573 540 573 540 484 c 0,0,1
187 526 m 0,35,36
 159 526 159 526 135.5 514 c 128,-1,37
 112 502 112 502 96 480 c 1,38,39
 103 434 103 434 129.5 410.5 c 128,-1,40
 156 387 156 387 188 387 c 0,41,42
 225 387 225 387 244 409 c 128,-1,43
 263 431 263 431 263 457 c 256,44,45
 263 483 263 483 243.5 504.5 c 128,-1,46
 224 526 224 526 187 526 c 0,35,36
EndSplineSet
Substitution2: "'ss02' Style Set 2 in Oriya2 lookup 25 subtable" seven
Substitution2: "'aalt' +BBIEQQQ1 +BDAEOwRMBEIENQRABD0EMARCBDgEMgQ9BEsENQAA +BDIEMARABDgEMAQ9BEIESwAA in Oriya2 lookup 0 subtable" seven
EndChar

StartChar: uni0B6E
Encoding: 2926 2926 94
Width: 563
Flags: W
HStem: 678 73<175 528>
VStem: 97 78<93 678>
LayerCount: 2
Fore
SplineSet
97 751 m 1,0,-1
 528 751 l 1,1,-1
 528 678 l 1,2,-1
 175 678 l 1,3,-1
 175 93 l 1,4,-1
 97 93 l 1,5,-1
 97 751 l 1,0,-1
EndSplineSet
Substitution2: "'ss02' Style Set 2 in Oriya2 lookup 25 subtable" eight
Substitution2: "'aalt' +BBIEQQQ1 +BDAEOwRMBEIENQRABD0EMARCBDgEMgQ9BEsENQAA +BDIEMARABDgEMAQ9BEIESwAA in Oriya2 lookup 0 subtable" eight
EndChar

StartChar: uni0B6F
Encoding: 2927 2927 95
Width: 563
Flags: W
HStem: 85 71<294.678 411>
VStem: 37 80<309.11 527.014> 445 74<504.533 751>
LayerCount: 2
Fore
SplineSet
444 401 m 1,0,-1
 252 660 l 1,1,2
 185 614 185 614 151 553 c 128,-1,3
 117 492 117 492 117 420 c 0,4,5
 117 302 117 302 193.5 233 c 128,-1,6
 270 164 270 164 417 156 c 1,7,-1
 411 85 l 1,8,9
 299 88 299 88 215 128.5 c 128,-1,10
 131 169 131 169 84 242.5 c 128,-1,11
 37 316 37 316 37 419 c 0,12,13
 37 525 37 525 96.5 612 c 128,-1,14
 156 699 156 699 272 759 c 1,15,-1
 448 504 l 1,16,17
 446 521 446 521 445.5 546.5 c 128,-1,18
 445 572 445 572 445 596 c 2,19,-1
 445 751 l 1,20,-1
 519 751 l 1,21,-1
 519 413 l 1,22,-1
 444 401 l 1,0,-1
EndSplineSet
Substitution2: "'ss02' Style Set 2 in Oriya2 lookup 25 subtable" nine
Substitution2: "'aalt' +BBIEQQQ1 +BDAEOwRMBEIENQRABD0EMARCBDgEMgQ9BEsENQAA +BDIEMARABDgEMAQ9BEIESwAA in Oriya2 lookup 0 subtable" nine
EndChar

StartChar: uni0B72
Encoding: 2930 2930 96
Width: 218
Flags: W
VStem: 70 78<93 651>
LayerCount: 2
Fore
SplineSet
70 651 m 1,0,-1
 148 651 l 1,1,-1
 148 93 l 1,2,-1
 70 93 l 1,3,-1
 70 651 l 1,0,-1
EndSplineSet
EndChar

StartChar: uni0B73
Encoding: 2931 2931 97
Width: 477
Flags: W
HStem: 337 65<152.697 307.094>
VStem: 44 76<436.25 646.69> 330 78<93 371 424.583 651>
LayerCount: 2
Fore
SplineSet
408 651 m 1,0,-1
 408 93 l 1,1,-1
 330 93 l 1,2,-1
 330 371 l 1,3,4
 303 354 303 354 271 345.5 c 128,-1,5
 239 337 239 337 206 337 c 0,6,7
 124 337 124 337 84 382 c 128,-1,8
 44 427 44 427 44 509 c 0,9,10
 44 539 44 539 49.5 575.5 c 128,-1,11
 55 612 55 612 65 655 c 1,12,-1
 138 648 l 1,13,14
 128 606 128 606 124 572.5 c 128,-1,15
 120 539 120 539 120 515 c 0,16,17
 120 402 120 402 224 402 c 0,18,19
 282 402 282 402 330 439 c 1,20,-1
 330 651 l 1,21,-1
 408 651 l 1,0,-1
EndSplineSet
EndChar

StartChar: uni0B74
Encoding: 2932 2932 98
Width: 674
Flags: W
HStem: 337 65<146.863 262.093 389.208 509.177>
VStem: 44 76<430.34 647.261> 289 76<429.005 651> 526 78<93 366 420.292 651>
LayerCount: 2
Fore
SplineSet
44 508 m 0,0,1
 44 571 44 571 65 654 c 1,2,-1
 138 647 l 1,3,4
 128 605 128 605 124 574 c 128,-1,5
 120 543 120 543 120 516 c 0,6,7
 120 402 120 402 203 402 c 0,8,9
 225 402 225 402 244.5 411 c 128,-1,10
 264 420 264 420 276.5 443 c 128,-1,11
 289 466 289 466 289 507 c 2,12,-1
 289 651 l 1,13,-1
 365 651 l 1,14,-1
 365 515 l 2,15,16
 365 456 365 456 384 429 c 128,-1,17
 403 402 403 402 447 402 c 256,18,19
 491 402 491 402 526 439 c 1,20,-1
 526 651 l 1,21,-1
 604 651 l 1,22,-1
 604 93 l 1,23,-1
 526 93 l 1,24,-1
 526 366 l 1,25,26
 486 337 486 337 434 337 c 0,27,28
 353 337 353 337 318 398 c 1,29,30
 297 366 297 366 263 351.5 c 128,-1,31
 229 337 229 337 191 337 c 0,32,33
 119 337 119 337 81.5 380.5 c 128,-1,34
 44 424 44 424 44 508 c 0,0,1
EndSplineSet
EndChar

StartChar: uni0B75
Encoding: 2933 2933 99
Width: 474
Flags: W
LayerCount: 2
Fore
SplineSet
15 195 m 1,0,1
 82 265 82 265 151 345.5 c 128,-1,2
 220 426 220 426 282.5 505 c 128,-1,3
 345 584 345 584 395 651 c 1,4,-1
 459 597 l 1,5,6
 371 480 371 480 277 364.5 c 128,-1,7
 183 249 183 249 76 138 c 1,8,-1
 15 195 l 1,0,1
EndSplineSet
EndChar

StartChar: uni0B76
Encoding: 2934 2934 100
Width: 549
Flags: W
HStem: 136 51<102.537 187.509> 287 41<95.8202 182.995> 380 61<127.402 266.855>
VStem: 18 67<209.176 280.633> 197 59<196.975 274.246>
LayerCount: 2
Fore
SplineSet
290 108 m 1,0,1
 302 143 302 143 310.5 175 c 128,-1,2
 319 207 319 207 319 239 c 0,3,4
 319 302 319 302 285.5 341 c 128,-1,5
 252 380 252 380 196 380 c 0,6,7
 160 380 160 380 133.5 363 c 128,-1,8
 107 346 107 346 95 317 c 1,9,10
 124 328 124 328 152 328 c 0,11,12
 203 328 203 328 229.5 300 c 128,-1,13
 256 272 256 272 256 233 c 0,14,15
 256 191 256 191 228 163.5 c 128,-1,16
 200 136 200 136 146 136 c 0,17,18
 85 136 85 136 51.5 172.5 c 128,-1,19
 18 209 18 209 18 269 c 0,20,21
 18 316 18 316 39 355.5 c 128,-1,22
 60 395 60 395 99 418 c 128,-1,23
 138 441 138 441 193 441 c 0,24,25
 253 441 253 441 300.5 412.5 c 128,-1,26
 348 384 348 384 367 328 c 1,27,-1
 368 331 l 1,28,-1
 471 649 l 1,29,-1
 542 625 l 1,30,-1
 360 85 l 1,31,-1
 290 108 l 1,0,1
85 267 m 2,32,33
 85 230 85 230 102 208.5 c 128,-1,34
 119 187 119 187 148 187 c 0,35,36
 172 187 172 187 184.5 200 c 128,-1,37
 197 213 197 213 197 234 c 0,38,39
 197 258 197 258 181 272.5 c 128,-1,40
 165 287 165 287 139 287 c 0,41,42
 114 287 114 287 85 272 c 1,43,-1
 85 267 l 2,32,33
EndSplineSet
EndChar

StartChar: uni0B77
Encoding: 2935 2935 101
Width: 650
Flags: W
HStem: 82 21G<30 108 394 467.728> 285 61<108.074 201.03 301.464 390.979>
VStem: 18 71<91.9075 263.98> 218 67<93 267.981>
LayerCount: 2
Fore
SplineSet
42 82 m 1,0,1
 18 148 18 148 18 201 c 0,2,3
 18 270 18 270 52 308 c 128,-1,4
 86 346 86 346 144 346 c 0,5,6
 219 346 219 346 251 287 c 1,7,8
 282 346 282 346 354 346 c 0,9,10
 425 346 425 346 455 288 c 1,11,12
 461 307 461 307 468 330 c 2,13,-1
 572 649 l 1,14,-1
 643 625 l 1,15,-1
 461 84 l 1,16,-1
 394 94 l 1,17,18
 401 116 401 116 406 143 c 128,-1,19
 411 170 411 170 411 195 c 0,20,21
 411 236 411 236 393.5 260.5 c 128,-1,22
 376 285 376 285 346 285 c 0,23,24
 322 285 322 285 303.5 269 c 128,-1,25
 285 253 285 253 285 223 c 2,26,-1
 285 93 l 1,27,-1
 218 93 l 1,28,-1
 218 221 l 2,29,30
 218 252 218 252 199.5 268.5 c 128,-1,31
 181 285 181 285 155 285 c 0,32,33
 123 285 123 285 106 261.5 c 128,-1,34
 89 238 89 238 89 199 c 0,35,36
 89 147 89 147 108 94 c 1,37,-1
 42 82 l 1,0,1
EndSplineSet
EndChar

StartChar: uni200C
Encoding: 8204 8204 103
Width: 0
Flags: W
VStem: -26 52<-73 881>
LayerCount: 2
Fore
SplineSet
26 881 m 1,0,-1
 26 -73 l 1,1,-1
 -26 -73 l 1,2,-1
 -26 881 l 1,3,-1
 26 881 l 1,0,-1
EndSplineSet
EndChar

StartChar: uni200D
Encoding: 8205 8205 104
Width: 0
Flags: W
VStem: -26 52<-72 678>
LayerCount: 2
Fore
SplineSet
109 596 m 1,0,-1
 26 678 l 1,1,-1
 26 -72 l 1,2,-1
 -26 -72 l 1,3,-1
 -26 678 l 1,4,-1
 -109 596 l 1,5,-1
 -146 632 l 1,6,-1
 -36 739 l 1,7,-1
 -146 845 l 1,8,-1
 -109 881 l 1,9,-1
 0 773 l 1,10,-1
 109 881 l 1,11,-1
 146 844 l 1,12,-1
 36 739 l 1,13,-1
 146 632 l 1,14,-1
 109 596 l 1,0,-1
EndSplineSet
EndChar

StartChar: uni25CC
Encoding: 9676 9676 105
Width: 473
Flags: W
HStem: 224 58<204.554 261.407> 274 58<75.5537 131.427 333.573 391.407> 399 57<29.5933 86.4463 378.593 436.427> 524 57<75.5537 131.427 333.573 391.407> 573 57<204.554 261.407>
VStem: 29 58<399.708 455.316> 75 57<274.573 331.427 524.573 580.446> 204 58<224.708 281.292 573.708 629.316> 333 59<274.708 331.292 524.708 580.316> 378 59<399.708 455.316>
AnchorPoint: "+BBEENQQ3BEsEPARPBD0EPQQ+BDUA--3" 266 93 basechar 0
AnchorPoint: "+BBEENQQ3BEsEPARPBD0EPQQ+BDUA--4" 278 93 basechar 0
AnchorPoint: "+BBEENQQ3BEsEPARPBD0EPQQ+BDUA--2" 237 -19 mark 0
AnchorPoint: "+BBEENQQ3BEsEPARPBD0EPQQ+BDUA--6" 237 -19 mark 0
AnchorPoint: "+BBEENQQ3BEsEPARPBD0EPQQ+BDUA--0" 436 751 basechar 0
AnchorPoint: "+BBEENQQ3BEsEPARPBD0EPQQ+BDUA--1" 234 751 basechar 0
LayerCount: 2
Fore
SplineSet
262 602 m 0,0,1
 262 573 262 573 232 573 c 0,2,3
 204 573 204 573 204 602 c 0,4,5
 204 630 204 630 232 630 c 0,6,7
 262 630 262 630 262 602 c 0,0,1
132 553 m 0,8,9
 132 524 132 524 103 524 c 0,10,11
 75 524 75 524 75 553 c 0,12,13
 75 581 75 581 103 581 c 0,14,15
 132 581 132 581 132 553 c 0,8,9
392 553 m 0,16,17
 392 524 392 524 362 524 c 0,18,19
 333 524 333 524 333 553 c 0,20,21
 333 581 333 581 362 581 c 0,22,23
 392 581 392 581 392 553 c 0,16,17
437 428 m 0,24,25
 437 399 437 399 408 399 c 0,26,27
 378 399 378 399 378 428 c 0,28,29
 378 456 378 456 408 456 c 0,30,31
 437 456 437 456 437 428 c 0,24,25
87 428 m 0,32,33
 87 399 87 399 59 399 c 0,34,35
 29 399 29 399 29 428 c 0,36,37
 29 456 29 456 59 456 c 0,38,39
 87 456 87 456 87 428 c 0,32,33
132 303 m 256,40,41
 132 274 132 274 103 274 c 0,42,43
 75 274 75 274 75 303 c 256,44,45
 75 332 75 332 103 332 c 0,46,47
 132 332 132 332 132 303 c 256,40,41
392 303 m 256,48,49
 392 274 392 274 362 274 c 0,50,51
 333 274 333 274 333 303 c 256,52,53
 333 332 333 332 362 332 c 0,54,55
 392 332 392 332 392 303 c 256,48,49
262 253 m 256,56,57
 262 224 262 224 232 224 c 0,58,59
 204 224 204 224 204 253 c 256,60,61
 204 282 204 282 232 282 c 0,62,63
 262 282 262 282 262 253 c 256,56,57
EndSplineSet
EndChar

StartChar: karaoriya
Encoding: 65543 -1 106
Width: 752
GlyphClass: 2
Flags: W
HStem: -69 66<112 496> 167 61<197.481 292.233> 386 62<197.209 292.97 394.77 483.639> 686 73<239.372 497.533>
VStem: 32 76<411.825 578.567> 114 64<249.669 336.106> 304 78<93 183> 312 70<251.721 362.794> 496 78<-3 375.547> 640 80<401.272 572.619>
AnchorPoint: "+BBEENQQ3BEsEPARPBD0EPQQ+BDUA--1" 367 751 basechar 0
AnchorPoint: "+BBEENQQ3BEsEPARPBD0EPQQ+BDUA--0" 624 751 basechar 0
LayerCount: 2
Fore
SplineSet
244 167 m 0,0,1
 184 167 184 167 149 206 c 128,-1,2
 114 245 114 245 114 307 c 0,3,4
 114 316 114 316 115 324 c 1,5,6
 73 365 73 365 52.5 409.5 c 128,-1,7
 32 454 32 454 32 504 c 0,8,9
 32 581 32 581 77 638.5 c 128,-1,10
 122 696 122 696 198 727.5 c 128,-1,11
 274 759 274 759 367 759 c 0,12,13
 434 759 434 759 497 742 c 128,-1,14
 560 725 560 725 610.5 691 c 128,-1,15
 661 657 661 657 690.5 606 c 128,-1,16
 720 555 720 555 720 488 c 0,17,18
 720 446 720 446 707.5 409.5 c 128,-1,19
 695 373 695 373 671 343 c 1,20,-1
 600 374 l 1,21,22
 619 397 619 397 629.5 426 c 128,-1,23
 640 455 640 455 640 488 c 0,24,25
 640 538 640 538 617 575 c 128,-1,26
 594 612 594 612 555 636.5 c 128,-1,27
 516 661 516 661 467 673.5 c 128,-1,28
 418 686 418 686 367 686 c 0,29,30
 294 686 294 686 235.5 663 c 128,-1,31
 177 640 177 640 142.5 597 c 128,-1,32
 108 554 108 554 108 496 c 0,33,34
 108 442 108 442 140 395 c 1,35,36
 157 420 157 420 183.5 434 c 128,-1,37
 210 448 210 448 245 448 c 0,38,39
 281 448 281 448 308 433 c 128,-1,40
 335 418 335 418 351 392 c 1,41,42
 380 448 380 448 455 448 c 0,43,44
 502 448 502 448 528 427.5 c 128,-1,45
 554 407 554 407 564 376.5 c 128,-1,46
 574 346 574 346 574 315 c 2,47,-1
 574 -69 l 1,48,-1
 112 -69 l 1,49,-1
 112 -3 l 1,50,-1
 496 -3 l 1,51,-1
 496 310 l 2,52,53
 496 387 496 387 440 387 c 0,54,55
 382 387 382 387 382 310 c 2,56,-1
 382 93 l 1,57,-1
 304 93 l 1,58,-1
 309 183 l 1,59,60
 280 167 280 167 244 167 c 0,0,1
245 228 m 0,61,62
 275 228 275 228 293.5 251 c 128,-1,63
 312 274 312 274 312 308 c 0,64,65
 312 341 312 341 293.5 363.5 c 128,-1,66
 275 386 275 386 245 386 c 0,67,68
 214 386 214 386 196 363 c 128,-1,69
 178 340 178 340 178 307 c 256,70,71
 178 274 178 274 196 251 c 128,-1,72
 214 228 214 228 245 228 c 0,61,62
EndSplineSet
Ligature2: "'blws' Below Base Substitutions in Oriya2 lookup 13 subtable" uni0B15.base uni0B4D0B30
EndChar

StartChar: kharaoriya
Encoding: 65544 -1 107
Width: 741
GlyphClass: 2
Flags: W
HStem: -69 66<125 602> 85 65<243.705 382.685> 382 66<243.534 382.38> 463 65<446.839 601.232> 686 73<230.895 360>
VStem: 32 76<410.069 581.086> 126 73<193.251 319.164> 344 72<558.955 685.218> 427 72<193.251 338.726> 602 78<-3 478 537.827 751>
AnchorPoint: "+BBEENQQ3BEsEPARPBD0EPQQ+BDUA--1" 376 751 basechar 0
AnchorPoint: "+BBEENQQ3BEsEPARPBD0EPQQ+BDUA--0" 641 751 basechar 0
LayerCount: 2
Fore
SplineSet
312 85 m 256,0,1
 262 85 262 85 219.5 106 c 128,-1,2
 177 127 177 127 151.5 168 c 128,-1,3
 126 209 126 209 126 267 c 0,4,5
 126 288 126 288 130 308 c 1,6,7
 84 346 84 346 58 395.5 c 128,-1,8
 32 445 32 445 32 504 c 0,9,10
 32 571 32 571 67.5 629.5 c 128,-1,11
 103 688 103 688 179 723.5 c 128,-1,12
 255 759 255 759 376 759 c 2,13,-1
 421 759 l 1,14,-1
 457 719 l 1,15,16
 416 668 416 668 416 617 c 0,17,18
 416 579 416 579 442.5 553.5 c 128,-1,19
 469 528 469 528 522 528 c 0,20,21
 548 528 548 528 568.5 534 c 128,-1,22
 589 540 589 540 602 549 c 1,23,-1
 602 751 l 1,24,-1
 680 751 l 1,25,-1
 680 -69 l 1,26,-1
 125 -69 l 1,27,-1
 125 -3 l 1,28,-1
 602 -3 l 1,29,-1
 602 478 l 1,30,31
 566 463 566 463 518 463 c 0,32,33
 439 463 439 463 391.5 503.5 c 128,-1,34
 344 544 344 544 344 612 c 0,35,36
 344 651 344 651 360 686 c 1,37,38
 268 684 268 684 212.5 657 c 128,-1,39
 157 630 157 630 132.5 587 c 128,-1,40
 108 544 108 544 108 496 c 0,41,42
 108 461 108 461 121 429 c 128,-1,43
 134 397 134 397 156 371 c 1,44,45
 181 409 181 409 222.5 428.5 c 128,-1,46
 264 448 264 448 312 448 c 0,47,48
 362 448 362 448 404.5 427 c 128,-1,49
 447 406 447 406 473 365.5 c 128,-1,50
 499 325 499 325 499 267 c 256,51,52
 499 209 499 209 473 168 c 128,-1,53
 447 127 447 127 404.5 106 c 128,-1,54
 362 85 362 85 312 85 c 256,0,1
313 150 m 256,55,56
 358 150 358 150 392.5 179.5 c 128,-1,57
 427 209 427 209 427 267 c 0,58,59
 427 324 427 324 392 353 c 128,-1,60
 357 382 357 382 313 382 c 0,61,62
 268 382 268 382 233.5 353 c 128,-1,63
 199 324 199 324 199 267 c 0,64,65
 199 209 199 209 233.5 179.5 c 128,-1,66
 268 150 268 150 313 150 c 256,55,56
EndSplineSet
Ligature2: "'blws' Below Base Substitutions in Oriya2 lookup 13 subtable" uni0B16.base uni0B4D0B30
EndChar

StartChar: garaoriya
Encoding: 65545 -1 108
Width: 741
GlyphClass: 2
Flags: W
HStem: -69 66<125 601> 85 65<241.877 382.801> 382 66<240.341 383.836> 686 73<230.986 459.625>
VStem: 32 76<406.148 580.703> 126 72<194.249 317.866> 427 72<193.935 338.626> 601 78<-3 564.5 642 751>
AnchorPoint: "+BBEENQQ3BEsEPARPBD0EPQQ+BDUA--1" 336 751 basechar 0
AnchorPoint: "+BBEENQQ3BEsEPARPBD0EPQQ+BDUA--0" 640 751 basechar 0
LayerCount: 2
Fore
SplineSet
311 85 m 256,0,1
 256 85 256 85 214.5 108.5 c 128,-1,2
 173 132 173 132 149.5 173 c 128,-1,3
 126 214 126 214 126 267 c 0,4,5
 126 288 126 288 130 307 c 1,6,7
 79 346 79 346 55.5 396.5 c 128,-1,8
 32 447 32 447 32 503 c 0,9,10
 32 566 32 566 57.5 613.5 c 128,-1,11
 83 661 83 661 126 693.5 c 128,-1,12
 169 726 169 726 223 742.5 c 128,-1,13
 277 759 277 759 335 759 c 0,14,15
 411 759 411 759 483 730 c 128,-1,16
 555 701 555 701 604 642 c 1,17,-1
 601 751 l 1,18,-1
 679 751 l 1,19,-1
 679 -69 l 1,20,-1
 125 -69 l 1,21,-1
 125 -3 l 1,22,-1
 601 -3 l 1,23,-1
 601 512 l 1,24,25
 585 569 585 569 545.5 608 c 128,-1,26
 506 647 506 647 454 666.5 c 128,-1,27
 402 686 402 686 346 686 c 0,28,29
 285 686 285 686 230.5 664 c 128,-1,30
 176 642 176 642 142 599 c 128,-1,31
 108 556 108 556 108 494 c 0,32,33
 108 422 108 422 155 370 c 1,34,35
 179 406 179 406 219.5 427 c 128,-1,36
 260 448 260 448 311 448 c 0,37,38
 366 448 366 448 408.5 424.5 c 128,-1,39
 451 401 451 401 475 360 c 128,-1,40
 499 319 499 319 499 267 c 0,41,42
 499 214 499 214 475 173 c 128,-1,43
 451 132 451 132 408.5 108.5 c 128,-1,44
 366 85 366 85 311 85 c 256,0,1
312 150 m 256,45,46
 363 150 363 150 395 182 c 128,-1,47
 427 214 427 214 427 267 c 0,48,49
 427 318 427 318 395.5 350 c 128,-1,50
 364 382 364 382 312 382 c 256,51,52
 260 382 260 382 229 350 c 128,-1,53
 198 318 198 318 198 267 c 0,54,55
 198 215 198 215 229.5 182.5 c 128,-1,56
 261 150 261 150 312 150 c 256,45,46
EndSplineSet
Ligature2: "'blws' Below Base Substitutions in Oriya2 lookup 13 subtable" uni0B17.base uni0B4D0B30
EndChar

StartChar: gharaoriya
Encoding: 65546 -1 109
Width: 741
GlyphClass: 2
Flags: W
HStem: -69 66<125 601> 85 65<230.404 348.815 474.913 576.424> 686 73<228.109 458.129>
VStem: 32 76<406.146 578.675> 126 72<183.375 316.697> 381 64<182.626 327> 601 78<-3 137 174.24 564.5 642 751>
AnchorPoint: "+BBEENQQ3BEsEPARPBD0EPQQ+BDUA--1" 336 751 basechar 0
AnchorPoint: "+BBEENQQ3BEsEPARPBD0EPQQ+BDUA--0" 640 751 basechar 0
LayerCount: 2
Fore
SplineSet
125 -3 m 1,0,-1
 601 -3 l 1,1,-1
 605 137 l 1,2,3
 587 111 587 111 562.5 98 c 128,-1,4
 538 85 538 85 512 85 c 0,5,6
 482 85 482 85 453.5 102.5 c 128,-1,7
 425 120 425 120 410 155 c 1,8,9
 392 120 392 120 357.5 102.5 c 128,-1,10
 323 85 323 85 283 85 c 0,11,12
 238 85 238 85 202.5 105.5 c 128,-1,13
 167 126 167 126 146.5 163 c 128,-1,14
 126 200 126 200 126 249 c 0,15,16
 126 277 126 277 133 305 c 1,17,18
 83 342 83 342 57.5 393.5 c 128,-1,19
 32 445 32 445 32 504 c 0,20,21
 32 579 32 579 71 636.5 c 128,-1,22
 110 694 110 694 177.5 726.5 c 128,-1,23
 245 759 245 759 332 759 c 0,24,25
 414 759 414 759 485.5 729 c 128,-1,26
 557 699 557 699 604 642 c 1,27,-1
 601 751 l 1,28,-1
 679 751 l 1,29,-1
 679 -69 l 1,30,-1
 125 -69 l 1,31,-1
 125 -3 l 1,0,-1
445 257 m 2,32,33
 445 203 445 203 470 176.5 c 128,-1,34
 495 150 495 150 526 150 c 0,35,36
 556 150 556 150 578.5 173.5 c 128,-1,37
 601 197 601 197 601 242 c 2,38,-1
 601 512 l 1,39,40
 585 569 585 569 545.5 608 c 128,-1,41
 506 647 506 647 453 666.5 c 128,-1,42
 400 686 400 686 342 686 c 0,43,44
 274 686 274 686 221 661 c 128,-1,45
 168 636 168 636 138 592.5 c 128,-1,46
 108 549 108 549 108 493 c 0,47,48
 108 420 108 420 159 367 c 1,49,50
 181 404 181 404 217 434.5 c 128,-1,51
 253 465 253 465 303 485 c 1,52,-1
 327 429 l 1,53,54
 261 401 261 401 229.5 351 c 128,-1,55
 198 301 198 301 198 254 c 0,56,57
 198 209 198 209 223 179.5 c 128,-1,58
 248 150 248 150 289 150 c 0,59,60
 327 150 327 150 354 176.5 c 128,-1,61
 381 203 381 203 381 257 c 2,62,-1
 381 327 l 1,63,-1
 445 327 l 1,64,-1
 445 257 l 2,32,33
EndSplineSet
Ligature2: "'blws' Below Base Substitutions in Oriya2 lookup 13 subtable" uni0B18.base uni0B4D0B30
EndChar

StartChar: ngaraoriya
Encoding: 65547 -1 110
Width: 750
GlyphClass: 2
Flags: W
HStem: -69 66<107 554> 85 69<274.643 434.732> 485 56<563.116 659.572> 694 65<229.522 471.576> 695 56<562.986 659.534>
VStem: 32 76<413.156 584.753> 149 76<200.841 306.454> 476 72<192.1 308.787 558.128 669.341> 554 78<-3 107> 678 62<562.005 673.889>
AnchorPoint: "+BBEENQQ3BEsEPARPBD0EPQQ+BDUA--1" 347 751 basechar 0
AnchorPoint: "+BBEENQQ3BEsEPARPBD0EPQQ+BDUA--0" 591 751 basechar 0
LayerCount: 2
Fore
SplineSet
348 85 m 0,0,1
 292 85 292 85 247 106.5 c 128,-1,2
 202 128 202 128 175.5 168 c 128,-1,3
 149 208 149 208 149 263 c 0,4,5
 149 281 149 281 152 298 c 1,6,7
 91 337 91 337 61.5 392.5 c 128,-1,8
 32 448 32 448 32 509 c 0,9,10
 32 575 32 575 68.5 632 c 128,-1,11
 105 689 105 689 175 724 c 128,-1,12
 245 759 245 759 346 759 c 256,13,14
 447 759 447 759 526 722 c 1,15,16
 560 751 560 751 612 751 c 0,17,18
 674 751 674 751 707 711.5 c 128,-1,19
 740 672 740 672 740 618 c 0,20,21
 740 583 740 583 725.5 552.5 c 128,-1,22
 711 522 711 522 682.5 503.5 c 128,-1,23
 654 485 654 485 612 485 c 0,24,25
 556 485 556 485 518.5 519.5 c 128,-1,26
 481 554 481 554 481 617 c 0,27,28
 481 643 481 643 489 665 c 1,29,30
 458 679 458 679 424.5 686.5 c 128,-1,31
 391 694 391 694 352 694 c 0,32,33
 272 694 272 694 217.5 666.5 c 128,-1,34
 163 639 163 639 135.5 595 c 128,-1,35
 108 551 108 551 108 501 c 0,36,37
 108 464 108 464 123.5 426.5 c 128,-1,38
 139 389 139 389 172 362 c 1,39,40
 188 395 188 395 217 428 c 128,-1,41
 246 461 246 461 291 491 c 1,42,-1
 326 445 l 1,43,44
 271 401 271 401 248 354.5 c 128,-1,45
 225 308 225 308 225 270 c 0,46,47
 225 215 225 215 262.5 184.5 c 128,-1,48
 300 154 300 154 353 154 c 0,49,50
 384 154 384 154 412 164.5 c 128,-1,51
 440 175 440 175 458 196 c 128,-1,52
 476 217 476 217 476 249 c 0,53,54
 476 300 476 300 424 337 c 1,55,-1
 368 279 l 1,56,-1
 327 320 l 1,57,-1
 479 479 l 1,58,-1
 520 438 l 1,59,-1
 471 386 l 1,60,61
 512 359 512 359 530 323.5 c 128,-1,62
 548 288 548 288 548 250 c 0,63,64
 548 196 548 196 519.5 159.5 c 128,-1,65
 491 123 491 123 445 104 c 128,-1,66
 399 85 399 85 348 85 c 0,0,1
612 541 m 0,67,68
 645 541 645 541 661.5 565 c 128,-1,69
 678 589 678 589 678 618 c 0,70,71
 678 648 678 648 661.5 671.5 c 128,-1,72
 645 695 645 695 612 695 c 0,73,74
 584 695 584 695 563.5 675 c 128,-1,75
 543 655 543 655 543 617 c 0,76,77
 543 580 543 580 563.5 560.5 c 128,-1,78
 584 541 584 541 612 541 c 0,67,68
107 -3 m 1,79,-1
 554 -3 l 1,80,-1
 554 107 l 1,81,-1
 632 107 l 1,82,-1
 632 -69 l 1,83,-1
 107 -69 l 1,84,-1
 107 -3 l 1,79,-1
EndSplineSet
Ligature2: "'blws' Below Base Substitutions in Oriya2 lookup 13 subtable" uni0B19.base uni0B4D0B30
EndChar

StartChar: caraoriya
Encoding: 65548 -1 111
Width: 698
GlyphClass: 2
Flags: W
HStem: -69 66<106 553> 85 65<242.533 381.552> 382 66<241.797 382.567> 686 73<228.261 460.096>
VStem: 32 76<408.217 582.903> 126 72<194.954 318.682> 427 72<194.954 338.269> 553 78<-3 107> 586 80<399.102 577.702>
AnchorPoint: "+BBEENQQ3BEsEPARPBD0EPQQ+BDUA--3" 297 93 basechar 0
AnchorPoint: "+BBEENQQ3BEsEPARPBD0EPQQ+BDUA--1" 343 751 basechar 0
AnchorPoint: "+BBEENQQ3BEsEPARPBD0EPQQ+BDUA--0" 570 751 basechar 0
LayerCount: 2
Fore
SplineSet
312 85 m 0,0,1
 259 85 259 85 217 107.5 c 128,-1,2
 175 130 175 130 150.5 171 c 128,-1,3
 126 212 126 212 126 267 c 0,4,5
 126 288 126 288 130 308 c 1,6,7
 78 348 78 348 55 399 c 128,-1,8
 32 450 32 450 32 506 c 0,9,10
 32 570 32 570 58.5 617.5 c 128,-1,11
 85 665 85 665 129 696.5 c 128,-1,12
 173 728 173 728 229 743.5 c 128,-1,13
 285 759 285 759 343 759 c 0,14,15
 404 759 404 759 461.5 742 c 128,-1,16
 519 725 519 725 565 691 c 128,-1,17
 611 657 611 657 638.5 606 c 128,-1,18
 666 555 666 555 666 487 c 0,19,20
 666 442 666 442 651.5 402 c 128,-1,21
 637 362 637 362 612 330 c 1,22,-1
 542 366 l 1,23,24
 563 391 563 391 574.5 422 c 128,-1,25
 586 453 586 453 586 488 c 0,26,27
 586 554 586 554 551 598 c 128,-1,28
 516 642 516 642 460.5 664 c 128,-1,29
 405 686 405 686 344 686 c 0,30,31
 281 686 281 686 227.5 664 c 128,-1,32
 174 642 174 642 141 599.5 c 128,-1,33
 108 557 108 557 108 496 c 0,34,35
 108 424 108 424 156 371 c 1,36,37
 180 407 180 407 221 427.5 c 128,-1,38
 262 448 262 448 312 448 c 0,39,40
 363 448 363 448 405.5 425.5 c 128,-1,41
 448 403 448 403 473.5 362.5 c 128,-1,42
 499 322 499 322 499 267 c 256,43,44
 499 212 499 212 473.5 171 c 128,-1,45
 448 130 448 130 405.5 107.5 c 128,-1,46
 363 85 363 85 312 85 c 0,0,1
312 150 m 256,47,48
 361 150 361 150 394 182 c 128,-1,49
 427 214 427 214 427 267 c 0,50,51
 427 319 427 319 394.5 350.5 c 128,-1,52
 362 382 362 382 312 382 c 256,53,54
 262 382 262 382 230 350.5 c 128,-1,55
 198 319 198 319 198 267 c 0,56,57
 198 214 198 214 230.5 182 c 128,-1,58
 263 150 263 150 312 150 c 256,47,48
106 -69 m 1,59,-1
 106 -3 l 1,60,-1
 553 -3 l 1,61,-1
 553 107 l 1,62,-1
 631 107 l 1,63,-1
 631 -69 l 1,64,-1
 106 -69 l 1,59,-1
EndSplineSet
Ligature2: "'blws' Below Base Substitutions in Oriya2 lookup 13 subtable" uni0B1A.base uni0B4D0B30
EndChar

StartChar: charaoriya
Encoding: 65549 -1 112
Width: 717
GlyphClass: 2
Flags: W
HStem: -69 66<74 521> 85 57<135.769 256.365 449.526 521> 256 53<517 565.949> 296 55<37.3636 106.437> 487 66<278.47 421.926> 690 69<220.265 483.333>
VStem: 32 76<464.084 602.268> 58 63<156.634 241.858> 467 67<308.432 442.781> 521 78<-3 88.2355> 584 63<157.229 241.616> 609 76<451.469 591.643>
AnchorPoint: "+BBEENQQ3BEsEPARPBD0EPQQ+BDUA--1" 352 751 basechar 0
AnchorPoint: "+BBEENQQ3BEsEPARPBD0EPQQ+BDUA--0" 590 751 basechar 0
LayerCount: 2
Fore
SplineSet
74 -69 m 1,0,-1
 74 -3 l 1,1,-1
 521 -3 l 1,2,-1
 521 85 l 1,3,4
 485 88 485 88 443 107.5 c 128,-1,5
 401 127 401 127 354 168 c 1,6,7
 309 128 309 128 263 106.5 c 128,-1,8
 217 85 217 85 173 85 c 0,9,10
 119 85 119 85 88.5 118 c 128,-1,11
 58 151 58 151 58 197 c 0,12,13
 58 225 58 225 70 249 c 128,-1,14
 82 273 82 273 107 287 c 1,15,16
 89 290 89 290 70.5 292 c 128,-1,17
 52 294 52 294 33 296 c 1,18,-1
 38 351 l 1,19,20
 75 347 75 347 111 338.5 c 128,-1,21
 147 330 147 330 182 318 c 1,22,23
 171 343 171 343 168 371 c 1,24,25
 102 394 102 394 67 441.5 c 128,-1,26
 32 489 32 489 32 547 c 0,27,28
 32 614 32 614 75 661.5 c 128,-1,29
 118 709 118 709 190.5 734 c 128,-1,30
 263 759 263 759 352 759 c 0,31,32
 447 759 447 759 522.5 731.5 c 128,-1,33
 598 704 598 704 641.5 651.5 c 128,-1,34
 685 599 685 599 685 525 c 0,35,36
 685 502 685 502 680.5 478 c 128,-1,37
 676 454 676 454 666 430 c 1,38,-1
 595 451 l 1,39,40
 601 466 601 466 605 482.5 c 128,-1,41
 609 499 609 499 609 517 c 0,42,43
 609 572 609 572 573.5 610.5 c 128,-1,44
 538 649 538 649 479.5 669.5 c 128,-1,45
 421 690 421 690 351 690 c 0,46,47
 280 690 280 690 225 670 c 128,-1,48
 170 650 170 650 139 615 c 128,-1,49
 108 580 108 580 108 534 c 0,50,51
 108 501 108 501 124.5 472.5 c 128,-1,52
 141 444 141 444 171 425 c 1,53,54
 184 482 184 482 232 517.5 c 128,-1,55
 280 553 280 553 352 553 c 0,56,57
 434 553 434 553 484 506 c 128,-1,58
 534 459 534 459 534 384 c 0,59,60
 534 343 534 343 517 309 c 1,61,62
 520 309 520 309 523 309 c 0,63,64
 584 309 584 309 615.5 276 c 128,-1,65
 647 243 647 243 647 196 c 0,66,67
 647 134 647 134 599 103 c 1,68,-1
 599 -69 l 1,69,-1
 74 -69 l 1,0,-1
351 266 m 256,70,71
 399 266 399 266 433 293.5 c 128,-1,72
 467 321 467 321 467 375 c 0,73,74
 467 426 467 426 433 456.5 c 128,-1,75
 399 487 399 487 350 487 c 256,76,77
 301 487 301 487 267.5 457 c 128,-1,78
 234 427 234 427 234 378 c 0,79,80
 234 323 234 323 268.5 294.5 c 128,-1,81
 303 266 303 266 351 266 c 256,70,71
183 142 m 0,82,83
 239 142 239 142 305 198 c 1,84,85
 279 222 279 222 248 239 c 128,-1,86
 217 256 217 256 185 256 c 0,87,88
 156 256 156 256 138.5 240.5 c 128,-1,89
 121 225 121 225 121 200 c 256,90,91
 121 175 121 175 138 158.5 c 128,-1,92
 155 142 155 142 183 142 c 0,82,83
521 142 m 0,93,94
 549 142 549 142 566.5 158.5 c 128,-1,95
 584 175 584 175 584 200 c 256,96,97
 584 225 584 225 566.5 240.5 c 128,-1,98
 549 256 549 256 515 256 c 0,99,100
 489 256 489 256 465.5 244 c 128,-1,101
 442 232 442 232 400 198 c 1,102,103
 435 169 435 169 466.5 155.5 c 128,-1,104
 498 142 498 142 521 142 c 0,93,94
EndSplineSet
Ligature2: "'blws' Below Base Substitutions in Oriya2 lookup 13 subtable" uni0B1B.base uni0B4D0B30
EndChar

StartChar: jaraoriya
Encoding: 65550 -1 113
Width: 752
GlyphClass: 2
Flags: W
HStem: -69 66<112 496> 85 61<221.676 327.254> 387 61<396.338 481.612> 686 73<239.372 497.533>
VStem: 32 76<411.455 578.567> 112 72<183.37 331.585> 307 68<148.558 366.224> 496 78<-3 367.917> 640 80<401.272 572.619>
AnchorPoint: "+BBEENQQ3BEsEPARPBD0EPQQ+BDUA--1" 367 751 basechar 0
AnchorPoint: "+BBEENQQ3BEsEPARPBD0EPQQ+BDUA--0" 624 751 basechar 0
LayerCount: 2
Fore
SplineSet
112 -3 m 1,0,-1
 496 -3 l 1,1,-1
 496 311 l 2,2,3
 496 350 496 350 481 368.5 c 128,-1,4
 466 387 466 387 440 387 c 0,5,6
 375 387 375 387 375 273 c 0,7,8
 375 229 375 229 384 185.5 c 128,-1,9
 393 142 393 142 405 105 c 1,10,11
 352 85 352 85 292 85 c 0,12,13
 212 85 212 85 162 125.5 c 128,-1,14
 112 166 112 166 112 252 c 0,15,16
 112 287 112 287 121 319 c 1,17,18
 75 360 75 360 53.5 406.5 c 128,-1,19
 32 453 32 453 32 504 c 0,20,21
 32 581 32 581 77 638.5 c 128,-1,22
 122 696 122 696 198 727.5 c 128,-1,23
 274 759 274 759 367 759 c 0,24,25
 434 759 434 759 497 742 c 128,-1,26
 560 725 560 725 610.5 691 c 128,-1,27
 661 657 661 657 690.5 606 c 128,-1,28
 720 555 720 555 720 488 c 0,29,30
 720 446 720 446 707.5 409.5 c 128,-1,31
 695 373 695 373 671 343 c 1,32,-1
 600 374 l 1,33,34
 619 397 619 397 629.5 426 c 128,-1,35
 640 455 640 455 640 488 c 0,36,37
 640 538 640 538 617 575 c 128,-1,38
 594 612 594 612 555 636.5 c 128,-1,39
 516 661 516 661 467 673.5 c 128,-1,40
 418 686 418 686 367 686 c 0,41,42
 294 686 294 686 235.5 663 c 128,-1,43
 177 640 177 640 142.5 597 c 128,-1,44
 108 554 108 554 108 496 c 0,45,46
 108 434 108 434 149 382 c 1,47,48
 169 413 169 413 197 439.5 c 128,-1,49
 225 466 225 466 261 490 c 1,50,-1
 291 447 l 1,51,52
 184 358 184 358 184 254 c 0,53,54
 184 202 184 202 214 174 c 128,-1,55
 244 146 244 146 294 146 c 0,56,57
 312 146 312 146 328 150 c 1,58,59
 318 181 318 181 312.5 210.5 c 128,-1,60
 307 240 307 240 307 274 c 0,61,62
 307 350 307 350 340.5 399 c 128,-1,63
 374 448 374 448 450 448 c 0,64,65
 509 448 509 448 541.5 416.5 c 128,-1,66
 574 385 574 385 574 321 c 2,67,-1
 574 -69 l 1,68,-1
 112 -69 l 1,69,-1
 112 -3 l 1,0,-1
EndSplineSet
Ligature2: "'blws' Below Base Substitutions in Oriya2 lookup 13 subtable" uni0B1C.base uni0B4D0B30
EndChar

StartChar: jharaoriya
Encoding: 65551 -1 114
Width: 698
GlyphClass: 2
Flags: W
HStem: -69 66<129 455> 85 65<243.705 382.14> 382 66<243.534 382.38> 463 65<443.996 588.861> 686 73<232.526 365>
VStem: 32 76<409.956 577.644> 126 73<193.251 319.164> 345 71<556.442 684.998> 427 72<223.031 338.726> 455 78<-3 100> 617 71<556.586 687.889>
AnchorPoint: "+BBEENQQ3BEsEPARPBD0EPQQ+BDUA--1" 370 751 basechar 0
AnchorPoint: "+BBEENQQ3BEsEPARPBD0EPQQ+BDUA--0" 589 751 basechar 0
LayerCount: 2
Fore
SplineSet
312 85 m 0,0,1
 262 85 262 85 219.5 106 c 128,-1,2
 177 127 177 127 151.5 168 c 128,-1,3
 126 209 126 209 126 267 c 0,4,5
 126 288 126 288 130 308 c 1,6,7
 84 346 84 346 58 395.5 c 128,-1,8
 32 445 32 445 32 505 c 0,9,10
 32 572 32 572 68.5 629.5 c 128,-1,11
 105 687 105 687 182.5 723 c 128,-1,12
 260 759 260 759 383 759 c 2,13,-1
 421 759 l 1,14,-1
 457 719 l 1,15,16
 436 693 436 693 426 666 c 128,-1,17
 416 639 416 639 416 616 c 0,18,19
 416 578 416 578 440.5 553 c 128,-1,20
 465 528 465 528 516 528 c 0,21,22
 568 528 568 528 592.5 553 c 128,-1,23
 617 578 617 578 617 616 c 0,24,25
 617 640 617 640 606 666.5 c 128,-1,26
 595 693 595 693 572 719 c 1,27,-1
 612 759 l 1,28,29
 650 725 650 725 669 684 c 128,-1,30
 688 643 688 643 688 604 c 0,31,32
 688 547 688 547 646 505 c 128,-1,33
 604 463 604 463 516 463 c 0,34,35
 458 463 458 463 420 482.5 c 128,-1,36
 382 502 382 502 363.5 534 c 128,-1,37
 345 566 345 566 345 604 c 0,38,39
 345 645 345 645 365 686 c 1,40,41
 275 686 275 686 218.5 658.5 c 128,-1,42
 162 631 162 631 135 587.5 c 128,-1,43
 108 544 108 544 108 495 c 0,44,45
 108 460 108 460 121 428.5 c 128,-1,46
 134 397 134 397 156 371 c 1,47,48
 181 409 181 409 222.5 428.5 c 128,-1,49
 264 448 264 448 312 448 c 0,50,51
 362 448 362 448 404.5 427 c 128,-1,52
 447 406 447 406 473 365.5 c 128,-1,53
 499 325 499 325 499 267 c 0,54,55
 499 246 499 246 496 228 c 1,56,-1
 650 158 l 1,57,-1
 618 85 l 1,58,-1
 468 161 l 1,59,60
 443 124 443 124 401.5 104.5 c 128,-1,61
 360 85 360 85 312 85 c 0,0,1
313 150 m 256,62,63
 358 150 358 150 392.5 179.5 c 128,-1,64
 427 209 427 209 427 267 c 0,65,66
 427 324 427 324 392 353 c 128,-1,67
 357 382 357 382 313 382 c 0,68,69
 268 382 268 382 233.5 353 c 128,-1,70
 199 324 199 324 199 267 c 0,71,72
 199 209 199 209 233.5 179.5 c 128,-1,73
 268 150 268 150 313 150 c 256,62,63
129 -69 m 1,74,-1
 129 -3 l 1,75,-1
 455 -3 l 1,76,-1
 455 100 l 1,77,-1
 533 100 l 1,78,-1
 533 -69 l 1,79,-1
 129 -69 l 1,74,-1
EndSplineSet
Ligature2: "'blws' Below Base Substitutions in Oriya2 lookup 13 subtable" uni0B1D.base uni0B4D0B30
EndChar

StartChar: nyaraoriya
Encoding: 65552 -1 115
Width: 738
GlyphClass: 2
Flags: W
HStem: -69 66<123 599> 85 66<225.918 521.053> 403 61<292.504 391.857> 700 59<293.981 390.448 491.983 588.615>
VStem: 36 76<245.765 430.672> 54 76<550.556 720.94> 207 69<258.625 382.373 551.056 681.757> 409 65<253 383.916 546 680.917> 599 78<-3 100> 608 76<537.679 679.524> 626 76<235.902 388.495>
AnchorPoint: "+BBEENQQ3BEsEPARPBD0EPQQ+BDUA--1" 368 751 basechar 0
AnchorPoint: "+BBEENQQ3BEsEPARPBD0EPQQ+BDUA--0" 601 751 basechar 0
LayerCount: 2
Fore
SplineSet
373 85 m 0,0,1
 199 85 199 85 117.5 153.5 c 128,-1,2
 36 222 36 222 36 336 c 0,3,4
 36 425 36 425 95 504 c 1,5,6
 54 555 54 555 54 626 c 0,7,8
 54 696 54 696 89 755 c 1,9,-1
 157 733 l 1,10,11
 146 709 146 709 138 684 c 128,-1,12
 130 659 130 659 130 630 c 0,13,14
 130 551 130 551 192.5 507.5 c 128,-1,15
 255 464 255 464 378 464 c 0,16,17
 493 464 493 464 550.5 502.5 c 128,-1,18
 608 541 608 541 608 613 c 0,19,20
 608 656 608 656 589.5 678 c 128,-1,21
 571 700 571 700 540 700 c 0,22,23
 512 700 512 700 493 681.5 c 128,-1,24
 474 663 474 663 474 628 c 2,25,-1
 474 546 l 1,26,-1
 409 546 l 1,27,-1
 409 623 l 2,28,29
 409 663 409 663 389.5 681.5 c 128,-1,30
 370 700 370 700 343 700 c 0,31,32
 311 700 311 700 294 680.5 c 128,-1,33
 277 661 277 661 277 631 c 0,34,35
 277 612 277 612 282.5 592.5 c 128,-1,36
 288 573 288 573 298 552 c 1,37,-1
 235 536 l 1,38,39
 221 565 221 565 214.5 591.5 c 128,-1,40
 208 618 208 618 208 639 c 0,41,42
 208 693 208 693 240.5 726 c 128,-1,43
 273 759 273 759 333 759 c 0,44,45
 368 759 368 759 396.5 745 c 128,-1,46
 425 731 425 731 441 702 c 1,47,48
 457 732 457 732 487.5 745.5 c 128,-1,49
 518 759 518 759 553 759 c 0,50,51
 617 759 617 759 650.5 720.5 c 128,-1,52
 684 682 684 682 684 617 c 0,53,54
 684 573 684 573 667 534 c 128,-1,55
 650 495 650 495 614 466 c 1,56,57
 653 451 653 451 677.5 412 c 128,-1,58
 702 373 702 373 702 314 c 0,59,60
 702 247 702 247 666 195.5 c 128,-1,61
 630 144 630 144 557 114.5 c 128,-1,62
 484 85 484 85 373 85 c 0,0,1
112 336 m 0,63,64
 112 151 112 151 376 151 c 0,65,66
 498 151 498 151 562 193.5 c 128,-1,67
 626 236 626 236 626 313 c 0,68,69
 626 360 626 360 606 388 c 128,-1,70
 586 416 586 416 551 416 c 0,71,72
 522 416 522 416 500 393.5 c 128,-1,73
 478 371 478 371 478 326 c 2,74,-1
 478 253 l 1,75,-1
 413 253 l 1,76,-1
 413 324 l 2,77,78
 413 366 413 366 392.5 384.5 c 128,-1,79
 372 403 372 403 342 403 c 0,80,81
 308 403 308 403 292 383 c 128,-1,82
 276 363 276 363 276 334 c 0,83,84
 276 317 276 317 281.5 297.5 c 128,-1,85
 287 278 287 278 297 258 c 1,86,-1
 234 242 l 1,87,88
 220 270 220 270 213.5 295 c 128,-1,89
 207 320 207 320 207 342 c 0,90,91
 207 390 207 390 233 421 c 1,92,93
 184 434 184 434 148 457 c 1,94,95
 132 431 132 431 122 401.5 c 128,-1,96
 112 372 112 372 112 336 c 0,63,64
123 -69 m 1,97,-1
 123 -3 l 1,98,-1
 599 -3 l 1,99,-1
 599 100 l 1,100,-1
 677 100 l 1,101,-1
 677 -69 l 1,102,-1
 123 -69 l 1,97,-1
EndSplineSet
Ligature2: "'blws' Below Base Substitutions in Oriya2 lookup 13 subtable" uni0B1E.base uni0B4D0B30
EndChar

StartChar: ttaraoriya
Encoding: 65553 -1 116
Width: 701
GlyphClass: 2
Flags: W
HStem: -69 66<114 561> 85 65<242.489 382.218> 382 66<241.766 382.531> 686 73<221.166 438.022>
VStem: 32 76<408.197 586.23> 126 72<194.954 318.682> 427 72<194.954 338.269> 561 78<-3 107 406 578.881 654 751>
AnchorPoint: "+BBEENQQ3BEsEPARPBD0EPQQ+BDUA--1" 323 751 basechar 0
AnchorPoint: "+BBEENQQ3BEsEPARPBD0EPQQ+BDUA--0" 600 751 basechar 0
LayerCount: 2
Fore
SplineSet
311 85 m 256,0,1
 259 85 259 85 217 107.5 c 128,-1,2
 175 130 175 130 150.5 171 c 128,-1,3
 126 212 126 212 126 267 c 0,4,5
 126 288 126 288 130 308 c 1,6,7
 80 346 80 346 56 396 c 128,-1,8
 32 446 32 446 32 505 c 0,9,10
 32 589 32 589 73 645.5 c 128,-1,11
 114 702 114 702 180.5 730.5 c 128,-1,12
 247 759 247 759 323 759 c 0,13,14
 393 759 393 759 456.5 733 c 128,-1,15
 520 707 520 707 564 654 c 1,16,-1
 561 751 l 1,17,-1
 639 751 l 1,18,-1
 639 406 l 1,19,-1
 561 406 l 1,20,-1
 561 532 l 1,21,22
 535 610 535 610 470.5 648 c 128,-1,23
 406 686 406 686 330 686 c 0,24,25
 272 686 272 686 221.5 664.5 c 128,-1,26
 171 643 171 643 139.5 601 c 128,-1,27
 108 559 108 559 108 497 c 0,28,29
 108 460 108 460 120.5 428 c 128,-1,30
 133 396 133 396 156 371 c 1,31,32
 180 407 180 407 221 427.5 c 128,-1,33
 262 448 262 448 311 448 c 0,34,35
 363 448 363 448 405.5 425.5 c 128,-1,36
 448 403 448 403 473.5 362.5 c 128,-1,37
 499 322 499 322 499 267 c 256,38,39
 499 212 499 212 473.5 171 c 128,-1,40
 448 130 448 130 405.5 107.5 c 128,-1,41
 363 85 363 85 311 85 c 256,0,1
312 150 m 256,42,43
 361 150 361 150 394 182 c 128,-1,44
 427 214 427 214 427 267 c 0,45,46
 427 319 427 319 394.5 350.5 c 128,-1,47
 362 382 362 382 312 382 c 256,48,49
 262 382 262 382 230 350.5 c 128,-1,50
 198 319 198 319 198 267 c 0,51,52
 198 214 198 214 230.5 182 c 128,-1,53
 263 150 263 150 312 150 c 256,42,43
114 -69 m 1,54,-1
 114 -3 l 1,55,-1
 561 -3 l 1,56,-1
 561 107 l 1,57,-1
 639 107 l 1,58,-1
 639 -69 l 1,59,-1
 114 -69 l 1,54,-1
EndSplineSet
Ligature2: "'blws' Below Base Substitutions in Oriya2 lookup 13 subtable" uni0B1F.base uni0B4D0B30
EndChar

StartChar: ttharaoriya
Encoding: 65554 -1 117
Width: 754
GlyphClass: 2
Flags: W
HStem: -69 66<103 580> 86 73<261.312 492.412> 686 73<263.77 495.024>
VStem: 32 80<307.677 534.826> 580 78<-3 100> 642 80<307.547 537.846>
AnchorPoint: "+BBEENQQ3BEsEPARPBD0EPQQ+BDUA--1" 379 751 basechar 0
AnchorPoint: "+BBEENQQ3BEsEPARPBD0EPQQ+BDUA--0" 623 751 basechar 0
LayerCount: 2
Fore
SplineSet
378 86 m 0,0,1
 274 86 274 86 196.5 128 c 128,-1,2
 119 170 119 170 75.5 245 c 128,-1,3
 32 320 32 320 32 421 c 256,4,5
 32 522 32 522 75.5 598 c 128,-1,6
 119 674 119 674 197 716.5 c 128,-1,7
 275 759 275 759 379 759 c 0,8,9
 482 759 482 759 559 716.5 c 128,-1,10
 636 674 636 674 679 598 c 128,-1,11
 722 522 722 522 722 421 c 256,12,13
 722 320 722 320 679 245 c 128,-1,14
 636 170 636 170 558.5 128 c 128,-1,15
 481 86 481 86 378 86 c 0,0,1
378 159 m 0,16,17
 457 159 457 159 516.5 192 c 128,-1,18
 576 225 576 225 609 284.5 c 128,-1,19
 642 344 642 344 642 424 c 0,20,21
 642 502 642 502 609.5 561 c 128,-1,22
 577 620 577 620 518 653 c 128,-1,23
 459 686 459 686 380 686 c 0,24,25
 300 686 300 686 239.5 653 c 128,-1,26
 179 620 179 620 145.5 560 c 128,-1,27
 112 500 112 500 112 421 c 256,28,29
 112 342 112 342 145.5 283 c 128,-1,30
 179 224 179 224 238.5 191.5 c 128,-1,31
 298 159 298 159 378 159 c 0,16,17
103 -69 m 1,32,-1
 103 -3 l 1,33,-1
 580 -3 l 1,34,-1
 580 100 l 1,35,-1
 658 100 l 1,36,-1
 658 -69 l 1,37,-1
 103 -69 l 1,32,-1
EndSplineSet
Ligature2: "'blws' Below Base Substitutions in Oriya2 lookup 13 subtable" uni0B20.base uni0B4D0B30
EndChar

StartChar: ddaraoriya
Encoding: 65555 -1 118
Width: 734
GlyphClass: 2
Flags: W
HStem: -69 66<105 552> 85 69<274.643 434.732> 686 73<232.762 489.238>
VStem: 32 76<414.667 579.13> 149 76<200.841 306.454> 476 72<192.1 308.787> 552 78<-3 107> 622 80<399.216 576.607>
AnchorPoint: "+BBEENQQ3BEsEPARPBD0EPQQ+BDUA--1" 364 751 basechar 0
AnchorPoint: "+BBEENQQ3BEsEPARPBD0EPQQ+BDUA--0" 606 751 basechar 0
LayerCount: 2
Fore
SplineSet
149 263 m 0,0,1
 149 281 149 281 152 298 c 1,2,3
 94 335 94 335 63 390 c 128,-1,4
 32 445 32 445 32 507 c 0,5,6
 32 578 32 578 72 635 c 128,-1,7
 112 692 112 692 186 725.5 c 128,-1,8
 260 759 260 759 364 759 c 0,9,10
 428 759 428 759 488.5 742 c 128,-1,11
 549 725 549 725 597 691.5 c 128,-1,12
 645 658 645 658 673.5 607 c 128,-1,13
 702 556 702 556 702 489 c 0,14,15
 702 441 702 441 686 399.5 c 128,-1,16
 670 358 670 358 642 325 c 1,17,-1
 574 361 l 1,18,19
 622 416 622 416 622 488 c 0,20,21
 622 554 622 554 585.5 598 c 128,-1,22
 549 642 549 642 490 664 c 128,-1,23
 431 686 431 686 365 686 c 0,24,25
 279 686 279 686 222 659.5 c 128,-1,26
 165 633 165 633 136.5 590.5 c 128,-1,27
 108 548 108 548 108 499 c 0,28,29
 108 461 108 461 125 424 c 128,-1,30
 142 387 142 387 172 362 c 1,31,32
 188 395 188 395 217 428 c 128,-1,33
 246 461 246 461 291 491 c 1,34,-1
 326 445 l 1,35,36
 271 401 271 401 248 354.5 c 128,-1,37
 225 308 225 308 225 270 c 0,38,39
 225 215 225 215 262.5 184.5 c 128,-1,40
 300 154 300 154 353 154 c 0,41,42
 384 154 384 154 412 164.5 c 128,-1,43
 440 175 440 175 458 196 c 128,-1,44
 476 217 476 217 476 249 c 0,45,46
 476 300 476 300 424 337 c 1,47,-1
 368 279 l 1,48,-1
 327 320 l 1,49,-1
 479 479 l 1,50,-1
 520 438 l 1,51,-1
 471 386 l 1,52,53
 512 359 512 359 530 323.5 c 128,-1,54
 548 288 548 288 548 250 c 0,55,56
 548 196 548 196 519.5 159.5 c 128,-1,57
 491 123 491 123 445 104 c 128,-1,58
 399 85 399 85 348 85 c 0,59,60
 292 85 292 85 247 106.5 c 128,-1,61
 202 128 202 128 175.5 168 c 128,-1,62
 149 208 149 208 149 263 c 0,0,1
105 -69 m 1,63,-1
 105 -3 l 1,64,-1
 552 -3 l 1,65,-1
 552 107 l 1,66,-1
 630 107 l 1,67,-1
 630 -69 l 1,68,-1
 105 -69 l 1,63,-1
EndSplineSet
Ligature2: "'blws' Below Base Substitutions in Oriya2 lookup 13 subtable" uni0B21.base uni0B4D0B30
EndChar

StartChar: ddharaoriya
Encoding: 65556 -1 119
Width: 734
GlyphClass: 2
Flags: W
HStem: -69 66<115 573> 85 62<236.425 367.537> 360 58<379.077 467.581> 686 73<234.847 489.297>
VStem: 32 76<413.726 580.964> 126 68<189.618 322.531> 299 65<225.563 343.507> 482 65<220.363 343.967> 573 78<-3 107> 622 80<398.974 576.088>
AnchorPoint: "+BBEENQQ3BEsEPARPBD0EPQQ+BDUA--1" 365 751 basechar 0
AnchorPoint: "+BBEENQQ3BEsEPARPBD0EPQQ+BDUA--0" 606 751 basechar 0
LayerCount: 2
Fore
SplineSet
126 258 m 0,0,1
 126 285 126 285 133 311 c 1,2,3
 84 348 84 348 58 399.5 c 128,-1,4
 32 451 32 451 32 508 c 0,5,6
 32 586 32 586 75.5 642 c 128,-1,7
 119 698 119 698 193.5 728.5 c 128,-1,8
 268 759 268 759 360 759 c 0,9,10
 457 759 457 759 534 726.5 c 128,-1,11
 611 694 611 694 656.5 633.5 c 128,-1,12
 702 573 702 573 702 489 c 0,13,14
 702 442 702 442 686.5 400.5 c 128,-1,15
 671 359 671 359 643 326 c 1,16,-1
 576 363 l 1,17,18
 622 418 622 418 622 487 c 0,19,20
 622 554 622 554 585.5 598 c 128,-1,21
 549 642 549 642 489.5 664 c 128,-1,22
 430 686 430 686 361 686 c 0,23,24
 287 686 287 686 230 662.5 c 128,-1,25
 173 639 173 639 140.5 597.5 c 128,-1,26
 108 556 108 556 108 500 c 0,27,28
 108 466 108 466 121 432.5 c 128,-1,29
 134 399 134 399 158 374 c 1,30,31
 197 443 197 443 275 494 c 1,32,-1
 307 452 l 1,33,34
 257 413 257 413 225.5 363 c 128,-1,35
 194 313 194 313 194 263 c 0,36,37
 194 233 194 233 206 206.5 c 128,-1,38
 218 180 218 180 244 163.5 c 128,-1,39
 270 147 270 147 314 147 c 0,40,41
 343 147 343 147 368 154 c 1,42,43
 299 217 299 217 299 297 c 0,44,45
 299 353 299 353 333.5 385.5 c 128,-1,46
 368 418 368 418 421 418 c 0,47,48
 479 418 479 418 513 383.5 c 128,-1,49
 547 349 547 349 547 298 c 0,50,51
 547 259 547 259 528 220.5 c 128,-1,52
 509 182 509 182 475 151 c 1,53,54
 510 132 510 132 554 116 c 1,55,-1
 530 63 l 1,56,57
 467 86 467 86 421 114 c 1,58,59
 395 100 395 100 364 92.5 c 128,-1,60
 333 85 333 85 298 85 c 0,61,62
 239 85 239 85 200.5 109.5 c 128,-1,63
 162 134 162 134 144 173.5 c 128,-1,64
 126 213 126 213 126 258 c 0,0,1
364 293 m 0,65,66
 364 264 364 264 379 236.5 c 128,-1,67
 394 209 394 209 426 183 c 1,68,69
 454 205 454 205 468 234.5 c 128,-1,70
 482 264 482 264 482 293 c 256,71,72
 482 322 482 322 467 341 c 128,-1,73
 452 360 452 360 423 360 c 0,74,75
 395 360 395 360 379.5 340.5 c 128,-1,76
 364 321 364 321 364 293 c 0,65,66
115 -69 m 1,77,-1
 115 -3 l 1,78,-1
 573 -3 l 1,79,-1
 573 107 l 1,80,-1
 651 107 l 1,81,-1
 651 -69 l 1,82,-1
 115 -69 l 1,77,-1
EndSplineSet
Ligature2: "'blws' Below Base Substitutions in Oriya2 lookup 13 subtable" uni0B22.base uni0B4D0B30
EndChar

StartChar: nnaraoriya
Encoding: 65557 -1 120
Width: 741
GlyphClass: 2
Flags: W
HStem: -69 66<125 601> 85 62<204.205 383.649> 320 58<137.031 378.433> 496 62<245.164 400.156> 694 65<274.292 456.304>
VStem: 170 72<557.513 663.465> 420 80<179.989 283.114> 601 78<-3 565.284 641 751>
AnchorPoint: "+BBEENQQ3BEsEPARPBD0EPQQ+BDUA--1" 370 751 basechar 0
AnchorPoint: "+BBEENQQ3BEsEPARPBD0EPQQ+BDUA--0" 640 751 basechar 0
LayerCount: 2
Fore
SplineSet
32 327 m 0,0,1
 32 403 32 403 72 461 c 128,-1,2
 112 519 112 519 185 543 c 1,3,4
 170 581 170 581 170 618 c 0,5,6
 170 681 170 681 216.5 720 c 128,-1,7
 263 759 263 759 346 759 c 0,8,9
 414 759 414 759 484.5 729.5 c 128,-1,10
 555 700 555 700 604 641 c 1,11,-1
 601 751 l 1,12,-1
 679 751 l 1,13,-1
 679 -69 l 1,14,-1
 125 -69 l 1,15,-1
 125 -3 l 1,16,-1
 601 -3 l 1,17,-1
 601 511 l 1,18,19
 584 572 584 572 544 612.5 c 128,-1,20
 504 653 504 653 453.5 673.5 c 128,-1,21
 403 694 403 694 355 694 c 0,22,23
 303 694 303 694 272.5 671 c 128,-1,24
 242 648 242 648 242 607 c 0,25,26
 242 583 242 583 252 557 c 1,27,28
 268 558 268 558 284 558 c 0,29,30
 316 558 316 558 351 552 c 128,-1,31
 386 546 386 546 420 533 c 1,32,-1
 401 476 l 1,33,34
 374 486 374 486 345 491.5 c 128,-1,35
 316 497 316 497 290 496 c 0,36,37
 209 496 209 496 164 454.5 c 128,-1,38
 119 413 119 413 113 349 c 1,39,40
 191 378 191 378 279 378 c 0,41,42
 382 378 382 378 441 338.5 c 128,-1,43
 500 299 500 299 500 229 c 0,44,45
 500 183 500 183 473.5 151 c 128,-1,46
 447 119 447 119 402 102 c 128,-1,47
 357 85 357 85 302 85 c 0,48,49
 253 85 253 85 205.5 99 c 128,-1,50
 158 113 158 113 118.5 142.5 c 128,-1,51
 79 172 79 172 55.5 218 c 128,-1,52
 32 264 32 264 32 327 c 0,0,1
275 320 m 0,53,54
 235 320 235 320 192.5 312 c 128,-1,55
 150 304 150 304 115 291 c 1,56,57
 123 240 123 240 152.5 208 c 128,-1,58
 182 176 182 176 221 161.5 c 128,-1,59
 260 147 260 147 299 147 c 0,60,61
 348 147 348 147 384 169 c 128,-1,62
 420 191 420 191 420 231 c 0,63,64
 420 273 420 273 382 296.5 c 128,-1,65
 344 320 344 320 275 320 c 0,53,54
EndSplineSet
Ligature2: "'blws' Below Base Substitutions in Oriya2 lookup 13 subtable" uni0B23.base uni0B4D0B30
EndChar

StartChar: taraoriya
Encoding: 65558 -1 121
Width: 734
GlyphClass: 2
Flags: W
HStem: -69 66<109 556> 85 65<275.161 432.073> 292 122<362.205 446.818> 686 73<237.811 493.973>
VStem: 32 76<412.589 579.867> 149 72<201.787 307.002> 479 69<196.073 326.217> 556 78<-3 107> 622 80<407.833 583.988>
AnchorPoint: "+BBEENQQ3BEsEPARPBD0EPQQ+BDUA--1" 364 751 basechar 0
AnchorPoint: "+BBEENQQ3BEsEPARPBD0EPQQ+BDUA--0" 606 751 basechar 0
LayerCount: 2
Fore
SplineSet
149 269 m 0,0,1
 149 284 149 284 151 299 c 1,2,3
 91 338 91 338 61.5 392 c 128,-1,4
 32 446 32 446 32 507 c 0,5,6
 32 586 32 586 77.5 642.5 c 128,-1,7
 123 699 123 699 198.5 729 c 128,-1,8
 274 759 274 759 364 759 c 0,9,10
 456 759 456 759 532.5 728.5 c 128,-1,11
 609 698 609 698 655.5 640.5 c 128,-1,12
 702 583 702 583 702 502 c 0,13,14
 702 453 702 453 686.5 410 c 128,-1,15
 671 367 671 367 642 333 c 1,16,-1
 575 369 l 1,17,18
 622 426 622 426 622 501 c 0,19,20
 622 562 622 562 586 603.5 c 128,-1,21
 550 645 550 645 491 665.5 c 128,-1,22
 432 686 432 686 362 686 c 0,23,24
 291 686 291 686 233 662.5 c 128,-1,25
 175 639 175 639 141.5 597 c 128,-1,26
 108 555 108 555 108 499 c 0,27,28
 108 468 108 468 122 430 c 128,-1,29
 136 392 136 392 170 363 c 1,30,31
 202 432 202 432 280 491 c 1,32,-1
 314 447 l 1,33,34
 269 407 269 407 245 363.5 c 128,-1,35
 221 320 221 320 221 275 c 0,36,37
 221 233 221 233 240 205.5 c 128,-1,38
 259 178 259 178 290 164 c 128,-1,39
 321 150 321 150 356 150 c 0,40,41
 412 150 412 150 445.5 182.5 c 128,-1,42
 479 215 479 215 479 262 c 0,43,44
 479 304 479 304 454 330 c 1,45,46
 450 312 450 312 434.5 302 c 128,-1,47
 419 292 419 292 400 292 c 0,48,49
 375 292 375 292 357 308 c 128,-1,50
 339 324 339 324 339 350 c 0,51,52
 339 382 339 382 361.5 398 c 128,-1,53
 384 414 384 414 415 414 c 0,54,55
 450 414 450 414 480.5 396.5 c 128,-1,56
 511 379 511 379 529.5 345.5 c 128,-1,57
 548 312 548 312 548 267 c 0,58,59
 548 216 548 216 523.5 174.5 c 128,-1,60
 499 133 499 133 455 109 c 128,-1,61
 411 85 411 85 351 85 c 0,62,63
 296 85 296 85 250 106.5 c 128,-1,64
 204 128 204 128 176.5 169.5 c 128,-1,65
 149 211 149 211 149 269 c 0,0,1
109 -69 m 1,66,-1
 109 -3 l 1,67,-1
 556 -3 l 1,68,-1
 556 107 l 1,69,-1
 634 107 l 1,70,-1
 634 -69 l 1,71,-1
 109 -69 l 1,66,-1
EndSplineSet
Ligature2: "'blws' Below Base Substitutions in Oriya2 lookup 13 subtable" uni0B24.base uni0B4D0B30
EndChar

